%TF.GenerationSoftware,KiCad,Pcbnew,(5.1.6-0-10_14)*%
%TF.CreationDate,2021-11-24T09:42:12-06:00*%
%TF.ProjectId,EE514 Board (JLC),45453531-3420-4426-9f61-726420284a4c,rev?*%
%TF.SameCoordinates,Original*%
%TF.FileFunction,Soldermask,Bot*%
%TF.FilePolarity,Negative*%
%FSLAX46Y46*%
G04 Gerber Fmt 4.6, Leading zero omitted, Abs format (unit mm)*
G04 Created by KiCad (PCBNEW (5.1.6-0-10_14)) date 2021-11-24 09:42:12*
%MOMM*%
%LPD*%
G01*
G04 APERTURE LIST*
%ADD10C,5.080000*%
%ADD11R,5.180000X2.520000*%
%ADD12R,2.520000X5.180000*%
%ADD13C,2.200000*%
%ADD14R,2.200000X2.200000*%
%ADD15C,0.900000*%
G04 APERTURE END LIST*
D10*
X109728000Y-67564000D02*
X195834000Y-67564000D01*
X195834000Y-134112000D02*
X109728000Y-134112000D01*
X195834000Y-67564000D02*
G75*
G02*
X198882000Y-70612000I0J-3048000D01*
G01*
X106680000Y-131064000D02*
X106680000Y-70612000D01*
X198882000Y-131064000D02*
G75*
G02*
X195834000Y-134112000I-3048000J0D01*
G01*
X109728000Y-134112000D02*
G75*
G02*
X106680000Y-131064000I0J3048000D01*
G01*
X106680000Y-70612000D02*
G75*
G02*
X109728000Y-67564000I3048000J0D01*
G01*
X198882000Y-70612000D02*
X198882000Y-131064000D01*
D11*
%TO.C,J102*%
X109543000Y-84136000D03*
X109543000Y-75376000D03*
%TD*%
D12*
%TO.C,J106*%
X170245000Y-131133000D03*
X179005000Y-131133000D03*
%TD*%
%TO.C,J105*%
X135190000Y-131133000D03*
X126430000Y-131133000D03*
%TD*%
D11*
%TO.C,J104*%
X195903000Y-75376000D03*
X195903000Y-84136000D03*
%TD*%
%TO.C,J103*%
X109543000Y-117667000D03*
X109543000Y-126427000D03*
%TD*%
D13*
%TO.C,J101*%
X110744000Y-102235000D03*
D14*
X110744000Y-99695000D03*
%TD*%
D15*
X118745000Y-132080000D03*
X121412000Y-132080000D03*
X123952000Y-132080000D03*
X136271000Y-132080000D03*
X146304000Y-132080000D03*
X138811000Y-132080000D03*
X141478000Y-132080000D03*
X144018000Y-132080000D03*
X156337000Y-132080000D03*
X148844000Y-132080000D03*
X151511000Y-132080000D03*
X154051000Y-132080000D03*
X166370000Y-132080000D03*
X158877000Y-132080000D03*
X161544000Y-132080000D03*
X164084000Y-132080000D03*
X168910000Y-132080000D03*
X186436000Y-132080000D03*
X181610000Y-132080000D03*
X184150000Y-132080000D03*
X188976000Y-132080000D03*
X191643000Y-132080000D03*
X194183000Y-132080000D03*
X181610000Y-69596000D03*
X184150000Y-69596000D03*
X186436000Y-69596000D03*
X128778000Y-69596000D03*
X118745000Y-69596000D03*
X158877000Y-69596000D03*
X164084000Y-69596000D03*
X123952000Y-69596000D03*
X166370000Y-69596000D03*
X161544000Y-69596000D03*
X121412000Y-69596000D03*
X171577000Y-69596000D03*
X148844000Y-69596000D03*
X176403000Y-69596000D03*
X154051000Y-69596000D03*
X168910000Y-69596000D03*
X151511000Y-69596000D03*
X156337000Y-69596000D03*
X191643000Y-69596000D03*
X146304000Y-69596000D03*
X194183000Y-69596000D03*
X138811000Y-69596000D03*
X141478000Y-69596000D03*
X144018000Y-69596000D03*
X188976000Y-69596000D03*
X178943000Y-69596000D03*
X136271000Y-69596000D03*
X133985000Y-69596000D03*
X116205000Y-69596000D03*
X126238000Y-69596000D03*
X111379000Y-69596000D03*
X113919000Y-69596000D03*
X131445000Y-69596000D03*
X174117000Y-69596000D03*
X196850000Y-109474000D03*
X196850000Y-119507000D03*
X196850000Y-74168000D03*
X196850000Y-114300000D03*
X196850000Y-71882000D03*
X196850000Y-116840000D03*
X196850000Y-89408000D03*
X196850000Y-86741000D03*
X196850000Y-91948000D03*
X196850000Y-99441000D03*
X196850000Y-96774000D03*
X196850000Y-94234000D03*
X196850000Y-101981000D03*
X196850000Y-104267000D03*
X196850000Y-122047000D03*
X196850000Y-112014000D03*
X196850000Y-129540000D03*
X196850000Y-126873000D03*
X196850000Y-124333000D03*
X196850000Y-106807000D03*
X108712000Y-109474000D03*
X108712000Y-114300000D03*
X108712000Y-71882000D03*
X108712000Y-89408000D03*
X108712000Y-86741000D03*
X108712000Y-91948000D03*
X108712000Y-99441000D03*
X108712000Y-96774000D03*
X108712000Y-94234000D03*
X108712000Y-101981000D03*
X108712000Y-104267000D03*
X108712000Y-112014000D03*
X108712000Y-129540000D03*
X108712000Y-106807000D03*
X127939800Y-117449600D03*
X129971800Y-119735600D03*
X128727200Y-121589800D03*
X127177800Y-121589800D03*
X127000000Y-123012200D03*
X131775200Y-116433600D03*
X165379400Y-115062000D03*
X168148000Y-119227600D03*
X177292000Y-122301000D03*
X177215800Y-117856000D03*
X178308000Y-116840000D03*
X167233600Y-106908600D03*
X174828200Y-101396800D03*
X176149000Y-100025200D03*
X177393600Y-106654600D03*
X123190000Y-106832400D03*
X130759200Y-101371400D03*
X132105400Y-99949000D03*
X133350000Y-106578400D03*
X111379000Y-132080000D03*
X113919000Y-132080000D03*
X116205000Y-132080000D03*
M02*
