%TF.GenerationSoftware,KiCad,Pcbnew,(5.1.6-0-10_14)*%
%TF.CreationDate,2021-11-23T23:31:24-06:00*%
%TF.ProjectId,EE514 Board (JLC),45453531-3420-4426-9f61-726420284a4c,rev?*%
%TF.SameCoordinates,Original*%
%TF.FileFunction,Paste,Top*%
%TF.FilePolarity,Positive*%
%FSLAX46Y46*%
G04 Gerber Fmt 4.6, Leading zero omitted, Abs format (unit mm)*
G04 Created by KiCad (PCBNEW (5.1.6-0-10_14)) date 2021-11-23 23:31:24*
%MOMM*%
%LPD*%
G01*
G04 APERTURE LIST*
%ADD10R,5.080000X2.420000*%
%ADD11R,5.080000X2.290000*%
%ADD12R,0.950000X0.975000*%
%ADD13R,0.975000X0.950000*%
%ADD14R,0.800000X0.600000*%
%ADD15R,0.800000X0.900000*%
%ADD16R,2.290000X5.080000*%
%ADD17R,2.420000X5.080000*%
G04 APERTURE END LIST*
D10*
%TO.C,J102*%
X109543000Y-84136000D03*
X109543000Y-75376000D03*
D11*
X109543000Y-79756000D03*
%TD*%
D12*
%TO.C,C403*%
X167233600Y-104192700D03*
X167233600Y-106017700D03*
%TD*%
%TO.C,C203*%
X123190000Y-104116500D03*
X123190000Y-105941500D03*
%TD*%
%TO.C,U401*%
G36*
G01*
X175771000Y-105871800D02*
X175771000Y-106171800D01*
G75*
G02*
X175621000Y-106321800I-150000J0D01*
G01*
X173971000Y-106321800D01*
G75*
G02*
X173821000Y-106171800I0J150000D01*
G01*
X173821000Y-105871800D01*
G75*
G02*
X173971000Y-105721800I150000J0D01*
G01*
X175621000Y-105721800D01*
G75*
G02*
X175771000Y-105871800I0J-150000D01*
G01*
G37*
G36*
G01*
X175771000Y-104601800D02*
X175771000Y-104901800D01*
G75*
G02*
X175621000Y-105051800I-150000J0D01*
G01*
X173971000Y-105051800D01*
G75*
G02*
X173821000Y-104901800I0J150000D01*
G01*
X173821000Y-104601800D01*
G75*
G02*
X173971000Y-104451800I150000J0D01*
G01*
X175621000Y-104451800D01*
G75*
G02*
X175771000Y-104601800I0J-150000D01*
G01*
G37*
G36*
G01*
X175771000Y-103331800D02*
X175771000Y-103631800D01*
G75*
G02*
X175621000Y-103781800I-150000J0D01*
G01*
X173971000Y-103781800D01*
G75*
G02*
X173821000Y-103631800I0J150000D01*
G01*
X173821000Y-103331800D01*
G75*
G02*
X173971000Y-103181800I150000J0D01*
G01*
X175621000Y-103181800D01*
G75*
G02*
X175771000Y-103331800I0J-150000D01*
G01*
G37*
G36*
G01*
X175771000Y-102061800D02*
X175771000Y-102361800D01*
G75*
G02*
X175621000Y-102511800I-150000J0D01*
G01*
X173971000Y-102511800D01*
G75*
G02*
X173821000Y-102361800I0J150000D01*
G01*
X173821000Y-102061800D01*
G75*
G02*
X173971000Y-101911800I150000J0D01*
G01*
X175621000Y-101911800D01*
G75*
G02*
X175771000Y-102061800I0J-150000D01*
G01*
G37*
G36*
G01*
X170821000Y-102061800D02*
X170821000Y-102361800D01*
G75*
G02*
X170671000Y-102511800I-150000J0D01*
G01*
X169021000Y-102511800D01*
G75*
G02*
X168871000Y-102361800I0J150000D01*
G01*
X168871000Y-102061800D01*
G75*
G02*
X169021000Y-101911800I150000J0D01*
G01*
X170671000Y-101911800D01*
G75*
G02*
X170821000Y-102061800I0J-150000D01*
G01*
G37*
G36*
G01*
X170821000Y-103331800D02*
X170821000Y-103631800D01*
G75*
G02*
X170671000Y-103781800I-150000J0D01*
G01*
X169021000Y-103781800D01*
G75*
G02*
X168871000Y-103631800I0J150000D01*
G01*
X168871000Y-103331800D01*
G75*
G02*
X169021000Y-103181800I150000J0D01*
G01*
X170671000Y-103181800D01*
G75*
G02*
X170821000Y-103331800I0J-150000D01*
G01*
G37*
G36*
G01*
X170821000Y-104601800D02*
X170821000Y-104901800D01*
G75*
G02*
X170671000Y-105051800I-150000J0D01*
G01*
X169021000Y-105051800D01*
G75*
G02*
X168871000Y-104901800I0J150000D01*
G01*
X168871000Y-104601800D01*
G75*
G02*
X169021000Y-104451800I150000J0D01*
G01*
X170671000Y-104451800D01*
G75*
G02*
X170821000Y-104601800I0J-150000D01*
G01*
G37*
G36*
G01*
X170821000Y-105871800D02*
X170821000Y-106171800D01*
G75*
G02*
X170671000Y-106321800I-150000J0D01*
G01*
X169021000Y-106321800D01*
G75*
G02*
X168871000Y-106171800I0J150000D01*
G01*
X168871000Y-105871800D01*
G75*
G02*
X169021000Y-105721800I150000J0D01*
G01*
X170671000Y-105721800D01*
G75*
G02*
X170821000Y-105871800I0J-150000D01*
G01*
G37*
%TD*%
%TO.C,U201*%
G36*
G01*
X126777400Y-105726800D02*
X126777400Y-106026800D01*
G75*
G02*
X126627400Y-106176800I-150000J0D01*
G01*
X124977400Y-106176800D01*
G75*
G02*
X124827400Y-106026800I0J150000D01*
G01*
X124827400Y-105726800D01*
G75*
G02*
X124977400Y-105576800I150000J0D01*
G01*
X126627400Y-105576800D01*
G75*
G02*
X126777400Y-105726800I0J-150000D01*
G01*
G37*
G36*
G01*
X126777400Y-104456800D02*
X126777400Y-104756800D01*
G75*
G02*
X126627400Y-104906800I-150000J0D01*
G01*
X124977400Y-104906800D01*
G75*
G02*
X124827400Y-104756800I0J150000D01*
G01*
X124827400Y-104456800D01*
G75*
G02*
X124977400Y-104306800I150000J0D01*
G01*
X126627400Y-104306800D01*
G75*
G02*
X126777400Y-104456800I0J-150000D01*
G01*
G37*
G36*
G01*
X126777400Y-103186800D02*
X126777400Y-103486800D01*
G75*
G02*
X126627400Y-103636800I-150000J0D01*
G01*
X124977400Y-103636800D01*
G75*
G02*
X124827400Y-103486800I0J150000D01*
G01*
X124827400Y-103186800D01*
G75*
G02*
X124977400Y-103036800I150000J0D01*
G01*
X126627400Y-103036800D01*
G75*
G02*
X126777400Y-103186800I0J-150000D01*
G01*
G37*
G36*
G01*
X126777400Y-101916800D02*
X126777400Y-102216800D01*
G75*
G02*
X126627400Y-102366800I-150000J0D01*
G01*
X124977400Y-102366800D01*
G75*
G02*
X124827400Y-102216800I0J150000D01*
G01*
X124827400Y-101916800D01*
G75*
G02*
X124977400Y-101766800I150000J0D01*
G01*
X126627400Y-101766800D01*
G75*
G02*
X126777400Y-101916800I0J-150000D01*
G01*
G37*
G36*
G01*
X131727400Y-101916800D02*
X131727400Y-102216800D01*
G75*
G02*
X131577400Y-102366800I-150000J0D01*
G01*
X129927400Y-102366800D01*
G75*
G02*
X129777400Y-102216800I0J150000D01*
G01*
X129777400Y-101916800D01*
G75*
G02*
X129927400Y-101766800I150000J0D01*
G01*
X131577400Y-101766800D01*
G75*
G02*
X131727400Y-101916800I0J-150000D01*
G01*
G37*
G36*
G01*
X131727400Y-103186800D02*
X131727400Y-103486800D01*
G75*
G02*
X131577400Y-103636800I-150000J0D01*
G01*
X129927400Y-103636800D01*
G75*
G02*
X129777400Y-103486800I0J150000D01*
G01*
X129777400Y-103186800D01*
G75*
G02*
X129927400Y-103036800I150000J0D01*
G01*
X131577400Y-103036800D01*
G75*
G02*
X131727400Y-103186800I0J-150000D01*
G01*
G37*
G36*
G01*
X131727400Y-104456800D02*
X131727400Y-104756800D01*
G75*
G02*
X131577400Y-104906800I-150000J0D01*
G01*
X129927400Y-104906800D01*
G75*
G02*
X129777400Y-104756800I0J150000D01*
G01*
X129777400Y-104456800D01*
G75*
G02*
X129927400Y-104306800I150000J0D01*
G01*
X131577400Y-104306800D01*
G75*
G02*
X131727400Y-104456800I0J-150000D01*
G01*
G37*
G36*
G01*
X131727400Y-105726800D02*
X131727400Y-106026800D01*
G75*
G02*
X131577400Y-106176800I-150000J0D01*
G01*
X129927400Y-106176800D01*
G75*
G02*
X129777400Y-106026800I0J150000D01*
G01*
X129777400Y-105726800D01*
G75*
G02*
X129927400Y-105576800I150000J0D01*
G01*
X131577400Y-105576800D01*
G75*
G02*
X131727400Y-105726800I0J-150000D01*
G01*
G37*
%TD*%
%TO.C,R501*%
X169011600Y-115089300D03*
X169011600Y-116914300D03*
%TD*%
%TO.C,R407*%
X179425600Y-101826700D03*
X179425600Y-100001700D03*
%TD*%
%TO.C,R406*%
X181457600Y-101826700D03*
X181457600Y-100001700D03*
%TD*%
D13*
%TO.C,R405*%
X171194100Y-108153200D03*
X169369100Y-108153200D03*
%TD*%
D12*
%TO.C,R404*%
X177393600Y-101826700D03*
X177393600Y-100001700D03*
%TD*%
%TO.C,R403*%
X177393600Y-105763700D03*
X177393600Y-103938700D03*
%TD*%
D13*
%TO.C,R402*%
X175258100Y-100025200D03*
X173433100Y-100025200D03*
%TD*%
%TO.C,R401*%
X171194100Y-100025200D03*
X169369100Y-100025200D03*
%TD*%
%TO.C,R301*%
X127074300Y-119303800D03*
X125249300Y-119303800D03*
%TD*%
D12*
%TO.C,R207*%
X135382000Y-99925500D03*
X135382000Y-101750500D03*
%TD*%
%TO.C,R206*%
X137414000Y-99925500D03*
X137414000Y-101750500D03*
%TD*%
D13*
%TO.C,R205*%
X125325500Y-108077000D03*
X127150500Y-108077000D03*
%TD*%
D12*
%TO.C,R204*%
X133350000Y-99925500D03*
X133350000Y-101750500D03*
%TD*%
%TO.C,R203*%
X133350000Y-103862500D03*
X133350000Y-105687500D03*
%TD*%
D13*
%TO.C,R202*%
X129389500Y-99949000D03*
X131214500Y-99949000D03*
%TD*%
%TO.C,R201*%
X125325500Y-99949000D03*
X127150500Y-99949000D03*
%TD*%
D14*
%TO.C,Q501*%
X173730000Y-118044200D03*
X173730000Y-119344200D03*
X171710000Y-118044200D03*
D15*
X171710000Y-119194200D03*
%TD*%
%TO.C,Q301*%
X127951800Y-121577600D03*
D14*
X127951800Y-120427600D03*
X129971800Y-121727600D03*
X129971800Y-120427600D03*
%TD*%
D13*
%TO.C,L505*%
X176426500Y-122301000D03*
X174601500Y-122301000D03*
%TD*%
%TO.C,L504*%
X177366300Y-119532400D03*
X175541300Y-119532400D03*
%TD*%
%TO.C,L503*%
X176424600Y-117856000D03*
X174599600Y-117856000D03*
%TD*%
%TO.C,L502*%
X169013500Y-119227600D03*
X170838500Y-119227600D03*
%TD*%
%TO.C,L501*%
X170838500Y-117856000D03*
X169013500Y-117856000D03*
%TD*%
D12*
%TO.C,L303*%
X131775200Y-121918100D03*
X131775200Y-120093100D03*
%TD*%
%TO.C,L302*%
X124307600Y-119276500D03*
X124307600Y-117451500D03*
%TD*%
D13*
%TO.C,L301*%
X124309500Y-123012200D03*
X126134500Y-123012200D03*
%TD*%
D16*
%TO.C,J106*%
X174625000Y-131133000D03*
D17*
X170245000Y-131133000D03*
X179005000Y-131133000D03*
%TD*%
D16*
%TO.C,J105*%
X130810000Y-131133000D03*
D17*
X126430000Y-131133000D03*
X135190000Y-131133000D03*
%TD*%
D10*
%TO.C,J104*%
X195903000Y-75376000D03*
X195903000Y-84136000D03*
D11*
X195903000Y-79756000D03*
%TD*%
%TO.C,J103*%
X109543000Y-122047000D03*
D10*
X109543000Y-117667000D03*
X109543000Y-126427000D03*
%TD*%
D12*
%TO.C,C505*%
X174599600Y-121359300D03*
X174599600Y-119534300D03*
%TD*%
%TO.C,C504*%
X178308000Y-117705500D03*
X178308000Y-119530500D03*
%TD*%
D13*
%TO.C,C501*%
X166244900Y-115062000D03*
X168069900Y-115062000D03*
%TD*%
%TO.C,C402*%
X179529100Y-103962200D03*
X181354100Y-103962200D03*
%TD*%
%TO.C,C401*%
X173433100Y-108153200D03*
X175258100Y-108153200D03*
%TD*%
D12*
%TO.C,C305*%
X131775200Y-119124100D03*
X131775200Y-117299100D03*
%TD*%
%TO.C,C304*%
X130835400Y-121921900D03*
X130835400Y-123746900D03*
%TD*%
D13*
%TO.C,C303*%
X125249300Y-120243600D03*
X127074300Y-120243600D03*
%TD*%
%TO.C,C302*%
X125249300Y-117449600D03*
X127074300Y-117449600D03*
%TD*%
D12*
%TO.C,C301*%
X124307600Y-122070500D03*
X124307600Y-120245500D03*
%TD*%
D13*
%TO.C,C202*%
X137310500Y-103886000D03*
X135485500Y-103886000D03*
%TD*%
%TO.C,C201*%
X131214500Y-108077000D03*
X129389500Y-108077000D03*
%TD*%
M02*
