M48
; DRILL file {KiCad (5.1.6-0-10_14)} date Tuesday, November 23, 2021 at 11:31:27 PM
; FORMAT={-:-/ absolute / inch / decimal}
; #@! TF.CreationDate,2021-11-23T23:31:27-06:00
; #@! TF.GenerationSoftware,Kicad,Pcbnew,(5.1.6-0-10_14)
; #@! TF.FileFunction,Plated,1,4,PTH
FMAT,2
INCH
T1C0.0157
T2C0.0181
T3C0.0433
%
G90
G05
T1
X4.85Y-4.206
X4.993Y-4.843
X5.013Y-4.787
X5.031Y-4.624
X5.062Y-4.787
X5.117Y-4.721
X5.148Y-3.991
X5.188Y-4.59
X5.201Y-3.935
X5.25Y-4.196
X6.518Y-4.53
X6.584Y-4.209
X6.627Y-4.694
X6.883Y-3.992
X6.935Y-3.938
X6.973Y-4.64
X6.973Y-4.815
X6.984Y-4.199
X7.02Y-4.607
T2
X4.9776Y-5.0273
X5.3224Y-5.0273
X7.5773Y-2.9676
X7.5773Y-3.3124
X6.7026Y-5.0273
X7.0474Y-5.0273
X4.4481Y-2.9676
X4.4481Y-3.3124
X4.4481Y-4.6326
X4.4481Y-4.9774
T3
X4.36Y-3.925
X4.36Y-4.025
T0
M30
