%TF.GenerationSoftware,KiCad,Pcbnew,(5.1.6-0-10_14)*%
%TF.CreationDate,2021-11-24T09:42:12-06:00*%
%TF.ProjectId,EE514 Board (JLC),45453531-3420-4426-9f61-726420284a4c,rev?*%
%TF.SameCoordinates,Original*%
%TF.FileFunction,Soldermask,Top*%
%TF.FilePolarity,Negative*%
%FSLAX46Y46*%
G04 Gerber Fmt 4.6, Leading zero omitted, Abs format (unit mm)*
G04 Created by KiCad (PCBNEW (5.1.6-0-10_14)) date 2021-11-24 09:42:12*
%MOMM*%
%LPD*%
G01*
G04 APERTURE LIST*
%ADD10C,5.080000*%
%ADD11C,0.477800*%
%ADD12C,0.390170*%
%ADD13C,0.100000*%
%ADD14R,5.180000X2.520000*%
%ADD15R,5.180000X2.390000*%
%ADD16R,1.166800X3.910000*%
%ADD17R,1.050000X1.075000*%
%ADD18R,1.075000X1.050000*%
%ADD19R,0.900000X0.700000*%
%ADD20R,0.900000X1.000000*%
%ADD21R,2.390000X5.180000*%
%ADD22R,2.520000X5.180000*%
%ADD23C,2.200000*%
%ADD24R,2.200000X2.200000*%
%ADD25R,0.176200X0.176200*%
%ADD26C,0.900000*%
G04 APERTURE END LIST*
D10*
X109728000Y-67564000D02*
X195834000Y-67564000D01*
X195834000Y-134112000D02*
X109728000Y-134112000D01*
X195834000Y-67564000D02*
G75*
G02*
X198882000Y-70612000I0J-3048000D01*
G01*
X106680000Y-131064000D02*
X106680000Y-70612000D01*
X198882000Y-70612000D02*
X198882000Y-131064000D01*
X106680000Y-70612000D02*
G75*
G02*
X109728000Y-67564000I3048000J0D01*
G01*
X109728000Y-134112000D02*
G75*
G02*
X106680000Y-131064000I0J3048000D01*
G01*
X198882000Y-131064000D02*
G75*
G02*
X195834000Y-134112000I-3048000J0D01*
G01*
D11*
X118719600Y-79756000D02*
X119227600Y-80264000D01*
X119227600Y-80264000D02*
X119392700Y-80264000D01*
X109543000Y-79756000D02*
X118719600Y-79756000D01*
D12*
X119392700Y-80264000D02*
X119507000Y-80264000D01*
D11*
X187985400Y-79756000D02*
X187744100Y-79514700D01*
X187744100Y-79514700D02*
X187528200Y-79514700D01*
D12*
X187523120Y-79519780D02*
X187528200Y-79514700D01*
X187426600Y-79519780D02*
X187523120Y-79519780D01*
D11*
X195903000Y-79756000D02*
X187985400Y-79756000D01*
X174625000Y-131133000D02*
X174625000Y-122324500D01*
X174625000Y-122324500D02*
X174601500Y-122301000D01*
X130810000Y-131133000D02*
X130810000Y-123772300D01*
X130810000Y-123772300D02*
X130835400Y-123746900D01*
X109543000Y-122047000D02*
X124284100Y-122047000D01*
X124284100Y-122047000D02*
X124307600Y-122070500D01*
D13*
%TO.C,FL101*%
G36*
X187972700Y-80816450D02*
G01*
X118960900Y-80816450D01*
X118960900Y-78966060D01*
X187972700Y-78966060D01*
X187972700Y-80816450D01*
G37*
X187972700Y-80816450D02*
X118960900Y-80816450D01*
X118960900Y-78966060D01*
X187972700Y-78966060D01*
X187972700Y-80816450D01*
%TD*%
D14*
%TO.C,J102*%
X109543000Y-84136000D03*
X109543000Y-75376000D03*
D15*
X109543000Y-79756000D03*
%TD*%
D16*
%TO.C,C503*%
X173583600Y-115849400D03*
%TD*%
%TO.C,C502*%
X171704000Y-121539000D03*
%TD*%
D17*
%TO.C,C403*%
X167233600Y-104192700D03*
X167233600Y-106017700D03*
%TD*%
%TO.C,C203*%
X123190000Y-104116500D03*
X123190000Y-105941500D03*
%TD*%
%TO.C,U401*%
G36*
G01*
X175821000Y-105846800D02*
X175821000Y-106196800D01*
G75*
G02*
X175646000Y-106371800I-175000J0D01*
G01*
X173946000Y-106371800D01*
G75*
G02*
X173771000Y-106196800I0J175000D01*
G01*
X173771000Y-105846800D01*
G75*
G02*
X173946000Y-105671800I175000J0D01*
G01*
X175646000Y-105671800D01*
G75*
G02*
X175821000Y-105846800I0J-175000D01*
G01*
G37*
G36*
G01*
X175821000Y-104576800D02*
X175821000Y-104926800D01*
G75*
G02*
X175646000Y-105101800I-175000J0D01*
G01*
X173946000Y-105101800D01*
G75*
G02*
X173771000Y-104926800I0J175000D01*
G01*
X173771000Y-104576800D01*
G75*
G02*
X173946000Y-104401800I175000J0D01*
G01*
X175646000Y-104401800D01*
G75*
G02*
X175821000Y-104576800I0J-175000D01*
G01*
G37*
G36*
G01*
X175821000Y-103306800D02*
X175821000Y-103656800D01*
G75*
G02*
X175646000Y-103831800I-175000J0D01*
G01*
X173946000Y-103831800D01*
G75*
G02*
X173771000Y-103656800I0J175000D01*
G01*
X173771000Y-103306800D01*
G75*
G02*
X173946000Y-103131800I175000J0D01*
G01*
X175646000Y-103131800D01*
G75*
G02*
X175821000Y-103306800I0J-175000D01*
G01*
G37*
G36*
G01*
X175821000Y-102036800D02*
X175821000Y-102386800D01*
G75*
G02*
X175646000Y-102561800I-175000J0D01*
G01*
X173946000Y-102561800D01*
G75*
G02*
X173771000Y-102386800I0J175000D01*
G01*
X173771000Y-102036800D01*
G75*
G02*
X173946000Y-101861800I175000J0D01*
G01*
X175646000Y-101861800D01*
G75*
G02*
X175821000Y-102036800I0J-175000D01*
G01*
G37*
G36*
G01*
X170871000Y-102036800D02*
X170871000Y-102386800D01*
G75*
G02*
X170696000Y-102561800I-175000J0D01*
G01*
X168996000Y-102561800D01*
G75*
G02*
X168821000Y-102386800I0J175000D01*
G01*
X168821000Y-102036800D01*
G75*
G02*
X168996000Y-101861800I175000J0D01*
G01*
X170696000Y-101861800D01*
G75*
G02*
X170871000Y-102036800I0J-175000D01*
G01*
G37*
G36*
G01*
X170871000Y-103306800D02*
X170871000Y-103656800D01*
G75*
G02*
X170696000Y-103831800I-175000J0D01*
G01*
X168996000Y-103831800D01*
G75*
G02*
X168821000Y-103656800I0J175000D01*
G01*
X168821000Y-103306800D01*
G75*
G02*
X168996000Y-103131800I175000J0D01*
G01*
X170696000Y-103131800D01*
G75*
G02*
X170871000Y-103306800I0J-175000D01*
G01*
G37*
G36*
G01*
X170871000Y-104576800D02*
X170871000Y-104926800D01*
G75*
G02*
X170696000Y-105101800I-175000J0D01*
G01*
X168996000Y-105101800D01*
G75*
G02*
X168821000Y-104926800I0J175000D01*
G01*
X168821000Y-104576800D01*
G75*
G02*
X168996000Y-104401800I175000J0D01*
G01*
X170696000Y-104401800D01*
G75*
G02*
X170871000Y-104576800I0J-175000D01*
G01*
G37*
G36*
G01*
X170871000Y-105846800D02*
X170871000Y-106196800D01*
G75*
G02*
X170696000Y-106371800I-175000J0D01*
G01*
X168996000Y-106371800D01*
G75*
G02*
X168821000Y-106196800I0J175000D01*
G01*
X168821000Y-105846800D01*
G75*
G02*
X168996000Y-105671800I175000J0D01*
G01*
X170696000Y-105671800D01*
G75*
G02*
X170871000Y-105846800I0J-175000D01*
G01*
G37*
%TD*%
%TO.C,U201*%
G36*
G01*
X126827400Y-105701800D02*
X126827400Y-106051800D01*
G75*
G02*
X126652400Y-106226800I-175000J0D01*
G01*
X124952400Y-106226800D01*
G75*
G02*
X124777400Y-106051800I0J175000D01*
G01*
X124777400Y-105701800D01*
G75*
G02*
X124952400Y-105526800I175000J0D01*
G01*
X126652400Y-105526800D01*
G75*
G02*
X126827400Y-105701800I0J-175000D01*
G01*
G37*
G36*
G01*
X126827400Y-104431800D02*
X126827400Y-104781800D01*
G75*
G02*
X126652400Y-104956800I-175000J0D01*
G01*
X124952400Y-104956800D01*
G75*
G02*
X124777400Y-104781800I0J175000D01*
G01*
X124777400Y-104431800D01*
G75*
G02*
X124952400Y-104256800I175000J0D01*
G01*
X126652400Y-104256800D01*
G75*
G02*
X126827400Y-104431800I0J-175000D01*
G01*
G37*
G36*
G01*
X126827400Y-103161800D02*
X126827400Y-103511800D01*
G75*
G02*
X126652400Y-103686800I-175000J0D01*
G01*
X124952400Y-103686800D01*
G75*
G02*
X124777400Y-103511800I0J175000D01*
G01*
X124777400Y-103161800D01*
G75*
G02*
X124952400Y-102986800I175000J0D01*
G01*
X126652400Y-102986800D01*
G75*
G02*
X126827400Y-103161800I0J-175000D01*
G01*
G37*
G36*
G01*
X126827400Y-101891800D02*
X126827400Y-102241800D01*
G75*
G02*
X126652400Y-102416800I-175000J0D01*
G01*
X124952400Y-102416800D01*
G75*
G02*
X124777400Y-102241800I0J175000D01*
G01*
X124777400Y-101891800D01*
G75*
G02*
X124952400Y-101716800I175000J0D01*
G01*
X126652400Y-101716800D01*
G75*
G02*
X126827400Y-101891800I0J-175000D01*
G01*
G37*
G36*
G01*
X131777400Y-101891800D02*
X131777400Y-102241800D01*
G75*
G02*
X131602400Y-102416800I-175000J0D01*
G01*
X129902400Y-102416800D01*
G75*
G02*
X129727400Y-102241800I0J175000D01*
G01*
X129727400Y-101891800D01*
G75*
G02*
X129902400Y-101716800I175000J0D01*
G01*
X131602400Y-101716800D01*
G75*
G02*
X131777400Y-101891800I0J-175000D01*
G01*
G37*
G36*
G01*
X131777400Y-103161800D02*
X131777400Y-103511800D01*
G75*
G02*
X131602400Y-103686800I-175000J0D01*
G01*
X129902400Y-103686800D01*
G75*
G02*
X129727400Y-103511800I0J175000D01*
G01*
X129727400Y-103161800D01*
G75*
G02*
X129902400Y-102986800I175000J0D01*
G01*
X131602400Y-102986800D01*
G75*
G02*
X131777400Y-103161800I0J-175000D01*
G01*
G37*
G36*
G01*
X131777400Y-104431800D02*
X131777400Y-104781800D01*
G75*
G02*
X131602400Y-104956800I-175000J0D01*
G01*
X129902400Y-104956800D01*
G75*
G02*
X129727400Y-104781800I0J175000D01*
G01*
X129727400Y-104431800D01*
G75*
G02*
X129902400Y-104256800I175000J0D01*
G01*
X131602400Y-104256800D01*
G75*
G02*
X131777400Y-104431800I0J-175000D01*
G01*
G37*
G36*
G01*
X131777400Y-105701800D02*
X131777400Y-106051800D01*
G75*
G02*
X131602400Y-106226800I-175000J0D01*
G01*
X129902400Y-106226800D01*
G75*
G02*
X129727400Y-106051800I0J175000D01*
G01*
X129727400Y-105701800D01*
G75*
G02*
X129902400Y-105526800I175000J0D01*
G01*
X131602400Y-105526800D01*
G75*
G02*
X131777400Y-105701800I0J-175000D01*
G01*
G37*
%TD*%
%TO.C,R501*%
X169011600Y-115089300D03*
X169011600Y-116914300D03*
%TD*%
%TO.C,R407*%
X179425600Y-101826700D03*
X179425600Y-100001700D03*
%TD*%
%TO.C,R406*%
X181457600Y-101826700D03*
X181457600Y-100001700D03*
%TD*%
D18*
%TO.C,R405*%
X171194100Y-108153200D03*
X169369100Y-108153200D03*
%TD*%
D17*
%TO.C,R404*%
X177393600Y-101826700D03*
X177393600Y-100001700D03*
%TD*%
%TO.C,R403*%
X177393600Y-105763700D03*
X177393600Y-103938700D03*
%TD*%
D18*
%TO.C,R402*%
X175258100Y-100025200D03*
X173433100Y-100025200D03*
%TD*%
%TO.C,R401*%
X171194100Y-100025200D03*
X169369100Y-100025200D03*
%TD*%
%TO.C,R301*%
X127074300Y-119303800D03*
X125249300Y-119303800D03*
%TD*%
D17*
%TO.C,R207*%
X135382000Y-99925500D03*
X135382000Y-101750500D03*
%TD*%
%TO.C,R206*%
X137414000Y-99925500D03*
X137414000Y-101750500D03*
%TD*%
D18*
%TO.C,R205*%
X125325500Y-108077000D03*
X127150500Y-108077000D03*
%TD*%
D17*
%TO.C,R204*%
X133350000Y-99925500D03*
X133350000Y-101750500D03*
%TD*%
%TO.C,R203*%
X133350000Y-103862500D03*
X133350000Y-105687500D03*
%TD*%
D18*
%TO.C,R202*%
X129389500Y-99949000D03*
X131214500Y-99949000D03*
%TD*%
%TO.C,R201*%
X125325500Y-99949000D03*
X127150500Y-99949000D03*
%TD*%
D19*
%TO.C,Q501*%
X173730000Y-118044200D03*
X173730000Y-119344200D03*
X171710000Y-118044200D03*
D20*
X171710000Y-119194200D03*
%TD*%
%TO.C,Q301*%
X127951800Y-121577600D03*
D19*
X127951800Y-120427600D03*
X129971800Y-121727600D03*
X129971800Y-120427600D03*
%TD*%
D18*
%TO.C,L505*%
X176426500Y-122301000D03*
X174601500Y-122301000D03*
%TD*%
%TO.C,L504*%
X177366300Y-119532400D03*
X175541300Y-119532400D03*
%TD*%
%TO.C,L503*%
X176424600Y-117856000D03*
X174599600Y-117856000D03*
%TD*%
%TO.C,L502*%
X169013500Y-119227600D03*
X170838500Y-119227600D03*
%TD*%
%TO.C,L501*%
X170838500Y-117856000D03*
X169013500Y-117856000D03*
%TD*%
D17*
%TO.C,L303*%
X131775200Y-121918100D03*
X131775200Y-120093100D03*
%TD*%
%TO.C,L302*%
X124307600Y-119276500D03*
X124307600Y-117451500D03*
%TD*%
D18*
%TO.C,L301*%
X124309500Y-123012200D03*
X126134500Y-123012200D03*
%TD*%
D21*
%TO.C,J106*%
X174625000Y-131133000D03*
D22*
X170245000Y-131133000D03*
X179005000Y-131133000D03*
%TD*%
%TO.C,J105*%
X135190000Y-131133000D03*
X126430000Y-131133000D03*
D21*
X130810000Y-131133000D03*
%TD*%
D14*
%TO.C,J104*%
X195903000Y-75376000D03*
X195903000Y-84136000D03*
D15*
X195903000Y-79756000D03*
%TD*%
%TO.C,J103*%
X109543000Y-122047000D03*
D14*
X109543000Y-117667000D03*
X109543000Y-126427000D03*
%TD*%
D23*
%TO.C,J101*%
X110744000Y-102235000D03*
D24*
X110744000Y-99695000D03*
%TD*%
D25*
%TO.C,FL101*%
X187426600Y-79519780D03*
X119507000Y-80264000D03*
%TD*%
D17*
%TO.C,C505*%
X174599600Y-121359300D03*
X174599600Y-119534300D03*
%TD*%
%TO.C,C504*%
X178308000Y-117705500D03*
X178308000Y-119530500D03*
%TD*%
D18*
%TO.C,C501*%
X166244900Y-115062000D03*
X168069900Y-115062000D03*
%TD*%
%TO.C,C402*%
X179529100Y-103962200D03*
X181354100Y-103962200D03*
%TD*%
%TO.C,C401*%
X173433100Y-108153200D03*
X175258100Y-108153200D03*
%TD*%
D17*
%TO.C,C305*%
X131775200Y-119124100D03*
X131775200Y-117299100D03*
%TD*%
%TO.C,C304*%
X130835400Y-121921900D03*
X130835400Y-123746900D03*
%TD*%
D18*
%TO.C,C303*%
X125249300Y-120243600D03*
X127074300Y-120243600D03*
%TD*%
%TO.C,C302*%
X125249300Y-117449600D03*
X127074300Y-117449600D03*
%TD*%
D17*
%TO.C,C301*%
X124307600Y-122070500D03*
X124307600Y-120245500D03*
%TD*%
D18*
%TO.C,C202*%
X137310500Y-103886000D03*
X135485500Y-103886000D03*
%TD*%
%TO.C,C201*%
X131214500Y-108077000D03*
X129389500Y-108077000D03*
%TD*%
D26*
X118745000Y-132080000D03*
X121412000Y-132080000D03*
X123952000Y-132080000D03*
X136271000Y-132080000D03*
X146304000Y-132080000D03*
X138811000Y-132080000D03*
X141478000Y-132080000D03*
X144018000Y-132080000D03*
X156337000Y-132080000D03*
X148844000Y-132080000D03*
X151511000Y-132080000D03*
X154051000Y-132080000D03*
X166370000Y-132080000D03*
X158877000Y-132080000D03*
X161544000Y-132080000D03*
X164084000Y-132080000D03*
X168910000Y-132080000D03*
X186436000Y-132080000D03*
X181610000Y-132080000D03*
X184150000Y-132080000D03*
X188976000Y-132080000D03*
X191643000Y-132080000D03*
X194183000Y-132080000D03*
X181610000Y-69596000D03*
X184150000Y-69596000D03*
X186436000Y-69596000D03*
X128778000Y-69596000D03*
X118745000Y-69596000D03*
X158877000Y-69596000D03*
X164084000Y-69596000D03*
X123952000Y-69596000D03*
X166370000Y-69596000D03*
X161544000Y-69596000D03*
X121412000Y-69596000D03*
X171577000Y-69596000D03*
X148844000Y-69596000D03*
X176403000Y-69596000D03*
X154051000Y-69596000D03*
X168910000Y-69596000D03*
X151511000Y-69596000D03*
X156337000Y-69596000D03*
X191643000Y-69596000D03*
X146304000Y-69596000D03*
X194183000Y-69596000D03*
X138811000Y-69596000D03*
X141478000Y-69596000D03*
X144018000Y-69596000D03*
X188976000Y-69596000D03*
X178943000Y-69596000D03*
X136271000Y-69596000D03*
X133985000Y-69596000D03*
X116205000Y-69596000D03*
X126238000Y-69596000D03*
X111379000Y-69596000D03*
X113919000Y-69596000D03*
X131445000Y-69596000D03*
X174117000Y-69596000D03*
X196850000Y-109474000D03*
X196850000Y-119507000D03*
X196850000Y-74168000D03*
X196850000Y-114300000D03*
X196850000Y-71882000D03*
X196850000Y-116840000D03*
X196850000Y-89408000D03*
X196850000Y-86741000D03*
X196850000Y-91948000D03*
X196850000Y-99441000D03*
X196850000Y-96774000D03*
X196850000Y-94234000D03*
X196850000Y-101981000D03*
X196850000Y-104267000D03*
X196850000Y-122047000D03*
X196850000Y-112014000D03*
X196850000Y-129540000D03*
X196850000Y-126873000D03*
X196850000Y-124333000D03*
X196850000Y-106807000D03*
X108712000Y-109474000D03*
X108712000Y-114300000D03*
X108712000Y-71882000D03*
X108712000Y-89408000D03*
X108712000Y-86741000D03*
X108712000Y-91948000D03*
X108712000Y-99441000D03*
X108712000Y-96774000D03*
X108712000Y-94234000D03*
X108712000Y-101981000D03*
X108712000Y-104267000D03*
X108712000Y-112014000D03*
X108712000Y-129540000D03*
X108712000Y-106807000D03*
X127939800Y-117449600D03*
X129971800Y-119735600D03*
X128727200Y-121589800D03*
X127177800Y-121589800D03*
X127000000Y-123012200D03*
X131775200Y-116433600D03*
X165379400Y-115062000D03*
X168148000Y-119227600D03*
X177292000Y-122301000D03*
X177215800Y-117856000D03*
X178308000Y-116840000D03*
X167233600Y-106908600D03*
X174828200Y-101396800D03*
X176149000Y-100025200D03*
X177393600Y-106654600D03*
X123190000Y-106832400D03*
X130759200Y-101371400D03*
X132105400Y-99949000D03*
X133350000Y-106578400D03*
X111379000Y-132080000D03*
X113919000Y-132080000D03*
X116205000Y-132080000D03*
M02*
