%TF.GenerationSoftware,KiCad,Pcbnew,(5.1.6-0-10_14)*%
%TF.CreationDate,2021-11-24T09:42:12-06:00*%
%TF.ProjectId,EE514 Board (JLC),45453531-3420-4426-9f61-726420284a4c,rev?*%
%TF.SameCoordinates,Original*%
%TF.FileFunction,Copper,L3,Inr*%
%TF.FilePolarity,Positive*%
%FSLAX46Y46*%
G04 Gerber Fmt 4.6, Leading zero omitted, Abs format (unit mm)*
G04 Created by KiCad (PCBNEW (5.1.6-0-10_14)) date 2021-11-24 09:42:12*
%MOMM*%
%LPD*%
G01*
G04 APERTURE LIST*
%TA.AperFunction,ViaPad*%
%ADD10C,0.970000*%
%TD*%
%TA.AperFunction,ViaPad*%
%ADD11C,2.100000*%
%TD*%
%TA.AperFunction,ViaPad*%
%ADD12R,2.100000X2.100000*%
%TD*%
%TA.AperFunction,ViaPad*%
%ADD13C,0.800000*%
%TD*%
%TA.AperFunction,Conductor*%
%ADD14C,0.254000*%
%TD*%
G04 APERTURE END LIST*
D10*
%TO.N,GND*%
%TO.C,J102*%
X112983000Y-84136000D03*
X112983000Y-75376000D03*
%TD*%
%TO.N,GND*%
%TO.C,J106*%
X170245000Y-127693000D03*
X179005000Y-127693000D03*
%TD*%
%TO.N,GND*%
%TO.C,J105*%
X135190000Y-127693000D03*
X126430000Y-127693000D03*
%TD*%
%TO.N,GND*%
%TO.C,J104*%
X192463000Y-75376000D03*
X192463000Y-84136000D03*
%TD*%
%TO.N,GND*%
%TO.C,J103*%
X112983000Y-117667000D03*
X112983000Y-126427000D03*
%TD*%
D11*
%TO.N,GND*%
%TO.C,J101*%
X110744000Y-102235000D03*
D12*
%TO.N,+5V*%
X110744000Y-99695000D03*
%TD*%
D13*
%TO.N,GND*%
X118745000Y-132080000D03*
X121412000Y-132080000D03*
X123952000Y-132080000D03*
X136271000Y-132080000D03*
X146304000Y-132080000D03*
X138811000Y-132080000D03*
X141478000Y-132080000D03*
X144018000Y-132080000D03*
X156337000Y-132080000D03*
X148844000Y-132080000D03*
X151511000Y-132080000D03*
X154051000Y-132080000D03*
X166370000Y-132080000D03*
X158877000Y-132080000D03*
X161544000Y-132080000D03*
X164084000Y-132080000D03*
X168910000Y-132080000D03*
X186436000Y-132080000D03*
X181610000Y-132080000D03*
X184150000Y-132080000D03*
X188976000Y-132080000D03*
X191643000Y-132080000D03*
X194183000Y-132080000D03*
X181610000Y-69596000D03*
X184150000Y-69596000D03*
X186436000Y-69596000D03*
X128778000Y-69596000D03*
X118745000Y-69596000D03*
X158877000Y-69596000D03*
X164084000Y-69596000D03*
X123952000Y-69596000D03*
X166370000Y-69596000D03*
X161544000Y-69596000D03*
X121412000Y-69596000D03*
X171577000Y-69596000D03*
X148844000Y-69596000D03*
X176403000Y-69596000D03*
X154051000Y-69596000D03*
X168910000Y-69596000D03*
X151511000Y-69596000D03*
X156337000Y-69596000D03*
X191643000Y-69596000D03*
X146304000Y-69596000D03*
X194183000Y-69596000D03*
X138811000Y-69596000D03*
X141478000Y-69596000D03*
X144018000Y-69596000D03*
X188976000Y-69596000D03*
X178943000Y-69596000D03*
X136271000Y-69596000D03*
X133985000Y-69596000D03*
X116205000Y-69596000D03*
X126238000Y-69596000D03*
X111379000Y-69596000D03*
X113919000Y-69596000D03*
X131445000Y-69596000D03*
X174117000Y-69596000D03*
X196850000Y-109474000D03*
X196850000Y-119507000D03*
X196850000Y-74168000D03*
X196850000Y-114300000D03*
X196850000Y-71882000D03*
X196850000Y-116840000D03*
X196850000Y-89408000D03*
X196850000Y-86741000D03*
X196850000Y-91948000D03*
X196850000Y-99441000D03*
X196850000Y-96774000D03*
X196850000Y-94234000D03*
X196850000Y-101981000D03*
X196850000Y-104267000D03*
X196850000Y-122047000D03*
X196850000Y-112014000D03*
X196850000Y-129540000D03*
X196850000Y-126873000D03*
X196850000Y-124333000D03*
X196850000Y-106807000D03*
X108712000Y-109474000D03*
X108712000Y-114300000D03*
X108712000Y-71882000D03*
X108712000Y-89408000D03*
X108712000Y-86741000D03*
X108712000Y-91948000D03*
X108712000Y-99441000D03*
X108712000Y-96774000D03*
X108712000Y-94234000D03*
X108712000Y-101981000D03*
X108712000Y-104267000D03*
X108712000Y-112014000D03*
X108712000Y-129540000D03*
X108712000Y-106807000D03*
X127939800Y-117449600D03*
X129971800Y-119735600D03*
X128727200Y-121589800D03*
X127177800Y-121589800D03*
X127000000Y-123012200D03*
X131775200Y-116433600D03*
X165379400Y-115062000D03*
X168148000Y-119227600D03*
X177292000Y-122301000D03*
X177215800Y-117856000D03*
X178308000Y-116840000D03*
X167233600Y-106908600D03*
X174828200Y-101396800D03*
X176149000Y-100025200D03*
X177393600Y-106654600D03*
X123190000Y-106832400D03*
X130759200Y-101371400D03*
X132105400Y-99949000D03*
X133350000Y-106578400D03*
X111379000Y-132080000D03*
X113919000Y-132080000D03*
X116205000Y-132080000D03*
%TD*%
D14*
%TO.N,GND*%
G36*
X196297216Y-68272584D02*
G01*
X196742793Y-68407112D01*
X197153746Y-68625620D01*
X197514434Y-68919788D01*
X197811119Y-69278419D01*
X198032491Y-69687838D01*
X198170126Y-70132465D01*
X198222000Y-70626011D01*
X198222001Y-131031711D01*
X198173416Y-131527216D01*
X198038890Y-131972790D01*
X197820382Y-132383745D01*
X197526209Y-132744436D01*
X197167581Y-133041119D01*
X196758162Y-133262491D01*
X196313535Y-133400126D01*
X195819990Y-133452000D01*
X109760279Y-133452000D01*
X109264784Y-133403416D01*
X108819210Y-133268890D01*
X108408255Y-133050382D01*
X108047564Y-132756209D01*
X107750881Y-132397581D01*
X107529509Y-131988162D01*
X107391874Y-131543535D01*
X107340000Y-131049990D01*
X107340000Y-98645000D01*
X109055928Y-98645000D01*
X109055928Y-100745000D01*
X109068188Y-100869482D01*
X109104498Y-100989180D01*
X109163463Y-101099494D01*
X109242815Y-101196185D01*
X109339506Y-101275537D01*
X109449820Y-101334502D01*
X109569518Y-101370812D01*
X109694000Y-101383072D01*
X111794000Y-101383072D01*
X111918482Y-101370812D01*
X112038180Y-101334502D01*
X112148494Y-101275537D01*
X112245185Y-101196185D01*
X112324537Y-101099494D01*
X112383502Y-100989180D01*
X112419812Y-100869482D01*
X112432072Y-100745000D01*
X112432072Y-98645000D01*
X112419812Y-98520518D01*
X112383502Y-98400820D01*
X112324537Y-98290506D01*
X112245185Y-98193815D01*
X112148494Y-98114463D01*
X112038180Y-98055498D01*
X111918482Y-98019188D01*
X111794000Y-98006928D01*
X109694000Y-98006928D01*
X109569518Y-98019188D01*
X109449820Y-98055498D01*
X109339506Y-98114463D01*
X109242815Y-98193815D01*
X109163463Y-98290506D01*
X109104498Y-98400820D01*
X109068188Y-98520518D01*
X109055928Y-98645000D01*
X107340000Y-98645000D01*
X107340000Y-70644279D01*
X107388584Y-70148784D01*
X107523112Y-69703207D01*
X107741620Y-69292254D01*
X108035788Y-68931566D01*
X108394419Y-68634881D01*
X108803838Y-68413509D01*
X109248465Y-68275874D01*
X109742011Y-68224000D01*
X195801721Y-68224000D01*
X196297216Y-68272584D01*
G37*
X196297216Y-68272584D02*
X196742793Y-68407112D01*
X197153746Y-68625620D01*
X197514434Y-68919788D01*
X197811119Y-69278419D01*
X198032491Y-69687838D01*
X198170126Y-70132465D01*
X198222000Y-70626011D01*
X198222001Y-131031711D01*
X198173416Y-131527216D01*
X198038890Y-131972790D01*
X197820382Y-132383745D01*
X197526209Y-132744436D01*
X197167581Y-133041119D01*
X196758162Y-133262491D01*
X196313535Y-133400126D01*
X195819990Y-133452000D01*
X109760279Y-133452000D01*
X109264784Y-133403416D01*
X108819210Y-133268890D01*
X108408255Y-133050382D01*
X108047564Y-132756209D01*
X107750881Y-132397581D01*
X107529509Y-131988162D01*
X107391874Y-131543535D01*
X107340000Y-131049990D01*
X107340000Y-98645000D01*
X109055928Y-98645000D01*
X109055928Y-100745000D01*
X109068188Y-100869482D01*
X109104498Y-100989180D01*
X109163463Y-101099494D01*
X109242815Y-101196185D01*
X109339506Y-101275537D01*
X109449820Y-101334502D01*
X109569518Y-101370812D01*
X109694000Y-101383072D01*
X111794000Y-101383072D01*
X111918482Y-101370812D01*
X112038180Y-101334502D01*
X112148494Y-101275537D01*
X112245185Y-101196185D01*
X112324537Y-101099494D01*
X112383502Y-100989180D01*
X112419812Y-100869482D01*
X112432072Y-100745000D01*
X112432072Y-98645000D01*
X112419812Y-98520518D01*
X112383502Y-98400820D01*
X112324537Y-98290506D01*
X112245185Y-98193815D01*
X112148494Y-98114463D01*
X112038180Y-98055498D01*
X111918482Y-98019188D01*
X111794000Y-98006928D01*
X109694000Y-98006928D01*
X109569518Y-98019188D01*
X109449820Y-98055498D01*
X109339506Y-98114463D01*
X109242815Y-98193815D01*
X109163463Y-98290506D01*
X109104498Y-98400820D01*
X109068188Y-98520518D01*
X109055928Y-98645000D01*
X107340000Y-98645000D01*
X107340000Y-70644279D01*
X107388584Y-70148784D01*
X107523112Y-69703207D01*
X107741620Y-69292254D01*
X108035788Y-68931566D01*
X108394419Y-68634881D01*
X108803838Y-68413509D01*
X109248465Y-68275874D01*
X109742011Y-68224000D01*
X195801721Y-68224000D01*
X196297216Y-68272584D01*
%TD*%
M02*
