M48
; DRILL file {KiCad (5.1.6-0-10_14)} date Wednesday, November 24, 2021 at 09:42:13 AM
; FORMAT={-:-/ absolute / inch / decimal}
; #@! TF.CreationDate,2021-11-24T09:42:13-06:00
; #@! TF.GenerationSoftware,Kicad,Pcbnew,(5.1.6-0-10_14)
; #@! TF.FileFunction,Plated,1,4,PTH
FMAT,2
INCH
T1C0.0157
T2C0.0181
T3C0.0433
%
G90
G05
T1
X4.28Y-2.83
X4.28Y-3.415
X4.28Y-3.52
X4.28Y-3.62
X4.28Y-3.71
X4.28Y-3.81
X4.28Y-3.915
X4.28Y-4.015
X4.28Y-4.105
X4.28Y-4.205
X4.28Y-4.31
X4.28Y-4.41
X4.28Y-4.5
X4.28Y-5.1
X4.385Y-2.74
X4.385Y-5.2
X4.485Y-2.74
X4.485Y-5.2
X4.575Y-2.74
X4.575Y-5.2
X4.675Y-2.74
X4.675Y-5.2
X4.78Y-2.74
X4.78Y-5.2
X4.85Y-4.206
X4.88Y-2.74
X4.88Y-5.2
X4.97Y-2.74
X5.0Y-4.843
X5.007Y-4.787
X5.037Y-4.624
X5.068Y-4.787
X5.07Y-2.74
X5.117Y-4.714
X5.148Y-3.991
X5.175Y-2.74
X5.188Y-4.584
X5.201Y-3.935
X5.25Y-4.196
X5.275Y-2.74
X5.365Y-2.74
X5.365Y-5.2
X5.465Y-2.74
X5.465Y-5.2
X5.57Y-2.74
X5.57Y-5.2
X5.67Y-2.74
X5.67Y-5.2
X5.76Y-2.74
X5.76Y-5.2
X5.86Y-2.74
X5.86Y-5.2
X5.965Y-2.74
X5.965Y-5.2
X6.065Y-2.74
X6.065Y-5.2
X6.155Y-2.74
X6.155Y-5.2
X6.255Y-2.74
X6.255Y-5.2
X6.36Y-2.74
X6.36Y-5.2
X6.46Y-2.74
X6.46Y-5.2
X6.511Y-4.53
X6.55Y-2.74
X6.55Y-5.2
X6.584Y-4.209
X6.62Y-4.694
X6.65Y-2.74
X6.65Y-5.2
X6.755Y-2.74
X6.855Y-2.74
X6.883Y-3.992
X6.935Y-3.938
X6.945Y-2.74
X6.977Y-4.64
X6.98Y-4.815
X6.984Y-4.199
X7.02Y-4.6
X7.045Y-2.74
X7.15Y-2.74
X7.15Y-5.2
X7.25Y-2.74
X7.25Y-5.2
X7.34Y-2.74
X7.34Y-5.2
X7.44Y-2.74
X7.44Y-5.2
X7.545Y-2.74
X7.545Y-5.2
X7.645Y-2.74
X7.645Y-5.2
X7.75Y-2.83
X7.75Y-2.92
X7.75Y-3.415
X7.75Y-3.52
X7.75Y-3.62
X7.75Y-3.71
X7.75Y-3.81
X7.75Y-3.915
X7.75Y-4.015
X7.75Y-4.105
X7.75Y-4.205
X7.75Y-4.31
X7.75Y-4.41
X7.75Y-4.5
X7.75Y-4.6
X7.75Y-4.705
X7.75Y-4.805
X7.75Y-4.895
X7.75Y-4.995
X7.75Y-5.1
T2
X7.5773Y-2.9676
X7.5773Y-3.3124
X4.4481Y-4.6326
X4.4481Y-4.9774
X4.4481Y-2.9676
X4.4481Y-3.3124
X4.9776Y-5.0273
X5.3224Y-5.0273
X6.7026Y-5.0273
X7.0474Y-5.0273
T3
X4.36Y-3.925
X4.36Y-4.025
T0
M30
