%TF.GenerationSoftware,KiCad,Pcbnew,(5.1.6-0-10_14)*%
%TF.CreationDate,2021-11-23T23:31:24-06:00*%
%TF.ProjectId,EE514 Board (JLC),45453531-3420-4426-9f61-726420284a4c,rev?*%
%TF.SameCoordinates,Original*%
%TF.FileFunction,Copper,L4,Bot*%
%TF.FilePolarity,Positive*%
%FSLAX46Y46*%
G04 Gerber Fmt 4.6, Leading zero omitted, Abs format (unit mm)*
G04 Created by KiCad (PCBNEW (5.1.6-0-10_14)) date 2021-11-23 23:31:24*
%MOMM*%
%LPD*%
G01*
G04 APERTURE LIST*
%TA.AperFunction,Conductor*%
%ADD10R,0.950000X0.460000*%
%TD*%
%TA.AperFunction,ViaPad*%
%ADD11C,0.970000*%
%TD*%
%TA.AperFunction,SMDPad,CuDef*%
%ADD12R,5.080000X2.420000*%
%TD*%
%TA.AperFunction,SMDPad,CuDef*%
%ADD13R,2.420000X5.080000*%
%TD*%
%TA.AperFunction,Conductor*%
%ADD14R,0.460000X0.950000*%
%TD*%
%TA.AperFunction,ComponentPad*%
%ADD15C,2.100000*%
%TD*%
%TA.AperFunction,ComponentPad*%
%ADD16R,2.100000X2.100000*%
%TD*%
%TA.AperFunction,ViaPad*%
%ADD17C,0.800000*%
%TD*%
%TA.AperFunction,Conductor*%
%ADD18C,0.254000*%
%TD*%
G04 APERTURE END LIST*
D10*
%TO.N,GND*%
%TO.C,J102*%
X112533000Y-84136000D03*
X112533000Y-75376000D03*
D11*
X112983000Y-84136000D03*
X112983000Y-75376000D03*
D12*
%TD*%
%TO.P,J102,2*%
%TO.N,GND*%
X109543000Y-84136000D03*
%TO.P,J102,2*%
%TO.N,GND*%
X109543000Y-75376000D03*
%TD*%
D13*
%TO.P,J106,2*%
%TO.N,GND*%
X170245000Y-131133000D03*
X179005000Y-131133000D03*
D11*
%TD*%
%TO.N,GND*%
%TO.C,J106*%
X170245000Y-127693000D03*
%TO.N,GND*%
%TO.C,J106*%
X179005000Y-127693000D03*
D14*
X170245000Y-128143000D03*
X179005000Y-128143000D03*
%TD*%
D13*
%TO.P,J105,2*%
%TO.N,GND*%
X126430000Y-131133000D03*
X135190000Y-131133000D03*
D11*
%TD*%
%TO.N,GND*%
%TO.C,J105*%
X126430000Y-127693000D03*
%TO.N,GND*%
%TO.C,J105*%
X135190000Y-127693000D03*
D14*
X126430000Y-128143000D03*
X135190000Y-128143000D03*
%TD*%
D10*
%TO.N,GND*%
%TO.C,J104*%
X192913000Y-75376000D03*
X192913000Y-84136000D03*
D11*
X192463000Y-75376000D03*
X192463000Y-84136000D03*
D12*
%TD*%
%TO.P,J104,2*%
%TO.N,GND*%
X195903000Y-75376000D03*
%TO.P,J104,2*%
%TO.N,GND*%
X195903000Y-84136000D03*
%TD*%
%TO.P,J103,2*%
%TO.N,GND*%
X109543000Y-117667000D03*
X109543000Y-126427000D03*
D11*
%TD*%
%TO.N,GND*%
%TO.C,J103*%
X112983000Y-117667000D03*
%TO.N,GND*%
%TO.C,J103*%
X112983000Y-126427000D03*
D10*
X112533000Y-117667000D03*
X112533000Y-126427000D03*
%TD*%
D15*
%TO.P,J101,2*%
%TO.N,GND*%
X110744000Y-102235000D03*
D16*
%TO.P,J101,1*%
%TO.N,+5V*%
X110744000Y-99695000D03*
%TD*%
D17*
%TO.N,GND*%
X127787400Y-117449600D03*
X129971800Y-119913400D03*
X128574800Y-121589800D03*
X127330200Y-121589800D03*
X126822200Y-123012200D03*
X131775200Y-116586000D03*
X165557200Y-115062000D03*
X168325800Y-119227600D03*
X177114200Y-122301000D03*
X177114200Y-117856000D03*
X178308000Y-117017800D03*
X167233600Y-106908600D03*
X174828200Y-101396800D03*
X176149000Y-100025200D03*
X177393600Y-106654600D03*
X123190000Y-106832400D03*
X130759200Y-101371400D03*
X132105400Y-99949000D03*
X133350000Y-106578400D03*
%TD*%
D18*
%TO.N,GND*%
G36*
X196297216Y-68272584D02*
G01*
X196742793Y-68407112D01*
X197153746Y-68625620D01*
X197514434Y-68919788D01*
X197811119Y-69278419D01*
X198032491Y-69687838D01*
X198170126Y-70132465D01*
X198222000Y-70626011D01*
X198222001Y-131031711D01*
X198173416Y-131527216D01*
X198038890Y-131972790D01*
X197820382Y-132383745D01*
X197526209Y-132744436D01*
X197167581Y-133041119D01*
X196758162Y-133262491D01*
X196313535Y-133400126D01*
X195819990Y-133452000D01*
X109760279Y-133452000D01*
X109264784Y-133403416D01*
X108819210Y-133268890D01*
X108408255Y-133050382D01*
X108047564Y-132756209D01*
X107750881Y-132397581D01*
X107529509Y-131988162D01*
X107391874Y-131543535D01*
X107340000Y-131049990D01*
X107340000Y-98645000D01*
X109055928Y-98645000D01*
X109055928Y-100745000D01*
X109068188Y-100869482D01*
X109104498Y-100989180D01*
X109163463Y-101099494D01*
X109242815Y-101196185D01*
X109339506Y-101275537D01*
X109449820Y-101334502D01*
X109569518Y-101370812D01*
X109694000Y-101383072D01*
X111794000Y-101383072D01*
X111918482Y-101370812D01*
X112038180Y-101334502D01*
X112148494Y-101275537D01*
X112245185Y-101196185D01*
X112324537Y-101099494D01*
X112383502Y-100989180D01*
X112419812Y-100869482D01*
X112432072Y-100745000D01*
X112432072Y-98645000D01*
X112419812Y-98520518D01*
X112383502Y-98400820D01*
X112324537Y-98290506D01*
X112245185Y-98193815D01*
X112148494Y-98114463D01*
X112038180Y-98055498D01*
X111918482Y-98019188D01*
X111794000Y-98006928D01*
X109694000Y-98006928D01*
X109569518Y-98019188D01*
X109449820Y-98055498D01*
X109339506Y-98114463D01*
X109242815Y-98193815D01*
X109163463Y-98290506D01*
X109104498Y-98400820D01*
X109068188Y-98520518D01*
X109055928Y-98645000D01*
X107340000Y-98645000D01*
X107340000Y-70644279D01*
X107388584Y-70148784D01*
X107523112Y-69703207D01*
X107741620Y-69292254D01*
X108035788Y-68931566D01*
X108394419Y-68634881D01*
X108803838Y-68413509D01*
X109248465Y-68275874D01*
X109742011Y-68224000D01*
X195801721Y-68224000D01*
X196297216Y-68272584D01*
G37*
X196297216Y-68272584D02*
X196742793Y-68407112D01*
X197153746Y-68625620D01*
X197514434Y-68919788D01*
X197811119Y-69278419D01*
X198032491Y-69687838D01*
X198170126Y-70132465D01*
X198222000Y-70626011D01*
X198222001Y-131031711D01*
X198173416Y-131527216D01*
X198038890Y-131972790D01*
X197820382Y-132383745D01*
X197526209Y-132744436D01*
X197167581Y-133041119D01*
X196758162Y-133262491D01*
X196313535Y-133400126D01*
X195819990Y-133452000D01*
X109760279Y-133452000D01*
X109264784Y-133403416D01*
X108819210Y-133268890D01*
X108408255Y-133050382D01*
X108047564Y-132756209D01*
X107750881Y-132397581D01*
X107529509Y-131988162D01*
X107391874Y-131543535D01*
X107340000Y-131049990D01*
X107340000Y-98645000D01*
X109055928Y-98645000D01*
X109055928Y-100745000D01*
X109068188Y-100869482D01*
X109104498Y-100989180D01*
X109163463Y-101099494D01*
X109242815Y-101196185D01*
X109339506Y-101275537D01*
X109449820Y-101334502D01*
X109569518Y-101370812D01*
X109694000Y-101383072D01*
X111794000Y-101383072D01*
X111918482Y-101370812D01*
X112038180Y-101334502D01*
X112148494Y-101275537D01*
X112245185Y-101196185D01*
X112324537Y-101099494D01*
X112383502Y-100989180D01*
X112419812Y-100869482D01*
X112432072Y-100745000D01*
X112432072Y-98645000D01*
X112419812Y-98520518D01*
X112383502Y-98400820D01*
X112324537Y-98290506D01*
X112245185Y-98193815D01*
X112148494Y-98114463D01*
X112038180Y-98055498D01*
X111918482Y-98019188D01*
X111794000Y-98006928D01*
X109694000Y-98006928D01*
X109569518Y-98019188D01*
X109449820Y-98055498D01*
X109339506Y-98114463D01*
X109242815Y-98193815D01*
X109163463Y-98290506D01*
X109104498Y-98400820D01*
X109068188Y-98520518D01*
X109055928Y-98645000D01*
X107340000Y-98645000D01*
X107340000Y-70644279D01*
X107388584Y-70148784D01*
X107523112Y-69703207D01*
X107741620Y-69292254D01*
X108035788Y-68931566D01*
X108394419Y-68634881D01*
X108803838Y-68413509D01*
X109248465Y-68275874D01*
X109742011Y-68224000D01*
X195801721Y-68224000D01*
X196297216Y-68272584D01*
%TD*%
M02*
