%TF.GenerationSoftware,KiCad,Pcbnew,(5.1.6-0-10_14)*%
%TF.CreationDate,2021-11-19T16:45:31-06:00*%
%TF.ProjectId,EE514 Board,45453531-3420-4426-9f61-72642e6b6963,rev?*%
%TF.SameCoordinates,Original*%
%TF.FileFunction,Copper,L1,Top*%
%TF.FilePolarity,Positive*%
%FSLAX46Y46*%
G04 Gerber Fmt 4.6, Leading zero omitted, Abs format (unit mm)*
G04 Created by KiCad (PCBNEW (5.1.6-0-10_14)) date 2021-11-19 16:45:31*
%MOMM*%
%LPD*%
G01*
G04 APERTURE LIST*
%TA.AperFunction,EtchedComponent*%
%ADD10C,0.010000*%
%TD*%
%TA.AperFunction,SMDPad,CuDef*%
%ADD11C,0.100000*%
%TD*%
%TA.AperFunction,SMDPad,CuDef*%
%ADD12R,20.574000X2.428240*%
%TD*%
%TA.AperFunction,SMDPad,CuDef*%
%ADD13R,19.939000X2.829560*%
%TD*%
%TA.AperFunction,SMDPad,CuDef*%
%ADD14R,0.950000X0.975000*%
%TD*%
%TA.AperFunction,SMDPad,CuDef*%
%ADD15R,0.975000X0.950000*%
%TD*%
%TA.AperFunction,SMDPad,CuDef*%
%ADD16R,0.800000X0.900000*%
%TD*%
%TA.AperFunction,SMDPad,CuDef*%
%ADD17R,0.800000X0.600000*%
%TD*%
%TA.AperFunction,Conductor*%
%ADD18R,0.950000X0.460000*%
%TD*%
%TA.AperFunction,ViaPad*%
%ADD19C,0.970000*%
%TD*%
%TA.AperFunction,SMDPad,CuDef*%
%ADD20R,5.080000X2.420000*%
%TD*%
%TA.AperFunction,SMDPad,CuDef*%
%ADD21R,5.080000X2.290000*%
%TD*%
%TA.AperFunction,ComponentPad*%
%ADD22C,2.100000*%
%TD*%
%TA.AperFunction,ComponentPad*%
%ADD23R,2.100000X2.100000*%
%TD*%
%TA.AperFunction,ViaPad*%
%ADD24C,0.800000*%
%TD*%
%TA.AperFunction,Conductor*%
%ADD25C,0.250000*%
%TD*%
%TA.AperFunction,Conductor*%
%ADD26C,0.304800*%
%TD*%
%TA.AperFunction,Conductor*%
%ADD27C,2.870200*%
%TD*%
%TA.AperFunction,Conductor*%
%ADD28C,0.355600*%
%TD*%
%TA.AperFunction,Conductor*%
%ADD29C,0.254000*%
%TD*%
G04 APERTURE END LIST*
D10*
%TO.C,G\u002A\u002A\u002A*%
G36*
X109760401Y-90495332D02*
G01*
X110011569Y-90582463D01*
X110268446Y-90720445D01*
X110528925Y-90908331D01*
X110790894Y-91145173D01*
X111052245Y-91430023D01*
X111068993Y-91449977D01*
X111157541Y-91557027D01*
X111231290Y-91648102D01*
X111283508Y-91714743D01*
X111307464Y-91748492D01*
X111308273Y-91750611D01*
X111285459Y-91770427D01*
X111229562Y-91799752D01*
X111222130Y-91803095D01*
X111153620Y-91850375D01*
X111083135Y-91924229D01*
X111059852Y-91956090D01*
X111022943Y-92017462D01*
X111000326Y-92076112D01*
X110988586Y-92148723D01*
X110984303Y-92251980D01*
X110983889Y-92326939D01*
X110985722Y-92455427D01*
X110994284Y-92548584D01*
X111014170Y-92627479D01*
X111049972Y-92713187D01*
X111082647Y-92779923D01*
X111213754Y-92992529D01*
X111371970Y-93166773D01*
X111551162Y-93298251D01*
X111745194Y-93382558D01*
X111947931Y-93415289D01*
X111967918Y-93415556D01*
X112151109Y-93415556D01*
X112185771Y-93577834D01*
X112210415Y-93745475D01*
X112220862Y-93936899D01*
X112217419Y-94132090D01*
X112200391Y-94311035D01*
X112172532Y-94445667D01*
X112069511Y-94695438D01*
X111913969Y-94929169D01*
X111708151Y-95144486D01*
X111454301Y-95339013D01*
X111176608Y-95499424D01*
X111088095Y-95539039D01*
X110974261Y-95583138D01*
X110850490Y-95626580D01*
X110732164Y-95664222D01*
X110634667Y-95690922D01*
X110573383Y-95701538D01*
X110571890Y-95701556D01*
X110561371Y-95675702D01*
X110550279Y-95607479D01*
X110540810Y-95510895D01*
X110539809Y-95496945D01*
X110497618Y-95236182D01*
X110405880Y-94987974D01*
X110274463Y-94762079D01*
X110084809Y-94528367D01*
X109865033Y-94341069D01*
X109657445Y-94218539D01*
X109423175Y-94124499D01*
X109206130Y-94081340D01*
X109008302Y-94088895D01*
X108831689Y-94146999D01*
X108678285Y-94255483D01*
X108631490Y-94304134D01*
X108542213Y-94405815D01*
X108511334Y-94326963D01*
X108469337Y-94200552D01*
X108424248Y-94032170D01*
X108379097Y-93835957D01*
X108336915Y-93626053D01*
X108300733Y-93416599D01*
X108273582Y-93221734D01*
X108272550Y-93212924D01*
X108253057Y-92992880D01*
X108246890Y-92859073D01*
X108684398Y-92859073D01*
X108700868Y-93040582D01*
X108748052Y-93194072D01*
X108820721Y-93314736D01*
X108913650Y-93397767D01*
X109021611Y-93438360D01*
X109139379Y-93431706D01*
X109251104Y-93380249D01*
X109360274Y-93276117D01*
X109440322Y-93135194D01*
X109488565Y-92970558D01*
X109502323Y-92795288D01*
X109478913Y-92622460D01*
X109432386Y-92496274D01*
X109346323Y-92368047D01*
X109245862Y-92289113D01*
X109137491Y-92256324D01*
X109027697Y-92266533D01*
X108922967Y-92316595D01*
X108829790Y-92403362D01*
X108754651Y-92523688D01*
X108704040Y-92674426D01*
X108684442Y-92852430D01*
X108684398Y-92859073D01*
X108246890Y-92859073D01*
X108241917Y-92751193D01*
X108238891Y-92501018D01*
X108243741Y-92255511D01*
X108256226Y-92027825D01*
X108276108Y-91831118D01*
X108300227Y-91691001D01*
X108392451Y-91370879D01*
X108513077Y-91096609D01*
X108536293Y-91061020D01*
X109844232Y-91061020D01*
X109850141Y-91150201D01*
X109901827Y-91248012D01*
X109936845Y-91287600D01*
X110027888Y-91353864D01*
X110124956Y-91385061D01*
X110212306Y-91378154D01*
X110258578Y-91349689D01*
X110283775Y-91293178D01*
X110291382Y-91208231D01*
X110280958Y-91120188D01*
X110263386Y-91071548D01*
X110218010Y-91020125D01*
X110151898Y-90974626D01*
X110037932Y-90937271D01*
X109944450Y-90945353D01*
X109877776Y-90989670D01*
X109844232Y-91061020D01*
X108536293Y-91061020D01*
X108661362Y-90869305D01*
X108836564Y-90690081D01*
X109037940Y-90560051D01*
X109062259Y-90548523D01*
X109283637Y-90477414D01*
X109517054Y-90460000D01*
X109760401Y-90495332D01*
G37*
X109760401Y-90495332D02*
X110011569Y-90582463D01*
X110268446Y-90720445D01*
X110528925Y-90908331D01*
X110790894Y-91145173D01*
X111052245Y-91430023D01*
X111068993Y-91449977D01*
X111157541Y-91557027D01*
X111231290Y-91648102D01*
X111283508Y-91714743D01*
X111307464Y-91748492D01*
X111308273Y-91750611D01*
X111285459Y-91770427D01*
X111229562Y-91799752D01*
X111222130Y-91803095D01*
X111153620Y-91850375D01*
X111083135Y-91924229D01*
X111059852Y-91956090D01*
X111022943Y-92017462D01*
X111000326Y-92076112D01*
X110988586Y-92148723D01*
X110984303Y-92251980D01*
X110983889Y-92326939D01*
X110985722Y-92455427D01*
X110994284Y-92548584D01*
X111014170Y-92627479D01*
X111049972Y-92713187D01*
X111082647Y-92779923D01*
X111213754Y-92992529D01*
X111371970Y-93166773D01*
X111551162Y-93298251D01*
X111745194Y-93382558D01*
X111947931Y-93415289D01*
X111967918Y-93415556D01*
X112151109Y-93415556D01*
X112185771Y-93577834D01*
X112210415Y-93745475D01*
X112220862Y-93936899D01*
X112217419Y-94132090D01*
X112200391Y-94311035D01*
X112172532Y-94445667D01*
X112069511Y-94695438D01*
X111913969Y-94929169D01*
X111708151Y-95144486D01*
X111454301Y-95339013D01*
X111176608Y-95499424D01*
X111088095Y-95539039D01*
X110974261Y-95583138D01*
X110850490Y-95626580D01*
X110732164Y-95664222D01*
X110634667Y-95690922D01*
X110573383Y-95701538D01*
X110571890Y-95701556D01*
X110561371Y-95675702D01*
X110550279Y-95607479D01*
X110540810Y-95510895D01*
X110539809Y-95496945D01*
X110497618Y-95236182D01*
X110405880Y-94987974D01*
X110274463Y-94762079D01*
X110084809Y-94528367D01*
X109865033Y-94341069D01*
X109657445Y-94218539D01*
X109423175Y-94124499D01*
X109206130Y-94081340D01*
X109008302Y-94088895D01*
X108831689Y-94146999D01*
X108678285Y-94255483D01*
X108631490Y-94304134D01*
X108542213Y-94405815D01*
X108511334Y-94326963D01*
X108469337Y-94200552D01*
X108424248Y-94032170D01*
X108379097Y-93835957D01*
X108336915Y-93626053D01*
X108300733Y-93416599D01*
X108273582Y-93221734D01*
X108272550Y-93212924D01*
X108253057Y-92992880D01*
X108246890Y-92859073D01*
X108684398Y-92859073D01*
X108700868Y-93040582D01*
X108748052Y-93194072D01*
X108820721Y-93314736D01*
X108913650Y-93397767D01*
X109021611Y-93438360D01*
X109139379Y-93431706D01*
X109251104Y-93380249D01*
X109360274Y-93276117D01*
X109440322Y-93135194D01*
X109488565Y-92970558D01*
X109502323Y-92795288D01*
X109478913Y-92622460D01*
X109432386Y-92496274D01*
X109346323Y-92368047D01*
X109245862Y-92289113D01*
X109137491Y-92256324D01*
X109027697Y-92266533D01*
X108922967Y-92316595D01*
X108829790Y-92403362D01*
X108754651Y-92523688D01*
X108704040Y-92674426D01*
X108684442Y-92852430D01*
X108684398Y-92859073D01*
X108246890Y-92859073D01*
X108241917Y-92751193D01*
X108238891Y-92501018D01*
X108243741Y-92255511D01*
X108256226Y-92027825D01*
X108276108Y-91831118D01*
X108300227Y-91691001D01*
X108392451Y-91370879D01*
X108513077Y-91096609D01*
X108536293Y-91061020D01*
X109844232Y-91061020D01*
X109850141Y-91150201D01*
X109901827Y-91248012D01*
X109936845Y-91287600D01*
X110027888Y-91353864D01*
X110124956Y-91385061D01*
X110212306Y-91378154D01*
X110258578Y-91349689D01*
X110283775Y-91293178D01*
X110291382Y-91208231D01*
X110280958Y-91120188D01*
X110263386Y-91071548D01*
X110218010Y-91020125D01*
X110151898Y-90974626D01*
X110037932Y-90937271D01*
X109944450Y-90945353D01*
X109877776Y-90989670D01*
X109844232Y-91061020D01*
X108536293Y-91061020D01*
X108661362Y-90869305D01*
X108836564Y-90690081D01*
X109037940Y-90560051D01*
X109062259Y-90548523D01*
X109283637Y-90477414D01*
X109517054Y-90460000D01*
X109760401Y-90495332D01*
G36*
X108370768Y-94410008D02*
G01*
X108398313Y-94475733D01*
X108436035Y-94566307D01*
X108440065Y-94576009D01*
X108587115Y-94877542D01*
X108761532Y-95143540D01*
X108958813Y-95368636D01*
X109174455Y-95547462D01*
X109335309Y-95642935D01*
X109495528Y-95716200D01*
X109644468Y-95766629D01*
X109797907Y-95797112D01*
X109971625Y-95810540D01*
X110181398Y-95809804D01*
X110236000Y-95807951D01*
X110403206Y-95799497D01*
X110533895Y-95786575D01*
X110647981Y-95765867D01*
X110765381Y-95734054D01*
X110856889Y-95704512D01*
X111190964Y-95566533D01*
X111491383Y-95386359D01*
X111767709Y-95158100D01*
X111808888Y-95118145D01*
X111909403Y-95020746D01*
X111973020Y-94964780D01*
X112000171Y-94950851D01*
X111991287Y-94979565D01*
X111946800Y-95051525D01*
X111867141Y-95167337D01*
X111855633Y-95183652D01*
X111676820Y-95388448D01*
X111451229Y-95564514D01*
X111181451Y-95710478D01*
X110870078Y-95824968D01*
X110519704Y-95906611D01*
X110475889Y-95914018D01*
X110353756Y-95928237D01*
X110190176Y-95939345D01*
X110000073Y-95947071D01*
X109798372Y-95951141D01*
X109600000Y-95951285D01*
X109419880Y-95947231D01*
X109272939Y-95938706D01*
X109248222Y-95936377D01*
X109067573Y-95915385D01*
X108864248Y-95887746D01*
X108652384Y-95855752D01*
X108446118Y-95821693D01*
X108259587Y-95787860D01*
X108106928Y-95756544D01*
X108040168Y-95740616D01*
X107783389Y-95660317D01*
X107575637Y-95565741D01*
X107417979Y-95458433D01*
X107311482Y-95339938D01*
X107257213Y-95211801D01*
X107256239Y-95075566D01*
X107309626Y-94932778D01*
X107396923Y-94809300D01*
X107532379Y-94688396D01*
X107718859Y-94580699D01*
X107952015Y-94488475D01*
X108092245Y-94446854D01*
X108204983Y-94417390D01*
X108294373Y-94395368D01*
X108348503Y-94383648D01*
X108359118Y-94382780D01*
X108370768Y-94410008D01*
G37*
X108370768Y-94410008D02*
X108398313Y-94475733D01*
X108436035Y-94566307D01*
X108440065Y-94576009D01*
X108587115Y-94877542D01*
X108761532Y-95143540D01*
X108958813Y-95368636D01*
X109174455Y-95547462D01*
X109335309Y-95642935D01*
X109495528Y-95716200D01*
X109644468Y-95766629D01*
X109797907Y-95797112D01*
X109971625Y-95810540D01*
X110181398Y-95809804D01*
X110236000Y-95807951D01*
X110403206Y-95799497D01*
X110533895Y-95786575D01*
X110647981Y-95765867D01*
X110765381Y-95734054D01*
X110856889Y-95704512D01*
X111190964Y-95566533D01*
X111491383Y-95386359D01*
X111767709Y-95158100D01*
X111808888Y-95118145D01*
X111909403Y-95020746D01*
X111973020Y-94964780D01*
X112000171Y-94950851D01*
X111991287Y-94979565D01*
X111946800Y-95051525D01*
X111867141Y-95167337D01*
X111855633Y-95183652D01*
X111676820Y-95388448D01*
X111451229Y-95564514D01*
X111181451Y-95710478D01*
X110870078Y-95824968D01*
X110519704Y-95906611D01*
X110475889Y-95914018D01*
X110353756Y-95928237D01*
X110190176Y-95939345D01*
X110000073Y-95947071D01*
X109798372Y-95951141D01*
X109600000Y-95951285D01*
X109419880Y-95947231D01*
X109272939Y-95938706D01*
X109248222Y-95936377D01*
X109067573Y-95915385D01*
X108864248Y-95887746D01*
X108652384Y-95855752D01*
X108446118Y-95821693D01*
X108259587Y-95787860D01*
X108106928Y-95756544D01*
X108040168Y-95740616D01*
X107783389Y-95660317D01*
X107575637Y-95565741D01*
X107417979Y-95458433D01*
X107311482Y-95339938D01*
X107257213Y-95211801D01*
X107256239Y-95075566D01*
X107309626Y-94932778D01*
X107396923Y-94809300D01*
X107532379Y-94688396D01*
X107718859Y-94580699D01*
X107952015Y-94488475D01*
X108092245Y-94446854D01*
X108204983Y-94417390D01*
X108294373Y-94395368D01*
X108348503Y-94383648D01*
X108359118Y-94382780D01*
X108370768Y-94410008D01*
%TD*%
%TA.AperFunction,SMDPad,CuDef*%
D11*
%TO.P,C303,2*%
%TO.N,GND*%
G36*
X170803570Y-93014800D02*
G01*
X170371770Y-93014800D01*
X170371770Y-95707200D01*
X170219370Y-95707200D01*
X170219370Y-93014800D01*
X169787570Y-93014800D01*
X169787570Y-95707200D01*
X169635170Y-95707200D01*
X169635170Y-93014800D01*
X169203370Y-93014800D01*
X169203370Y-95707200D01*
X169050970Y-95707200D01*
X169050970Y-93014800D01*
X168619170Y-93014800D01*
X168619170Y-95707200D01*
X168466770Y-95707200D01*
X168466770Y-93014800D01*
X168174670Y-93014800D01*
X168174670Y-92252800D01*
X170955970Y-92252800D01*
X170955970Y-95707200D01*
X170803570Y-95707200D01*
X170803570Y-93014800D01*
G37*
%TD.AperFunction*%
%TA.AperFunction,SMDPad,CuDef*%
%TO.P,C303,1*%
%TO.N,Net-(C303-Pad1)*%
G36*
X168327070Y-95846900D02*
G01*
X168758870Y-95846900D01*
X168758870Y-93154500D01*
X168911270Y-93154500D01*
X168911270Y-95846900D01*
X169343070Y-95846900D01*
X169343070Y-93154500D01*
X169495470Y-93154500D01*
X169495470Y-95846900D01*
X169927270Y-95846900D01*
X169927270Y-93154500D01*
X170079670Y-93154500D01*
X170079670Y-95846900D01*
X170511470Y-95846900D01*
X170511470Y-93154500D01*
X170663870Y-93154500D01*
X170663870Y-95846900D01*
X170955970Y-95846900D01*
X170955970Y-96608900D01*
X168174670Y-96608900D01*
X168174670Y-93154500D01*
X168327070Y-93154500D01*
X168327070Y-95846900D01*
G37*
%TD.AperFunction*%
%TD*%
%TA.AperFunction,SMDPad,CuDef*%
%TO.P,C302,2*%
%TO.N,GND*%
G36*
X165535610Y-102100380D02*
G01*
X165967410Y-102100380D01*
X165967410Y-99407980D01*
X166119810Y-99407980D01*
X166119810Y-102100380D01*
X166551610Y-102100380D01*
X166551610Y-99407980D01*
X166704010Y-99407980D01*
X166704010Y-102100380D01*
X167135810Y-102100380D01*
X167135810Y-99407980D01*
X167288210Y-99407980D01*
X167288210Y-102100380D01*
X167720010Y-102100380D01*
X167720010Y-99407980D01*
X167872410Y-99407980D01*
X167872410Y-102100380D01*
X168164510Y-102100380D01*
X168164510Y-102862380D01*
X165383210Y-102862380D01*
X165383210Y-99407980D01*
X165535610Y-99407980D01*
X165535610Y-102100380D01*
G37*
%TD.AperFunction*%
%TA.AperFunction,SMDPad,CuDef*%
%TO.P,C302,1*%
%TO.N,Net-(C302-Pad1)*%
G36*
X168012110Y-99268280D02*
G01*
X167580310Y-99268280D01*
X167580310Y-101960680D01*
X167427910Y-101960680D01*
X167427910Y-99268280D01*
X166996110Y-99268280D01*
X166996110Y-101960680D01*
X166843710Y-101960680D01*
X166843710Y-99268280D01*
X166411910Y-99268280D01*
X166411910Y-101960680D01*
X166259510Y-101960680D01*
X166259510Y-99268280D01*
X165827710Y-99268280D01*
X165827710Y-101960680D01*
X165675310Y-101960680D01*
X165675310Y-99268280D01*
X165383210Y-99268280D01*
X165383210Y-98506280D01*
X168164510Y-98506280D01*
X168164510Y-101960680D01*
X168012110Y-101960680D01*
X168012110Y-99268280D01*
G37*
%TD.AperFunction*%
%TD*%
D12*
%TO.P,FL101,2*%
%TO.N,/FILT_OUT*%
X162052000Y-66182240D03*
%TO.P,FL101,1*%
%TO.N,/FILT_IN*%
X121539000Y-77978000D03*
%TO.P,FL101,~*%
%TO.N,N/C*%
X121539000Y-74936350D03*
D13*
X141795500Y-74936350D03*
X141795500Y-69223890D03*
D12*
X162052000Y-69223890D03*
%TD*%
%TO.P,U501,8*%
%TO.N,Net-(U501-Pad8)*%
%TA.AperFunction,SMDPad,CuDef*%
G36*
G01*
X147363320Y-94598360D02*
X147063320Y-94598360D01*
G75*
G02*
X146913320Y-94448360I0J150000D01*
G01*
X146913320Y-92798360D01*
G75*
G02*
X147063320Y-92648360I150000J0D01*
G01*
X147363320Y-92648360D01*
G75*
G02*
X147513320Y-92798360I0J-150000D01*
G01*
X147513320Y-94448360D01*
G75*
G02*
X147363320Y-94598360I-150000J0D01*
G01*
G37*
%TD.AperFunction*%
%TO.P,U501,7*%
%TO.N,+5V*%
%TA.AperFunction,SMDPad,CuDef*%
G36*
G01*
X148633320Y-94598360D02*
X148333320Y-94598360D01*
G75*
G02*
X148183320Y-94448360I0J150000D01*
G01*
X148183320Y-92798360D01*
G75*
G02*
X148333320Y-92648360I150000J0D01*
G01*
X148633320Y-92648360D01*
G75*
G02*
X148783320Y-92798360I0J-150000D01*
G01*
X148783320Y-94448360D01*
G75*
G02*
X148633320Y-94598360I-150000J0D01*
G01*
G37*
%TD.AperFunction*%
%TO.P,U501,6*%
%TO.N,Net-(C502-Pad1)*%
%TA.AperFunction,SMDPad,CuDef*%
G36*
G01*
X149903320Y-94598360D02*
X149603320Y-94598360D01*
G75*
G02*
X149453320Y-94448360I0J150000D01*
G01*
X149453320Y-92798360D01*
G75*
G02*
X149603320Y-92648360I150000J0D01*
G01*
X149903320Y-92648360D01*
G75*
G02*
X150053320Y-92798360I0J-150000D01*
G01*
X150053320Y-94448360D01*
G75*
G02*
X149903320Y-94598360I-150000J0D01*
G01*
G37*
%TD.AperFunction*%
%TO.P,U501,5*%
%TO.N,Net-(U501-Pad5)*%
%TA.AperFunction,SMDPad,CuDef*%
G36*
G01*
X151173320Y-94598360D02*
X150873320Y-94598360D01*
G75*
G02*
X150723320Y-94448360I0J150000D01*
G01*
X150723320Y-92798360D01*
G75*
G02*
X150873320Y-92648360I150000J0D01*
G01*
X151173320Y-92648360D01*
G75*
G02*
X151323320Y-92798360I0J-150000D01*
G01*
X151323320Y-94448360D01*
G75*
G02*
X151173320Y-94598360I-150000J0D01*
G01*
G37*
%TD.AperFunction*%
%TO.P,U501,4*%
%TO.N,GND*%
%TA.AperFunction,SMDPad,CuDef*%
G36*
G01*
X151173320Y-99548360D02*
X150873320Y-99548360D01*
G75*
G02*
X150723320Y-99398360I0J150000D01*
G01*
X150723320Y-97748360D01*
G75*
G02*
X150873320Y-97598360I150000J0D01*
G01*
X151173320Y-97598360D01*
G75*
G02*
X151323320Y-97748360I0J-150000D01*
G01*
X151323320Y-99398360D01*
G75*
G02*
X151173320Y-99548360I-150000J0D01*
G01*
G37*
%TD.AperFunction*%
%TO.P,U501,3*%
%TO.N,Net-(R503-Pad1)*%
%TA.AperFunction,SMDPad,CuDef*%
G36*
G01*
X149903320Y-99548360D02*
X149603320Y-99548360D01*
G75*
G02*
X149453320Y-99398360I0J150000D01*
G01*
X149453320Y-97748360D01*
G75*
G02*
X149603320Y-97598360I150000J0D01*
G01*
X149903320Y-97598360D01*
G75*
G02*
X150053320Y-97748360I0J-150000D01*
G01*
X150053320Y-99398360D01*
G75*
G02*
X149903320Y-99548360I-150000J0D01*
G01*
G37*
%TD.AperFunction*%
%TO.P,U501,2*%
%TO.N,/Bias Regulator (Oscillator)/VREF_1.2V*%
%TA.AperFunction,SMDPad,CuDef*%
G36*
G01*
X148633320Y-99548360D02*
X148333320Y-99548360D01*
G75*
G02*
X148183320Y-99398360I0J150000D01*
G01*
X148183320Y-97748360D01*
G75*
G02*
X148333320Y-97598360I150000J0D01*
G01*
X148633320Y-97598360D01*
G75*
G02*
X148783320Y-97748360I0J-150000D01*
G01*
X148783320Y-99398360D01*
G75*
G02*
X148633320Y-99548360I-150000J0D01*
G01*
G37*
%TD.AperFunction*%
%TO.P,U501,1*%
%TO.N,Net-(U501-Pad1)*%
%TA.AperFunction,SMDPad,CuDef*%
G36*
G01*
X147363320Y-99548360D02*
X147063320Y-99548360D01*
G75*
G02*
X146913320Y-99398360I0J150000D01*
G01*
X146913320Y-97748360D01*
G75*
G02*
X147063320Y-97598360I150000J0D01*
G01*
X147363320Y-97598360D01*
G75*
G02*
X147513320Y-97748360I0J-150000D01*
G01*
X147513320Y-99398360D01*
G75*
G02*
X147363320Y-99548360I-150000J0D01*
G01*
G37*
%TD.AperFunction*%
%TD*%
%TO.P,U401,8*%
%TO.N,Net-(U401-Pad8)*%
%TA.AperFunction,SMDPad,CuDef*%
G36*
G01*
X115797200Y-103151800D02*
X115797200Y-103451800D01*
G75*
G02*
X115647200Y-103601800I-150000J0D01*
G01*
X113997200Y-103601800D01*
G75*
G02*
X113847200Y-103451800I0J150000D01*
G01*
X113847200Y-103151800D01*
G75*
G02*
X113997200Y-103001800I150000J0D01*
G01*
X115647200Y-103001800D01*
G75*
G02*
X115797200Y-103151800I0J-150000D01*
G01*
G37*
%TD.AperFunction*%
%TO.P,U401,7*%
%TO.N,+5V*%
%TA.AperFunction,SMDPad,CuDef*%
G36*
G01*
X115797200Y-101881800D02*
X115797200Y-102181800D01*
G75*
G02*
X115647200Y-102331800I-150000J0D01*
G01*
X113997200Y-102331800D01*
G75*
G02*
X113847200Y-102181800I0J150000D01*
G01*
X113847200Y-101881800D01*
G75*
G02*
X113997200Y-101731800I150000J0D01*
G01*
X115647200Y-101731800D01*
G75*
G02*
X115797200Y-101881800I0J-150000D01*
G01*
G37*
%TD.AperFunction*%
%TO.P,U401,6*%
%TO.N,Net-(C402-Pad1)*%
%TA.AperFunction,SMDPad,CuDef*%
G36*
G01*
X115797200Y-100611800D02*
X115797200Y-100911800D01*
G75*
G02*
X115647200Y-101061800I-150000J0D01*
G01*
X113997200Y-101061800D01*
G75*
G02*
X113847200Y-100911800I0J150000D01*
G01*
X113847200Y-100611800D01*
G75*
G02*
X113997200Y-100461800I150000J0D01*
G01*
X115647200Y-100461800D01*
G75*
G02*
X115797200Y-100611800I0J-150000D01*
G01*
G37*
%TD.AperFunction*%
%TO.P,U401,5*%
%TO.N,Net-(U401-Pad5)*%
%TA.AperFunction,SMDPad,CuDef*%
G36*
G01*
X115797200Y-99341800D02*
X115797200Y-99641800D01*
G75*
G02*
X115647200Y-99791800I-150000J0D01*
G01*
X113997200Y-99791800D01*
G75*
G02*
X113847200Y-99641800I0J150000D01*
G01*
X113847200Y-99341800D01*
G75*
G02*
X113997200Y-99191800I150000J0D01*
G01*
X115647200Y-99191800D01*
G75*
G02*
X115797200Y-99341800I0J-150000D01*
G01*
G37*
%TD.AperFunction*%
%TO.P,U401,4*%
%TO.N,GND*%
%TA.AperFunction,SMDPad,CuDef*%
G36*
G01*
X120747200Y-99341800D02*
X120747200Y-99641800D01*
G75*
G02*
X120597200Y-99791800I-150000J0D01*
G01*
X118947200Y-99791800D01*
G75*
G02*
X118797200Y-99641800I0J150000D01*
G01*
X118797200Y-99341800D01*
G75*
G02*
X118947200Y-99191800I150000J0D01*
G01*
X120597200Y-99191800D01*
G75*
G02*
X120747200Y-99341800I0J-150000D01*
G01*
G37*
%TD.AperFunction*%
%TO.P,U401,3*%
%TO.N,Net-(R403-Pad1)*%
%TA.AperFunction,SMDPad,CuDef*%
G36*
G01*
X120747200Y-100611800D02*
X120747200Y-100911800D01*
G75*
G02*
X120597200Y-101061800I-150000J0D01*
G01*
X118947200Y-101061800D01*
G75*
G02*
X118797200Y-100911800I0J150000D01*
G01*
X118797200Y-100611800D01*
G75*
G02*
X118947200Y-100461800I150000J0D01*
G01*
X120597200Y-100461800D01*
G75*
G02*
X120747200Y-100611800I0J-150000D01*
G01*
G37*
%TD.AperFunction*%
%TO.P,U401,2*%
%TO.N,/Bias Regulator (Amplifier)/VREF_1.2V*%
%TA.AperFunction,SMDPad,CuDef*%
G36*
G01*
X120747200Y-101881800D02*
X120747200Y-102181800D01*
G75*
G02*
X120597200Y-102331800I-150000J0D01*
G01*
X118947200Y-102331800D01*
G75*
G02*
X118797200Y-102181800I0J150000D01*
G01*
X118797200Y-101881800D01*
G75*
G02*
X118947200Y-101731800I150000J0D01*
G01*
X120597200Y-101731800D01*
G75*
G02*
X120747200Y-101881800I0J-150000D01*
G01*
G37*
%TD.AperFunction*%
%TO.P,U401,1*%
%TO.N,Net-(U401-Pad1)*%
%TA.AperFunction,SMDPad,CuDef*%
G36*
G01*
X120747200Y-103151800D02*
X120747200Y-103451800D01*
G75*
G02*
X120597200Y-103601800I-150000J0D01*
G01*
X118947200Y-103601800D01*
G75*
G02*
X118797200Y-103451800I0J150000D01*
G01*
X118797200Y-103151800D01*
G75*
G02*
X118947200Y-103001800I150000J0D01*
G01*
X120597200Y-103001800D01*
G75*
G02*
X120747200Y-103151800I0J-150000D01*
G01*
G37*
%TD.AperFunction*%
%TD*%
D14*
%TO.P,R507,1*%
%TO.N,Net-(C504-Pad1)*%
X153797000Y-101322500D03*
%TO.P,R507,2*%
%TO.N,/Bias Regulator (Oscillator)/V_BIAS_COLLECTOR*%
X153797000Y-103147500D03*
%TD*%
%TO.P,R506,1*%
%TO.N,+5V*%
X158115000Y-103147500D03*
%TO.P,R506,2*%
%TO.N,/Bias Regulator (Oscillator)/V_BIAS_COLLECTOR*%
X158115000Y-101322500D03*
%TD*%
D15*
%TO.P,R505,1*%
%TO.N,/Bias Regulator (Oscillator)/V_BIAS_BASE*%
X157757500Y-95250000D03*
%TO.P,R505,2*%
%TO.N,Net-(C502-Pad1)*%
X155932500Y-95250000D03*
%TD*%
%TO.P,R504,1*%
%TO.N,/Bias Regulator (Oscillator)/V_BIAS_COLLECTOR*%
X151681820Y-103210360D03*
%TO.P,R504,2*%
%TO.N,Net-(R503-Pad1)*%
X149856820Y-103210360D03*
%TD*%
%TO.P,R503,1*%
%TO.N,Net-(R503-Pad1)*%
X149856820Y-101178360D03*
%TO.P,R503,2*%
%TO.N,GND*%
X151681820Y-101178360D03*
%TD*%
D14*
%TO.P,R502,1*%
%TO.N,/Bias Regulator (Oscillator)/VREF_1.2V*%
X145689320Y-101281860D03*
%TO.P,R502,2*%
%TO.N,GND*%
X145689320Y-103106860D03*
%TD*%
%TO.P,R501,1*%
%TO.N,+5V*%
X143657320Y-103106860D03*
%TO.P,R501,2*%
%TO.N,/Bias Regulator (Oscillator)/VREF_1.2V*%
X143657320Y-101281860D03*
%TD*%
D15*
%TO.P,R407,1*%
%TO.N,Net-(C404-Pad1)*%
X126083700Y-110921800D03*
%TO.P,R407,2*%
%TO.N,/Amplifier/V_BIAS_COLLECTOR*%
X124258700Y-110921800D03*
%TD*%
D14*
%TO.P,R406,1*%
%TO.N,+5V*%
X122123200Y-108993300D03*
%TO.P,R406,2*%
%TO.N,/Amplifier/V_BIAS_COLLECTOR*%
X122123200Y-110818300D03*
%TD*%
%TO.P,R405,1*%
%TO.N,/Amplifier/V_BIAS_BASE*%
X116408200Y-109421300D03*
%TO.P,R405,2*%
%TO.N,Net-(C402-Pad1)*%
X116408200Y-107596300D03*
%TD*%
%TO.P,R404,1*%
%TO.N,/Amplifier/V_BIAS_COLLECTOR*%
X124460000Y-98782500D03*
%TO.P,R404,2*%
%TO.N,Net-(R403-Pad1)*%
X124460000Y-100607500D03*
%TD*%
%TO.P,R403,1*%
%TO.N,Net-(R403-Pad1)*%
X122428000Y-100607500D03*
%TO.P,R403,2*%
%TO.N,GND*%
X122428000Y-98782500D03*
%TD*%
D15*
%TO.P,R402,1*%
%TO.N,/Bias Regulator (Amplifier)/VREF_1.2V*%
X122353700Y-104775000D03*
%TO.P,R402,2*%
%TO.N,GND*%
X124178700Y-104775000D03*
%TD*%
%TO.P,R401,1*%
%TO.N,+5V*%
X124178700Y-106807000D03*
%TO.P,R401,2*%
%TO.N,/Bias Regulator (Amplifier)/VREF_1.2V*%
X122353700Y-106807000D03*
%TD*%
%TO.P,R301,1*%
%TO.N,Net-(L301-Pad1)*%
X164282120Y-95189040D03*
%TO.P,R301,2*%
%TO.N,/Bias Regulator (Oscillator)/V_BIAS_BASE*%
X162457120Y-95189040D03*
%TD*%
%TO.P,R201,1*%
%TO.N,Net-(C203-Pad1)*%
X119187600Y-115239800D03*
%TO.P,R201,2*%
%TO.N,Net-(C201-Pad1)*%
X117362600Y-115239800D03*
%TD*%
D16*
%TO.P,Q301,2*%
%TO.N,Net-(C302-Pad1)*%
X167165940Y-98058860D03*
D17*
%TO.P,Q301,1*%
%TO.N,Net-(L302-Pad1)*%
X167165940Y-96908860D03*
%TO.P,Q301,3*%
%TO.N,Net-(C305-Pad2)*%
X169185940Y-98208860D03*
%TO.P,Q301,4*%
%TO.N,Net-(C303-Pad1)*%
X169185940Y-96908860D03*
%TD*%
D16*
%TO.P,Q201,2*%
%TO.N,GND*%
X120071800Y-117505100D03*
D17*
%TO.P,Q201,1*%
%TO.N,Net-(C203-Pad1)*%
X120071800Y-116355100D03*
%TO.P,Q201,3*%
%TO.N,Net-(C205-Pad2)*%
X122091800Y-117655100D03*
%TO.P,Q201,4*%
%TO.N,GND*%
X122091800Y-116355100D03*
%TD*%
D14*
%TO.P,L305,1*%
%TO.N,Net-(C305-Pad2)*%
X170055540Y-99491160D03*
%TO.P,L305,2*%
%TO.N,/Bias Regulator (Oscillator)/V_BIAS_COLLECTOR*%
X170055540Y-101316160D03*
%TD*%
D15*
%TO.P,L304,1*%
%TO.N,Net-(C303-Pad1)*%
X170072680Y-97081340D03*
%TO.P,L304,2*%
%TO.N,GND*%
X171897680Y-97081340D03*
%TD*%
%TO.P,L303,1*%
%TO.N,Net-(C302-Pad1)*%
X166281740Y-98036380D03*
%TO.P,L303,2*%
%TO.N,GND*%
X164456740Y-98036380D03*
%TD*%
%TO.P,L302,1*%
%TO.N,Net-(L302-Pad1)*%
X167078660Y-96136460D03*
%TO.P,L302,2*%
%TO.N,Net-(L301-Pad1)*%
X165253660Y-96136460D03*
%TD*%
%TO.P,L301,1*%
%TO.N,Net-(L301-Pad1)*%
X164280860Y-96136460D03*
%TO.P,L301,2*%
%TO.N,/Bias Regulator (Oscillator)/V_BIAS_BASE*%
X162455860Y-96136460D03*
%TD*%
D14*
%TO.P,L203,1*%
%TO.N,Net-(C205-Pad2)*%
X123901200Y-117843300D03*
%TO.P,L203,2*%
%TO.N,/Amplifier/V_BIAS_COLLECTOR*%
X123901200Y-116018300D03*
%TD*%
%TO.P,L202,1*%
%TO.N,Net-(C201-Pad1)*%
X116408200Y-115248700D03*
%TO.P,L202,2*%
%TO.N,/Amplifier/V_BIAS_BASE*%
X116408200Y-113423700D03*
%TD*%
%TO.P,L201,1*%
%TO.N,/Amplifier/RF_IN*%
X116408200Y-119015500D03*
%TO.P,L201,2*%
%TO.N,GND*%
X116408200Y-120840500D03*
%TD*%
D18*
%TO.N,GND*%
%TO.C,J106*%
X182041800Y-94121200D03*
X182041800Y-102881200D03*
D19*
X181591800Y-94121200D03*
X181591800Y-102881200D03*
D20*
%TD*%
%TO.P,J106,2*%
%TO.N,GND*%
X185031800Y-94121200D03*
%TO.P,J106,2*%
%TO.N,GND*%
X185031800Y-102881200D03*
D21*
%TO.P,J106,1*%
%TO.N,/Oscillator/RF_OUT*%
X185031800Y-98501200D03*
%TD*%
D18*
%TO.N,GND*%
%TO.C,J105*%
X182041800Y-113730000D03*
X182041800Y-122490000D03*
D19*
X181591800Y-113730000D03*
X181591800Y-122490000D03*
D20*
%TD*%
%TO.P,J105,2*%
%TO.N,GND*%
X185031800Y-113730000D03*
%TO.P,J105,2*%
%TO.N,GND*%
X185031800Y-122490000D03*
D21*
%TO.P,J105,1*%
%TO.N,/Amplifier/RF_OUT*%
X185031800Y-118110000D03*
%TD*%
D18*
%TO.N,GND*%
%TO.C,J104*%
X182041800Y-61914000D03*
X182041800Y-70674000D03*
D19*
X181591800Y-61914000D03*
X181591800Y-70674000D03*
D20*
%TD*%
%TO.P,J104,2*%
%TO.N,GND*%
X185031800Y-61914000D03*
%TO.P,J104,2*%
%TO.N,GND*%
X185031800Y-70674000D03*
D21*
%TO.P,J104,1*%
%TO.N,/FILT_OUT*%
X185031800Y-66294000D03*
%TD*%
D18*
%TO.N,GND*%
%TO.C,J103*%
X100584000Y-122490000D03*
X100584000Y-113730000D03*
D19*
X101034000Y-122490000D03*
X101034000Y-113730000D03*
D20*
%TD*%
%TO.P,J103,2*%
%TO.N,GND*%
X97594000Y-122490000D03*
%TO.P,J103,2*%
%TO.N,GND*%
X97594000Y-113730000D03*
D21*
%TO.P,J103,1*%
%TO.N,/Amplifier/RF_IN*%
X97594000Y-118110000D03*
%TD*%
D18*
%TO.N,GND*%
%TO.C,J102*%
X100584000Y-82358000D03*
X100584000Y-73598000D03*
D19*
X101034000Y-82358000D03*
X101034000Y-73598000D03*
D20*
%TD*%
%TO.P,J102,2*%
%TO.N,GND*%
X97594000Y-82358000D03*
%TO.P,J102,2*%
%TO.N,GND*%
X97594000Y-73598000D03*
D21*
%TO.P,J102,1*%
%TO.N,/FILT_IN*%
X97594000Y-77978000D03*
%TD*%
D22*
%TO.P,J101,2*%
%TO.N,+5V*%
X98806000Y-98806000D03*
D23*
%TO.P,J101,1*%
%TO.N,GND*%
X98806000Y-96266000D03*
%TD*%
D14*
%TO.P,C504,2*%
%TO.N,+5V*%
X155956000Y-103147500D03*
%TO.P,C504,1*%
%TO.N,Net-(C504-Pad1)*%
X155956000Y-101322500D03*
%TD*%
D15*
%TO.P,C503,2*%
%TO.N,+5V*%
X148459820Y-91018360D03*
%TO.P,C503,1*%
%TO.N,GND*%
X150284820Y-91018360D03*
%TD*%
D14*
%TO.P,C502,2*%
%TO.N,/Bias Regulator (Oscillator)/VREF_1.2V*%
X153162000Y-97010860D03*
%TO.P,C502,1*%
%TO.N,Net-(C502-Pad1)*%
X153162000Y-95185860D03*
%TD*%
%TO.P,C501,2*%
%TO.N,/Bias Regulator (Oscillator)/VREF_1.2V*%
X147721320Y-101281860D03*
%TO.P,C501,1*%
%TO.N,GND*%
X147721320Y-103106860D03*
%TD*%
D15*
%TO.P,C404,2*%
%TO.N,+5V*%
X124258700Y-108889800D03*
%TO.P,C404,1*%
%TO.N,Net-(C404-Pad1)*%
X126083700Y-108889800D03*
%TD*%
D14*
%TO.P,C403,2*%
%TO.N,+5V*%
X112217200Y-101991800D03*
%TO.P,C403,1*%
%TO.N,GND*%
X112217200Y-100166800D03*
%TD*%
D15*
%TO.P,C402,2*%
%TO.N,/Bias Regulator (Amplifier)/VREF_1.2V*%
X118209700Y-105460800D03*
%TO.P,C402,1*%
%TO.N,Net-(C402-Pad1)*%
X116384700Y-105460800D03*
%TD*%
%TO.P,C401,2*%
%TO.N,/Bias Regulator (Amplifier)/VREF_1.2V*%
X122353700Y-102666800D03*
%TO.P,C401,1*%
%TO.N,GND*%
X124178700Y-102666800D03*
%TD*%
%TO.P,C305,2*%
%TO.N,Net-(C305-Pad2)*%
X170067600Y-98531680D03*
%TO.P,C305,1*%
%TO.N,/Oscillator/RF_OUT*%
X171892600Y-98531680D03*
%TD*%
%TO.P,C304,2*%
%TO.N,GND*%
X172840020Y-101325680D03*
%TO.P,C304,1*%
%TO.N,/Bias Regulator (Oscillator)/V_BIAS_COLLECTOR*%
X171015020Y-101325680D03*
%TD*%
D14*
%TO.P,C301,2*%
%TO.N,GND*%
X162445700Y-92402020D03*
%TO.P,C301,1*%
%TO.N,/Bias Regulator (Oscillator)/V_BIAS_BASE*%
X162445700Y-94227020D03*
%TD*%
%TO.P,C205,2*%
%TO.N,Net-(C205-Pad2)*%
X122961400Y-117845200D03*
%TO.P,C205,1*%
%TO.N,/Amplifier/RF_OUT*%
X122961400Y-119670200D03*
%TD*%
D15*
%TO.P,C204,2*%
%TO.N,GND*%
X126680600Y-116027200D03*
%TO.P,C204,1*%
%TO.N,/Amplifier/V_BIAS_COLLECTOR*%
X124855600Y-116027200D03*
%TD*%
%TO.P,C203,2*%
%TO.N,Net-(C201-Pad1)*%
X117362600Y-116179600D03*
%TO.P,C203,1*%
%TO.N,Net-(C203-Pad1)*%
X119187600Y-116179600D03*
%TD*%
%TO.P,C202,2*%
%TO.N,GND*%
X113630700Y-113411000D03*
%TO.P,C202,1*%
%TO.N,/Amplifier/V_BIAS_BASE*%
X115455700Y-113411000D03*
%TD*%
D14*
%TO.P,C201,2*%
%TO.N,/Amplifier/RF_IN*%
X116408200Y-118046500D03*
%TO.P,C201,1*%
%TO.N,Net-(C201-Pad1)*%
X116408200Y-116221500D03*
%TD*%
D24*
%TO.N,GND*%
X170535600Y-92049600D03*
X169570400Y-92049600D03*
X168554400Y-92049600D03*
X167767000Y-103073200D03*
X165785800Y-103073200D03*
X166801800Y-103073200D03*
X172618400Y-96951800D03*
X173532800Y-101320600D03*
X163753800Y-98044000D03*
X162458400Y-91694000D03*
X150977600Y-91008200D03*
X151028400Y-100101400D03*
X152069800Y-100101400D03*
X147726400Y-103809800D03*
X145694400Y-103809800D03*
X122428000Y-98094800D03*
X121361200Y-99491800D03*
X124180600Y-101828600D03*
X124180600Y-103936800D03*
X127533400Y-116027200D03*
X122097800Y-115849400D03*
X121437400Y-116357400D03*
X120675400Y-117525800D03*
X119456200Y-117525800D03*
X116408200Y-121539000D03*
X112928400Y-113436400D03*
X112217200Y-99314000D03*
%TD*%
D25*
%TO.N,/Amplifier/RF_IN*%
X116408200Y-118046500D02*
X116408200Y-119015500D01*
D26*
X113220500Y-118046500D02*
X113157000Y-118110000D01*
X116408200Y-118046500D02*
X113220500Y-118046500D01*
D27*
X97594000Y-118110000D02*
X113157000Y-118110000D01*
D25*
%TO.N,Net-(C201-Pad1)*%
X117353700Y-115248700D02*
X117362600Y-115239800D01*
X116408200Y-115248700D02*
X117353700Y-115248700D01*
X116450100Y-116179600D02*
X116408200Y-116221500D01*
X117362600Y-116179600D02*
X116450100Y-116179600D01*
X117362600Y-115239800D02*
X117362600Y-116179600D01*
D26*
%TO.N,GND*%
X151023320Y-100096320D02*
X151028400Y-100101400D01*
X151023320Y-98573360D02*
X151023320Y-100096320D01*
X151681820Y-100489380D02*
X152069800Y-100101400D01*
X151681820Y-101178360D02*
X151681820Y-100489380D01*
X151028400Y-100101400D02*
X152069800Y-100101400D01*
X147726400Y-103111940D02*
X147721320Y-103106860D01*
X147726400Y-103809800D02*
X147726400Y-103111940D01*
X145694400Y-103111940D02*
X145689320Y-103106860D01*
X145694400Y-103809800D02*
X145694400Y-103111940D01*
X173527720Y-101325680D02*
X173532800Y-101320600D01*
X172840020Y-101325680D02*
X173527720Y-101325680D01*
X172488860Y-97081340D02*
X172618400Y-96951800D01*
X171897680Y-97081340D02*
X172488860Y-97081340D01*
X162445700Y-91706700D02*
X162458400Y-91694000D01*
X162445700Y-92402020D02*
X162445700Y-91706700D01*
X119772200Y-99491800D02*
X121361200Y-99491800D01*
X122428000Y-98094800D02*
X122428000Y-98782500D01*
X124180600Y-102664900D02*
X124178700Y-102666800D01*
X124180600Y-101828600D02*
X124180600Y-102664900D01*
X124178700Y-103938700D02*
X124180600Y-103936800D01*
X124178700Y-104775000D02*
X124178700Y-103938700D01*
X127533400Y-116027200D02*
X126680600Y-116027200D01*
X122091800Y-115855400D02*
X122097800Y-115849400D01*
X122091800Y-116355100D02*
X122091800Y-115855400D01*
X122089500Y-116357400D02*
X122091800Y-116355100D01*
X121437400Y-116357400D02*
X122089500Y-116357400D01*
X120051100Y-117525800D02*
X120071800Y-117505100D01*
X119456200Y-117525800D02*
X120051100Y-117525800D01*
X120092500Y-117525800D02*
X120071800Y-117505100D01*
X120675400Y-117525800D02*
X120092500Y-117525800D01*
X113605300Y-113436400D02*
X113630700Y-113411000D01*
X112928400Y-113436400D02*
X113605300Y-113436400D01*
X116408200Y-121539000D02*
X116408200Y-120840500D01*
X112217200Y-99314000D02*
X112217200Y-100166800D01*
D28*
X164449120Y-98044000D02*
X164456740Y-98036380D01*
X163753800Y-98044000D02*
X164449120Y-98044000D01*
X97536000Y-82358000D02*
X100976000Y-82358000D01*
X97536000Y-73598000D02*
X100976000Y-73598000D01*
X97848000Y-122490000D02*
X101288000Y-122490000D01*
X97848000Y-113730000D02*
X101288000Y-113730000D01*
X185031800Y-122490000D02*
X181591800Y-122490000D01*
X185031800Y-113730000D02*
X181591800Y-113730000D01*
X185031800Y-102881200D02*
X181591800Y-102881200D01*
X185031800Y-94121200D02*
X181591800Y-94121200D01*
X150967440Y-91018360D02*
X150977600Y-91008200D01*
X150284820Y-91018360D02*
X150967440Y-91018360D01*
X185031800Y-70674000D02*
X181591800Y-70674000D01*
X185031800Y-61914000D02*
X181591800Y-61914000D01*
D25*
%TO.N,/Amplifier/V_BIAS_BASE*%
X116395500Y-113411000D02*
X116408200Y-113423700D01*
X115455700Y-113411000D02*
X116395500Y-113411000D01*
D26*
X116408200Y-109421300D02*
X116408200Y-113423700D01*
D25*
%TO.N,Net-(C203-Pad1)*%
X119363100Y-116355100D02*
X119187600Y-116179600D01*
X120071800Y-116355100D02*
X119363100Y-116355100D01*
X119187600Y-115239800D02*
X119187600Y-116179600D01*
D29*
%TO.N,/Amplifier/V_BIAS_COLLECTOR*%
X124846700Y-116018300D02*
X124855600Y-116027200D01*
X123901200Y-116018300D02*
X124846700Y-116018300D01*
X122226700Y-110921800D02*
X122123200Y-110818300D01*
X123901200Y-111279300D02*
X124258700Y-110921800D01*
X124258700Y-110921800D02*
X123240800Y-110921800D01*
X123240800Y-110921800D02*
X122226700Y-110921800D01*
X125265201Y-105245361D02*
X125265201Y-99587701D01*
X124719562Y-105791000D02*
X125265201Y-105245361D01*
X123190000Y-107527562D02*
X123190000Y-106238838D01*
X125265201Y-99587701D02*
X124460000Y-98782500D01*
X122894562Y-107823000D02*
X123190000Y-107527562D01*
X123637838Y-105791000D02*
X124719562Y-105791000D01*
X121736638Y-107823000D02*
X122894562Y-107823000D01*
X123190000Y-106238838D02*
X123637838Y-105791000D01*
X121317999Y-108241639D02*
X121736638Y-107823000D01*
X121317999Y-110013099D02*
X121317999Y-108241639D01*
X122123200Y-110818300D02*
X121317999Y-110013099D01*
X124258700Y-115660800D02*
X123901200Y-116018300D01*
X124258700Y-110921800D02*
X124258700Y-115660800D01*
D25*
%TO.N,Net-(C205-Pad2)*%
X122771300Y-117655100D02*
X122961400Y-117845200D01*
X122091800Y-117655100D02*
X122771300Y-117655100D01*
X122963300Y-117843300D02*
X122961400Y-117845200D01*
X123901200Y-117843300D02*
X122963300Y-117843300D01*
D26*
%TO.N,/Amplifier/RF_OUT*%
X122961400Y-119670200D02*
X125461400Y-119670200D01*
X125476000Y-119684800D02*
X125349000Y-119684800D01*
X125461400Y-119670200D02*
X125476000Y-119684800D01*
X126695200Y-119684800D02*
X125476000Y-119684800D01*
D27*
X185031800Y-118110000D02*
X143129000Y-118110000D01*
X143129000Y-118110000D02*
X141554200Y-119684800D01*
X141554200Y-119684800D02*
X126695200Y-119684800D01*
D26*
%TO.N,/Bias Regulator (Oscillator)/V_BIAS_BASE*%
X162445700Y-95177620D02*
X162457120Y-95189040D01*
X162445700Y-94227020D02*
X162445700Y-95177620D01*
X162457120Y-96135200D02*
X162455860Y-96136460D01*
X162457120Y-95189040D02*
X162457120Y-96135200D01*
X162396160Y-95250000D02*
X162457120Y-95189040D01*
X157757500Y-95250000D02*
X162396160Y-95250000D01*
%TO.N,Net-(C302-Pad1)*%
X167143460Y-98036380D02*
X167165940Y-98058860D01*
X166281740Y-98036380D02*
X167143460Y-98036380D01*
X166773860Y-98450940D02*
X167165940Y-98058860D01*
X166773860Y-98582480D02*
X166773860Y-98450940D01*
%TO.N,Net-(C303-Pad1)*%
X170072680Y-97040060D02*
X169565320Y-96532700D01*
X170072680Y-97081340D02*
X170072680Y-97040060D01*
X169900200Y-96908860D02*
X170072680Y-97081340D01*
X169185940Y-96908860D02*
X169900200Y-96908860D01*
%TO.N,/Bias Regulator (Oscillator)/V_BIAS_COLLECTOR*%
X171005500Y-101316160D02*
X171015020Y-101325680D01*
X170055540Y-101316160D02*
X171005500Y-101316160D01*
X153734140Y-103210360D02*
X153797000Y-103147500D01*
X153037519Y-100479399D02*
X157271899Y-100479399D01*
X152740360Y-103210360D02*
X152740360Y-100776558D01*
X151681820Y-103210360D02*
X152740360Y-103210360D01*
X157271899Y-100479399D02*
X158115000Y-101322500D01*
X152740360Y-100776558D02*
X153037519Y-100479399D01*
X152740360Y-103210360D02*
X153734140Y-103210360D01*
X171069000Y-101379660D02*
X171015020Y-101325680D01*
X171069000Y-105029000D02*
X171069000Y-101379660D01*
X158115000Y-101346000D02*
X164211000Y-107442000D01*
X168656000Y-107442000D02*
X171069000Y-105029000D01*
X164211000Y-107442000D02*
X168656000Y-107442000D01*
X158115000Y-101322500D02*
X158115000Y-101346000D01*
%TO.N,Net-(C305-Pad2)*%
X169744780Y-98208860D02*
X170067600Y-98531680D01*
X169185940Y-98208860D02*
X169744780Y-98208860D01*
X170055540Y-98543740D02*
X170067600Y-98531680D01*
X170055540Y-99491160D02*
X170055540Y-98543740D01*
D27*
%TO.N,/Oscillator/RF_OUT*%
X185031800Y-98501200D02*
X175310800Y-98501200D01*
D26*
X175310800Y-98501200D02*
X174625000Y-98501200D01*
%TO.N,/Bias Regulator (Amplifier)/VREF_1.2V*%
X122353700Y-102666800D02*
X122353700Y-104775000D01*
X121718700Y-102031800D02*
X122353700Y-102666800D01*
X119772200Y-102031800D02*
X121718700Y-102031800D01*
X118440200Y-102031800D02*
X118209700Y-102262300D01*
X118209700Y-102262300D02*
X118209700Y-105460800D01*
X119772200Y-102031800D02*
X118440200Y-102031800D01*
X122353700Y-104775000D02*
X122353700Y-106807000D01*
%TO.N,Net-(C402-Pad1)*%
X116384700Y-101119300D02*
X116384700Y-105460800D01*
X116027200Y-100761800D02*
X116384700Y-101119300D01*
X114822200Y-100761800D02*
X116027200Y-100761800D01*
X116384700Y-107572800D02*
X116408200Y-107596300D01*
X116384700Y-105460800D02*
X116384700Y-107572800D01*
%TO.N,+5V*%
X114782200Y-101991800D02*
X114822200Y-102031800D01*
X112217200Y-101991800D02*
X114782200Y-101991800D01*
D28*
X112206400Y-101981000D02*
X112217200Y-101991800D01*
X124155200Y-108993300D02*
X124258700Y-108889800D01*
X122123200Y-108993300D02*
X124155200Y-108993300D01*
X124178700Y-108809800D02*
X124258700Y-108889800D01*
X124178700Y-106807000D02*
X124178700Y-108809800D01*
X148483320Y-91041860D02*
X148459820Y-91018360D01*
X148483320Y-93623360D02*
X148483320Y-91041860D01*
X152296500Y-106807000D02*
X155956000Y-103147500D01*
X139957180Y-106807000D02*
X152296500Y-106807000D01*
X155956000Y-103147500D02*
X158115000Y-103147500D01*
X139957180Y-106807000D02*
X139957180Y-105787820D01*
X110001001Y-97313799D02*
X126091999Y-97313799D01*
X130454400Y-101676200D02*
X130454400Y-106807000D01*
X126091999Y-97313799D02*
X130454400Y-101676200D01*
X130454400Y-106807000D02*
X139957180Y-106807000D01*
X124178700Y-106807000D02*
X130454400Y-106807000D01*
X147616720Y-91018360D02*
X139957180Y-98677900D01*
X148459820Y-91018360D02*
X147616720Y-91018360D01*
X140038460Y-103106860D02*
X139957180Y-103025580D01*
X143657320Y-103106860D02*
X140038460Y-103106860D01*
X139957180Y-103025580D02*
X139957180Y-105787820D01*
X139957180Y-98677900D02*
X139957180Y-103025580D01*
X108508800Y-98806000D02*
X110001001Y-97313799D01*
X112217200Y-101991800D02*
X110373800Y-101991800D01*
X108508800Y-100126800D02*
X108508800Y-98806000D01*
X110373800Y-101991800D02*
X108508800Y-100126800D01*
X98806000Y-98806000D02*
X108508800Y-98806000D01*
D26*
%TO.N,Net-(C404-Pad1)*%
X126083700Y-108889800D02*
X126083700Y-110921800D01*
%TO.N,/Bias Regulator (Oscillator)/VREF_1.2V*%
X148483320Y-100519860D02*
X147721320Y-101281860D01*
X148483320Y-98573360D02*
X148483320Y-100519860D01*
X147721320Y-101281860D02*
X145689320Y-101281860D01*
X143657320Y-101281860D02*
X145689320Y-101281860D01*
X148734140Y-97010860D02*
X148483320Y-97261680D01*
X148483320Y-97261680D02*
X148483320Y-98573360D01*
X153162000Y-97010860D02*
X148734140Y-97010860D01*
%TO.N,Net-(C502-Pad1)*%
X150340820Y-95185860D02*
X153162000Y-95185860D01*
X149753320Y-94598360D02*
X150340820Y-95185860D01*
X149753320Y-93623360D02*
X149753320Y-94598360D01*
X155868360Y-95185860D02*
X155932500Y-95250000D01*
X153162000Y-95185860D02*
X155868360Y-95185860D01*
%TO.N,Net-(C504-Pad1)*%
X153797000Y-101322500D02*
X155956000Y-101322500D01*
%TO.N,Net-(L301-Pad1)*%
X164282120Y-96135200D02*
X164280860Y-96136460D01*
X164282120Y-95189040D02*
X164282120Y-96135200D01*
X164280860Y-96136460D02*
X165253660Y-96136460D01*
%TO.N,Net-(L302-Pad1)*%
X167165940Y-96223740D02*
X167078660Y-96136460D01*
X167165940Y-96908860D02*
X167165940Y-96223740D01*
%TO.N,Net-(R403-Pad1)*%
X124460000Y-100607500D02*
X122428000Y-100607500D01*
X122273700Y-100761800D02*
X122428000Y-100607500D01*
X119772200Y-100761800D02*
X122273700Y-100761800D01*
%TO.N,Net-(R503-Pad1)*%
X149753320Y-101074860D02*
X149856820Y-101178360D01*
X149753320Y-98573360D02*
X149753320Y-101074860D01*
X149856820Y-103210360D02*
X149856820Y-101178360D01*
%TO.N,/FILT_OUT*%
X174132240Y-66182240D02*
X174244000Y-66294000D01*
X162052000Y-66182240D02*
X174132240Y-66182240D01*
D27*
X185108000Y-66294000D02*
X174244000Y-66294000D01*
D26*
%TO.N,/FILT_IN*%
X109613699Y-77978000D02*
X121539000Y-77978000D01*
D27*
X107088938Y-77978000D02*
X109613699Y-77978000D01*
X97594000Y-77978000D02*
X107088938Y-77978000D01*
%TD*%
D29*
%TO.N,/Oscillator/RF_OUT*%
G36*
X174962347Y-99759274D02*
G01*
X171577000Y-98835998D01*
X171577000Y-98265737D01*
X175074440Y-97225957D01*
X174962347Y-99759274D01*
G37*
X174962347Y-99759274D02*
X171577000Y-98835998D01*
X171577000Y-98265737D01*
X175074440Y-97225957D01*
X174962347Y-99759274D01*
%TO.N,/Amplifier/RF_OUT*%
G36*
X126339600Y-120935142D02*
G01*
X123545600Y-120073659D01*
X123545600Y-119271292D01*
X126339600Y-118433092D01*
X126339600Y-120935142D01*
G37*
X126339600Y-120935142D02*
X123545600Y-120073659D01*
X123545600Y-119271292D01*
X126339600Y-118433092D01*
X126339600Y-120935142D01*
%TO.N,/Amplifier/RF_IN*%
G36*
X113538655Y-116864221D02*
G01*
X115824000Y-117654366D01*
X115824000Y-119381939D01*
X112776000Y-119428831D01*
X112776000Y-116821851D01*
X113538655Y-116864221D01*
G37*
X113538655Y-116864221D02*
X115824000Y-117654366D01*
X115824000Y-119381939D01*
X112776000Y-119428831D01*
X112776000Y-116821851D01*
X113538655Y-116864221D01*
%TO.N,/FILT_IN*%
G36*
X111277400Y-76870681D02*
G01*
X111277400Y-79085534D01*
X109817240Y-79273942D01*
X109575600Y-79290051D01*
X109575600Y-76682600D01*
X109797581Y-76682600D01*
X111277400Y-76870681D01*
G37*
X111277400Y-76870681D02*
X111277400Y-79085534D01*
X109817240Y-79273942D01*
X109575600Y-79290051D01*
X109575600Y-76682600D01*
X109797581Y-76682600D01*
X111277400Y-76870681D01*
%TO.N,/FILT_OUT*%
G36*
X174344461Y-67589400D02*
G01*
X174052493Y-67589400D01*
X172389800Y-67280614D01*
X172389800Y-65093150D01*
X174044423Y-64998600D01*
X174321329Y-64998600D01*
X174344461Y-67589400D01*
G37*
X174344461Y-67589400D02*
X174052493Y-67589400D01*
X172389800Y-67280614D01*
X172389800Y-65093150D01*
X174044423Y-64998600D01*
X174321329Y-64998600D01*
X174344461Y-67589400D01*
%TD*%
M02*
