%TF.GenerationSoftware,KiCad,Pcbnew,(5.1.8)-1*%
%TF.CreationDate,2021-11-19T11:08:09-06:00*%
%TF.ProjectId,EE514 Board,45453531-3420-4426-9f61-72642e6b6963,rev?*%
%TF.SameCoordinates,Original*%
%TF.FileFunction,Soldermask,Top*%
%TF.FilePolarity,Negative*%
%FSLAX46Y46*%
G04 Gerber Fmt 4.6, Leading zero omitted, Abs format (unit mm)*
G04 Created by KiCad (PCBNEW (5.1.8)-1) date 2021-11-19 11:08:09*
%MOMM*%
%LPD*%
G01*
G04 APERTURE LIST*
%ADD10C,3.048000*%
%ADD11C,0.100000*%
%ADD12R,20.574000X2.428240*%
%ADD13R,19.939000X2.829560*%
%ADD14R,0.950000X0.975000*%
%ADD15R,0.975000X0.950000*%
%ADD16R,0.800000X0.900000*%
%ADD17R,0.800000X0.600000*%
%ADD18R,5.080000X2.420000*%
%ADD19R,5.080000X2.290000*%
%ADD20C,2.100000*%
%ADD21R,2.100000X2.100000*%
%ADD22C,0.800000*%
G04 APERTURE END LIST*
D10*
X185108000Y-66294000D02*
X172001600Y-66294000D01*
X97594000Y-77978000D02*
X111411600Y-77978000D01*
D11*
G36*
X113690400Y-116738400D02*
G01*
X115951000Y-117576600D01*
X116865400Y-117576600D01*
X116865400Y-119507000D01*
X113131600Y-119583200D01*
X112445800Y-119557800D01*
X112445800Y-116636800D01*
X113690400Y-116738400D01*
G37*
X113690400Y-116738400D02*
X115951000Y-117576600D01*
X116865400Y-117576600D01*
X116865400Y-119507000D01*
X113131600Y-119583200D01*
X112445800Y-119557800D01*
X112445800Y-116636800D01*
X113690400Y-116738400D01*
D10*
X97594000Y-118110000D02*
X113157000Y-118110000D01*
D11*
G36*
X175793400Y-99949000D02*
G01*
X175031400Y-99949000D01*
X171678600Y-99009200D01*
X171678600Y-98069400D01*
X175031400Y-97053400D01*
X175793400Y-97028000D01*
X175793400Y-99949000D01*
G37*
X175793400Y-99949000D02*
X175031400Y-99949000D01*
X171678600Y-99009200D01*
X171678600Y-98069400D01*
X175031400Y-97053400D01*
X175793400Y-97028000D01*
X175793400Y-99949000D01*
D10*
X185031800Y-98501200D02*
X175310800Y-98501200D01*
D11*
G36*
X126873000Y-121158000D02*
G01*
X126314200Y-121158000D01*
X123342400Y-120142000D01*
X123342400Y-119202200D01*
X126415800Y-118237000D01*
X126873000Y-118237000D01*
X126873000Y-121158000D01*
G37*
X126873000Y-121158000D02*
X126314200Y-121158000D01*
X123342400Y-120142000D01*
X123342400Y-119202200D01*
X126415800Y-118237000D01*
X126873000Y-118237000D01*
X126873000Y-121158000D01*
D10*
X143129000Y-118110000D02*
X184912000Y-118110000D01*
X143129000Y-118110000D02*
X141554200Y-119684800D01*
X126746000Y-119684800D02*
X141478000Y-119684800D01*
D11*
%TO.C,FL101*%
G36*
X172847000Y-79700120D02*
G01*
X110744000Y-79700120D01*
X110744000Y-64460120D01*
X172847000Y-64460120D01*
X172847000Y-79700120D01*
G37*
X172847000Y-79700120D02*
X110744000Y-79700120D01*
X110744000Y-64460120D01*
X172847000Y-64460120D01*
X172847000Y-79700120D01*
%TD*%
%TO.C,C303*%
G36*
X170803570Y-93014800D02*
G01*
X170371770Y-93014800D01*
X170371770Y-95707200D01*
X170219370Y-95707200D01*
X170219370Y-93014800D01*
X169787570Y-93014800D01*
X169787570Y-95707200D01*
X169635170Y-95707200D01*
X169635170Y-93014800D01*
X169203370Y-93014800D01*
X169203370Y-95707200D01*
X169050970Y-95707200D01*
X169050970Y-93014800D01*
X168619170Y-93014800D01*
X168619170Y-95707200D01*
X168466770Y-95707200D01*
X168466770Y-93014800D01*
X168174670Y-93014800D01*
X168174670Y-92252800D01*
X170955970Y-92252800D01*
X170955970Y-95707200D01*
X170803570Y-95707200D01*
X170803570Y-93014800D01*
G37*
G36*
X168327070Y-95846900D02*
G01*
X168758870Y-95846900D01*
X168758870Y-93154500D01*
X168911270Y-93154500D01*
X168911270Y-95846900D01*
X169343070Y-95846900D01*
X169343070Y-93154500D01*
X169495470Y-93154500D01*
X169495470Y-95846900D01*
X169927270Y-95846900D01*
X169927270Y-93154500D01*
X170079670Y-93154500D01*
X170079670Y-95846900D01*
X170511470Y-95846900D01*
X170511470Y-93154500D01*
X170663870Y-93154500D01*
X170663870Y-95846900D01*
X170955970Y-95846900D01*
X170955970Y-96608900D01*
X168174670Y-96608900D01*
X168174670Y-93154500D01*
X168327070Y-93154500D01*
X168327070Y-95846900D01*
G37*
%TD*%
%TO.C,C302*%
G36*
X165535610Y-102100380D02*
G01*
X165967410Y-102100380D01*
X165967410Y-99407980D01*
X166119810Y-99407980D01*
X166119810Y-102100380D01*
X166551610Y-102100380D01*
X166551610Y-99407980D01*
X166704010Y-99407980D01*
X166704010Y-102100380D01*
X167135810Y-102100380D01*
X167135810Y-99407980D01*
X167288210Y-99407980D01*
X167288210Y-102100380D01*
X167720010Y-102100380D01*
X167720010Y-99407980D01*
X167872410Y-99407980D01*
X167872410Y-102100380D01*
X168164510Y-102100380D01*
X168164510Y-102862380D01*
X165383210Y-102862380D01*
X165383210Y-99407980D01*
X165535610Y-99407980D01*
X165535610Y-102100380D01*
G37*
G36*
X168012110Y-99268280D02*
G01*
X167580310Y-99268280D01*
X167580310Y-101960680D01*
X167427910Y-101960680D01*
X167427910Y-99268280D01*
X166996110Y-99268280D01*
X166996110Y-101960680D01*
X166843710Y-101960680D01*
X166843710Y-99268280D01*
X166411910Y-99268280D01*
X166411910Y-101960680D01*
X166259510Y-101960680D01*
X166259510Y-99268280D01*
X165827710Y-99268280D01*
X165827710Y-101960680D01*
X165675310Y-101960680D01*
X165675310Y-99268280D01*
X165383210Y-99268280D01*
X165383210Y-98506280D01*
X168164510Y-98506280D01*
X168164510Y-101960680D01*
X168012110Y-101960680D01*
X168012110Y-99268280D01*
G37*
%TD*%
D12*
%TO.C,FL101*%
X162052000Y-66182240D03*
X121539000Y-77978000D03*
X121539000Y-74936350D03*
D13*
X141795500Y-74936350D03*
X141795500Y-69223890D03*
D12*
X162052000Y-69223890D03*
%TD*%
%TO.C,U501*%
G36*
G01*
X147363320Y-94598360D02*
X147063320Y-94598360D01*
G75*
G02*
X146913320Y-94448360I0J150000D01*
G01*
X146913320Y-92798360D01*
G75*
G02*
X147063320Y-92648360I150000J0D01*
G01*
X147363320Y-92648360D01*
G75*
G02*
X147513320Y-92798360I0J-150000D01*
G01*
X147513320Y-94448360D01*
G75*
G02*
X147363320Y-94598360I-150000J0D01*
G01*
G37*
G36*
G01*
X148633320Y-94598360D02*
X148333320Y-94598360D01*
G75*
G02*
X148183320Y-94448360I0J150000D01*
G01*
X148183320Y-92798360D01*
G75*
G02*
X148333320Y-92648360I150000J0D01*
G01*
X148633320Y-92648360D01*
G75*
G02*
X148783320Y-92798360I0J-150000D01*
G01*
X148783320Y-94448360D01*
G75*
G02*
X148633320Y-94598360I-150000J0D01*
G01*
G37*
G36*
G01*
X149903320Y-94598360D02*
X149603320Y-94598360D01*
G75*
G02*
X149453320Y-94448360I0J150000D01*
G01*
X149453320Y-92798360D01*
G75*
G02*
X149603320Y-92648360I150000J0D01*
G01*
X149903320Y-92648360D01*
G75*
G02*
X150053320Y-92798360I0J-150000D01*
G01*
X150053320Y-94448360D01*
G75*
G02*
X149903320Y-94598360I-150000J0D01*
G01*
G37*
G36*
G01*
X151173320Y-94598360D02*
X150873320Y-94598360D01*
G75*
G02*
X150723320Y-94448360I0J150000D01*
G01*
X150723320Y-92798360D01*
G75*
G02*
X150873320Y-92648360I150000J0D01*
G01*
X151173320Y-92648360D01*
G75*
G02*
X151323320Y-92798360I0J-150000D01*
G01*
X151323320Y-94448360D01*
G75*
G02*
X151173320Y-94598360I-150000J0D01*
G01*
G37*
G36*
G01*
X151173320Y-99548360D02*
X150873320Y-99548360D01*
G75*
G02*
X150723320Y-99398360I0J150000D01*
G01*
X150723320Y-97748360D01*
G75*
G02*
X150873320Y-97598360I150000J0D01*
G01*
X151173320Y-97598360D01*
G75*
G02*
X151323320Y-97748360I0J-150000D01*
G01*
X151323320Y-99398360D01*
G75*
G02*
X151173320Y-99548360I-150000J0D01*
G01*
G37*
G36*
G01*
X149903320Y-99548360D02*
X149603320Y-99548360D01*
G75*
G02*
X149453320Y-99398360I0J150000D01*
G01*
X149453320Y-97748360D01*
G75*
G02*
X149603320Y-97598360I150000J0D01*
G01*
X149903320Y-97598360D01*
G75*
G02*
X150053320Y-97748360I0J-150000D01*
G01*
X150053320Y-99398360D01*
G75*
G02*
X149903320Y-99548360I-150000J0D01*
G01*
G37*
G36*
G01*
X148633320Y-99548360D02*
X148333320Y-99548360D01*
G75*
G02*
X148183320Y-99398360I0J150000D01*
G01*
X148183320Y-97748360D01*
G75*
G02*
X148333320Y-97598360I150000J0D01*
G01*
X148633320Y-97598360D01*
G75*
G02*
X148783320Y-97748360I0J-150000D01*
G01*
X148783320Y-99398360D01*
G75*
G02*
X148633320Y-99548360I-150000J0D01*
G01*
G37*
G36*
G01*
X147363320Y-99548360D02*
X147063320Y-99548360D01*
G75*
G02*
X146913320Y-99398360I0J150000D01*
G01*
X146913320Y-97748360D01*
G75*
G02*
X147063320Y-97598360I150000J0D01*
G01*
X147363320Y-97598360D01*
G75*
G02*
X147513320Y-97748360I0J-150000D01*
G01*
X147513320Y-99398360D01*
G75*
G02*
X147363320Y-99548360I-150000J0D01*
G01*
G37*
%TD*%
%TO.C,U401*%
G36*
G01*
X115797200Y-103151800D02*
X115797200Y-103451800D01*
G75*
G02*
X115647200Y-103601800I-150000J0D01*
G01*
X113997200Y-103601800D01*
G75*
G02*
X113847200Y-103451800I0J150000D01*
G01*
X113847200Y-103151800D01*
G75*
G02*
X113997200Y-103001800I150000J0D01*
G01*
X115647200Y-103001800D01*
G75*
G02*
X115797200Y-103151800I0J-150000D01*
G01*
G37*
G36*
G01*
X115797200Y-101881800D02*
X115797200Y-102181800D01*
G75*
G02*
X115647200Y-102331800I-150000J0D01*
G01*
X113997200Y-102331800D01*
G75*
G02*
X113847200Y-102181800I0J150000D01*
G01*
X113847200Y-101881800D01*
G75*
G02*
X113997200Y-101731800I150000J0D01*
G01*
X115647200Y-101731800D01*
G75*
G02*
X115797200Y-101881800I0J-150000D01*
G01*
G37*
G36*
G01*
X115797200Y-100611800D02*
X115797200Y-100911800D01*
G75*
G02*
X115647200Y-101061800I-150000J0D01*
G01*
X113997200Y-101061800D01*
G75*
G02*
X113847200Y-100911800I0J150000D01*
G01*
X113847200Y-100611800D01*
G75*
G02*
X113997200Y-100461800I150000J0D01*
G01*
X115647200Y-100461800D01*
G75*
G02*
X115797200Y-100611800I0J-150000D01*
G01*
G37*
G36*
G01*
X115797200Y-99341800D02*
X115797200Y-99641800D01*
G75*
G02*
X115647200Y-99791800I-150000J0D01*
G01*
X113997200Y-99791800D01*
G75*
G02*
X113847200Y-99641800I0J150000D01*
G01*
X113847200Y-99341800D01*
G75*
G02*
X113997200Y-99191800I150000J0D01*
G01*
X115647200Y-99191800D01*
G75*
G02*
X115797200Y-99341800I0J-150000D01*
G01*
G37*
G36*
G01*
X120747200Y-99341800D02*
X120747200Y-99641800D01*
G75*
G02*
X120597200Y-99791800I-150000J0D01*
G01*
X118947200Y-99791800D01*
G75*
G02*
X118797200Y-99641800I0J150000D01*
G01*
X118797200Y-99341800D01*
G75*
G02*
X118947200Y-99191800I150000J0D01*
G01*
X120597200Y-99191800D01*
G75*
G02*
X120747200Y-99341800I0J-150000D01*
G01*
G37*
G36*
G01*
X120747200Y-100611800D02*
X120747200Y-100911800D01*
G75*
G02*
X120597200Y-101061800I-150000J0D01*
G01*
X118947200Y-101061800D01*
G75*
G02*
X118797200Y-100911800I0J150000D01*
G01*
X118797200Y-100611800D01*
G75*
G02*
X118947200Y-100461800I150000J0D01*
G01*
X120597200Y-100461800D01*
G75*
G02*
X120747200Y-100611800I0J-150000D01*
G01*
G37*
G36*
G01*
X120747200Y-101881800D02*
X120747200Y-102181800D01*
G75*
G02*
X120597200Y-102331800I-150000J0D01*
G01*
X118947200Y-102331800D01*
G75*
G02*
X118797200Y-102181800I0J150000D01*
G01*
X118797200Y-101881800D01*
G75*
G02*
X118947200Y-101731800I150000J0D01*
G01*
X120597200Y-101731800D01*
G75*
G02*
X120747200Y-101881800I0J-150000D01*
G01*
G37*
G36*
G01*
X120747200Y-103151800D02*
X120747200Y-103451800D01*
G75*
G02*
X120597200Y-103601800I-150000J0D01*
G01*
X118947200Y-103601800D01*
G75*
G02*
X118797200Y-103451800I0J150000D01*
G01*
X118797200Y-103151800D01*
G75*
G02*
X118947200Y-103001800I150000J0D01*
G01*
X120597200Y-103001800D01*
G75*
G02*
X120747200Y-103151800I0J-150000D01*
G01*
G37*
%TD*%
D14*
%TO.C,R507*%
X153797000Y-101322500D03*
X153797000Y-103147500D03*
%TD*%
%TO.C,R506*%
X158115000Y-103147500D03*
X158115000Y-101322500D03*
%TD*%
D15*
%TO.C,R505*%
X157757500Y-95250000D03*
X155932500Y-95250000D03*
%TD*%
%TO.C,R504*%
X151681820Y-103210360D03*
X149856820Y-103210360D03*
%TD*%
%TO.C,R503*%
X149856820Y-101178360D03*
X151681820Y-101178360D03*
%TD*%
D14*
%TO.C,R502*%
X145689320Y-101281860D03*
X145689320Y-103106860D03*
%TD*%
%TO.C,R501*%
X143657320Y-103106860D03*
X143657320Y-101281860D03*
%TD*%
D15*
%TO.C,R407*%
X126083700Y-110921800D03*
X124258700Y-110921800D03*
%TD*%
D14*
%TO.C,R406*%
X122123200Y-108993300D03*
X122123200Y-110818300D03*
%TD*%
%TO.C,R405*%
X116408200Y-109421300D03*
X116408200Y-107596300D03*
%TD*%
%TO.C,R404*%
X124460000Y-98782500D03*
X124460000Y-100607500D03*
%TD*%
%TO.C,R403*%
X122428000Y-100607500D03*
X122428000Y-98782500D03*
%TD*%
D15*
%TO.C,R402*%
X122353700Y-104775000D03*
X124178700Y-104775000D03*
%TD*%
%TO.C,R401*%
X124178700Y-106807000D03*
X122353700Y-106807000D03*
%TD*%
%TO.C,R301*%
X164282120Y-95189040D03*
X162457120Y-95189040D03*
%TD*%
%TO.C,R201*%
X119187600Y-115239800D03*
X117362600Y-115239800D03*
%TD*%
D16*
%TO.C,Q301*%
X167165940Y-98058860D03*
D17*
X167165940Y-96908860D03*
X169185940Y-98208860D03*
X169185940Y-96908860D03*
%TD*%
D16*
%TO.C,Q201*%
X120071800Y-117505100D03*
D17*
X120071800Y-116355100D03*
X122091800Y-117655100D03*
X122091800Y-116355100D03*
%TD*%
D14*
%TO.C,L305*%
X170055540Y-99491160D03*
X170055540Y-101316160D03*
%TD*%
D15*
%TO.C,L304*%
X170072680Y-97081340D03*
X171897680Y-97081340D03*
%TD*%
%TO.C,L303*%
X166281740Y-98036380D03*
X164456740Y-98036380D03*
%TD*%
%TO.C,L302*%
X167078660Y-96136460D03*
X165253660Y-96136460D03*
%TD*%
%TO.C,L301*%
X164280860Y-96136460D03*
X162455860Y-96136460D03*
%TD*%
D14*
%TO.C,L203*%
X123901200Y-117843300D03*
X123901200Y-116018300D03*
%TD*%
%TO.C,L202*%
X116408200Y-115248700D03*
X116408200Y-113423700D03*
%TD*%
%TO.C,L201*%
X116408200Y-119015500D03*
X116408200Y-120840500D03*
%TD*%
D18*
%TO.C,J106*%
X185031800Y-94121200D03*
X185031800Y-102881200D03*
D19*
X185031800Y-98501200D03*
%TD*%
D18*
%TO.C,J105*%
X185031800Y-113730000D03*
X185031800Y-122490000D03*
D19*
X185031800Y-118110000D03*
%TD*%
D18*
%TO.C,J104*%
X185031800Y-61914000D03*
X185031800Y-70674000D03*
D19*
X185031800Y-66294000D03*
%TD*%
D18*
%TO.C,J103*%
X97594000Y-122490000D03*
X97594000Y-113730000D03*
D19*
X97594000Y-118110000D03*
%TD*%
D18*
%TO.C,J102*%
X97594000Y-82358000D03*
X97594000Y-73598000D03*
D19*
X97594000Y-77978000D03*
%TD*%
D20*
%TO.C,J101*%
X98806000Y-98806000D03*
D21*
X98806000Y-96266000D03*
%TD*%
D14*
%TO.C,C504*%
X155956000Y-103147500D03*
X155956000Y-101322500D03*
%TD*%
D15*
%TO.C,C503*%
X148459820Y-91018360D03*
X150284820Y-91018360D03*
%TD*%
D14*
%TO.C,C502*%
X153162000Y-97010860D03*
X153162000Y-95185860D03*
%TD*%
%TO.C,C501*%
X147721320Y-101281860D03*
X147721320Y-103106860D03*
%TD*%
D15*
%TO.C,C404*%
X124258700Y-108889800D03*
X126083700Y-108889800D03*
%TD*%
D14*
%TO.C,C403*%
X112217200Y-101991800D03*
X112217200Y-100166800D03*
%TD*%
D15*
%TO.C,C402*%
X118209700Y-105460800D03*
X116384700Y-105460800D03*
%TD*%
%TO.C,C401*%
X122353700Y-102666800D03*
X124178700Y-102666800D03*
%TD*%
%TO.C,C305*%
X170067600Y-98531680D03*
X171892600Y-98531680D03*
%TD*%
%TO.C,C304*%
X172840020Y-101325680D03*
X171015020Y-101325680D03*
%TD*%
D14*
%TO.C,C301*%
X162445700Y-92402020D03*
X162445700Y-94227020D03*
%TD*%
%TO.C,C205*%
X122961400Y-117845200D03*
X122961400Y-119670200D03*
%TD*%
D15*
%TO.C,C204*%
X126680600Y-116027200D03*
X124855600Y-116027200D03*
%TD*%
%TO.C,C203*%
X117362600Y-116179600D03*
X119187600Y-116179600D03*
%TD*%
%TO.C,C202*%
X113630700Y-113411000D03*
X115455700Y-113411000D03*
%TD*%
D14*
%TO.C,C201*%
X116408200Y-118046500D03*
X116408200Y-116221500D03*
%TD*%
D22*
X170535600Y-92049600D03*
X169570400Y-92049600D03*
X168554400Y-92049600D03*
X167767000Y-103073200D03*
X165785800Y-103073200D03*
X166801800Y-103073200D03*
X172618400Y-96951800D03*
X173532800Y-101320600D03*
X163753800Y-98044000D03*
X162458400Y-91694000D03*
X150977600Y-91008200D03*
X151028400Y-100101400D03*
X152069800Y-100101400D03*
X147726400Y-103809800D03*
X145694400Y-103809800D03*
X122428000Y-98094800D03*
X121361200Y-99491800D03*
X124180600Y-101828600D03*
X124180600Y-103936800D03*
X127533400Y-116027200D03*
X122097800Y-115849400D03*
X121437400Y-116357400D03*
X120675400Y-117525800D03*
X119456200Y-117525800D03*
X116408200Y-121539000D03*
X112928400Y-113436400D03*
X112217200Y-99314000D03*
M02*
