%TF.GenerationSoftware,KiCad,Pcbnew,(5.1.8)-1*%
%TF.CreationDate,2021-11-19T11:08:09-06:00*%
%TF.ProjectId,EE514 Board,45453531-3420-4426-9f61-72642e6b6963,rev?*%
%TF.SameCoordinates,Original*%
%TF.FileFunction,Legend,Top*%
%TF.FilePolarity,Positive*%
%FSLAX46Y46*%
G04 Gerber Fmt 4.6, Leading zero omitted, Abs format (unit mm)*
G04 Created by KiCad (PCBNEW (5.1.8)-1) date 2021-11-19 11:08:09*
%MOMM*%
%LPD*%
G01*
G04 APERTURE LIST*
%ADD10C,0.254000*%
%ADD11C,0.203200*%
%ADD12C,0.152400*%
%ADD13C,0.120000*%
%ADD14C,0.150000*%
G04 APERTURE END LIST*
D10*
X163729004Y-106359476D02*
X163789480Y-106299000D01*
X163910433Y-106238523D01*
X164212814Y-106238523D01*
X164333766Y-106299000D01*
X164394242Y-106359476D01*
X164454719Y-106480428D01*
X164454719Y-106601380D01*
X164394242Y-106782809D01*
X163668528Y-107508523D01*
X164454719Y-107508523D01*
X164999004Y-107387571D02*
X165059480Y-107448047D01*
X164999004Y-107508523D01*
X164938528Y-107448047D01*
X164999004Y-107387571D01*
X164999004Y-107508523D01*
X165845671Y-106238523D02*
X165966623Y-106238523D01*
X166087576Y-106299000D01*
X166148052Y-106359476D01*
X166208528Y-106480428D01*
X166269004Y-106722333D01*
X166269004Y-107024714D01*
X166208528Y-107266619D01*
X166148052Y-107387571D01*
X166087576Y-107448047D01*
X165966623Y-107508523D01*
X165845671Y-107508523D01*
X165724719Y-107448047D01*
X165664242Y-107387571D01*
X165603766Y-107266619D01*
X165543290Y-107024714D01*
X165543290Y-106722333D01*
X165603766Y-106480428D01*
X165664242Y-106359476D01*
X165724719Y-106299000D01*
X165845671Y-106238523D01*
X168446147Y-106299000D02*
X168325195Y-106238523D01*
X168143766Y-106238523D01*
X167962338Y-106299000D01*
X167841385Y-106419952D01*
X167780909Y-106540904D01*
X167720433Y-106782809D01*
X167720433Y-106964238D01*
X167780909Y-107206142D01*
X167841385Y-107327095D01*
X167962338Y-107448047D01*
X168143766Y-107508523D01*
X168264719Y-107508523D01*
X168446147Y-107448047D01*
X168506623Y-107387571D01*
X168506623Y-106964238D01*
X168264719Y-106964238D01*
X169050909Y-107508523D02*
X169050909Y-106238523D01*
X169050909Y-106843285D02*
X169776623Y-106843285D01*
X169776623Y-107508523D02*
X169776623Y-106238523D01*
X170260433Y-106661857D02*
X170925671Y-106661857D01*
X170260433Y-107508523D01*
X170925671Y-107508523D01*
X172619004Y-106238523D02*
X172860909Y-106238523D01*
X172981861Y-106299000D01*
X173102814Y-106419952D01*
X173163290Y-106661857D01*
X173163290Y-107085190D01*
X173102814Y-107327095D01*
X172981861Y-107448047D01*
X172860909Y-107508523D01*
X172619004Y-107508523D01*
X172498052Y-107448047D01*
X172377100Y-107327095D01*
X172316623Y-107085190D01*
X172316623Y-106661857D01*
X172377100Y-106419952D01*
X172498052Y-106299000D01*
X172619004Y-106238523D01*
X173647100Y-107448047D02*
X173768052Y-107508523D01*
X174009957Y-107508523D01*
X174130909Y-107448047D01*
X174191385Y-107327095D01*
X174191385Y-107266619D01*
X174130909Y-107145666D01*
X174009957Y-107085190D01*
X173828528Y-107085190D01*
X173707576Y-107024714D01*
X173647100Y-106903761D01*
X173647100Y-106843285D01*
X173707576Y-106722333D01*
X173828528Y-106661857D01*
X174009957Y-106661857D01*
X174130909Y-106722333D01*
X175279957Y-107448047D02*
X175159004Y-107508523D01*
X174917100Y-107508523D01*
X174796147Y-107448047D01*
X174735671Y-107387571D01*
X174675195Y-107266619D01*
X174675195Y-106903761D01*
X174735671Y-106782809D01*
X174796147Y-106722333D01*
X174917100Y-106661857D01*
X175159004Y-106661857D01*
X175279957Y-106722333D01*
X175824242Y-107508523D02*
X175824242Y-106661857D01*
X175824242Y-106238523D02*
X175763766Y-106299000D01*
X175824242Y-106359476D01*
X175884719Y-106299000D01*
X175824242Y-106238523D01*
X175824242Y-106359476D01*
X176610433Y-107508523D02*
X176489480Y-107448047D01*
X176429004Y-107327095D01*
X176429004Y-106238523D01*
X177275671Y-107508523D02*
X177154719Y-107448047D01*
X177094242Y-107327095D01*
X177094242Y-106238523D01*
X178303766Y-107508523D02*
X178303766Y-106843285D01*
X178243290Y-106722333D01*
X178122338Y-106661857D01*
X177880433Y-106661857D01*
X177759480Y-106722333D01*
X178303766Y-107448047D02*
X178182814Y-107508523D01*
X177880433Y-107508523D01*
X177759480Y-107448047D01*
X177699004Y-107327095D01*
X177699004Y-107206142D01*
X177759480Y-107085190D01*
X177880433Y-107024714D01*
X178182814Y-107024714D01*
X178303766Y-106964238D01*
X178727100Y-106661857D02*
X179210909Y-106661857D01*
X178908528Y-106238523D02*
X178908528Y-107327095D01*
X178969004Y-107448047D01*
X179089957Y-107508523D01*
X179210909Y-107508523D01*
X179815671Y-107508523D02*
X179694719Y-107448047D01*
X179634242Y-107387571D01*
X179573766Y-107266619D01*
X179573766Y-106903761D01*
X179634242Y-106782809D01*
X179694719Y-106722333D01*
X179815671Y-106661857D01*
X179997100Y-106661857D01*
X180118052Y-106722333D01*
X180178528Y-106782809D01*
X180239004Y-106903761D01*
X180239004Y-107266619D01*
X180178528Y-107387571D01*
X180118052Y-107448047D01*
X179997100Y-107508523D01*
X179815671Y-107508523D01*
X180783290Y-107508523D02*
X180783290Y-106661857D01*
X180783290Y-106903761D02*
X180843766Y-106782809D01*
X180904242Y-106722333D01*
X181025195Y-106661857D01*
X181146147Y-106661857D01*
X156871004Y-112963476D02*
X156931480Y-112903000D01*
X157052433Y-112842523D01*
X157354814Y-112842523D01*
X157475766Y-112903000D01*
X157536242Y-112963476D01*
X157596719Y-113084428D01*
X157596719Y-113205380D01*
X157536242Y-113386809D01*
X156810528Y-114112523D01*
X157596719Y-114112523D01*
X158141004Y-113991571D02*
X158201480Y-114052047D01*
X158141004Y-114112523D01*
X158080528Y-114052047D01*
X158141004Y-113991571D01*
X158141004Y-114112523D01*
X158987671Y-112842523D02*
X159108623Y-112842523D01*
X159229576Y-112903000D01*
X159290052Y-112963476D01*
X159350528Y-113084428D01*
X159411004Y-113326333D01*
X159411004Y-113628714D01*
X159350528Y-113870619D01*
X159290052Y-113991571D01*
X159229576Y-114052047D01*
X159108623Y-114112523D01*
X158987671Y-114112523D01*
X158866719Y-114052047D01*
X158806242Y-113991571D01*
X158745766Y-113870619D01*
X158685290Y-113628714D01*
X158685290Y-113326333D01*
X158745766Y-113084428D01*
X158806242Y-112963476D01*
X158866719Y-112903000D01*
X158987671Y-112842523D01*
X161588147Y-112903000D02*
X161467195Y-112842523D01*
X161285766Y-112842523D01*
X161104338Y-112903000D01*
X160983385Y-113023952D01*
X160922909Y-113144904D01*
X160862433Y-113386809D01*
X160862433Y-113568238D01*
X160922909Y-113810142D01*
X160983385Y-113931095D01*
X161104338Y-114052047D01*
X161285766Y-114112523D01*
X161406719Y-114112523D01*
X161588147Y-114052047D01*
X161648623Y-113991571D01*
X161648623Y-113568238D01*
X161406719Y-113568238D01*
X162192909Y-114112523D02*
X162192909Y-112842523D01*
X162192909Y-113447285D02*
X162918623Y-113447285D01*
X162918623Y-114112523D02*
X162918623Y-112842523D01*
X163402433Y-113265857D02*
X164067671Y-113265857D01*
X163402433Y-114112523D01*
X164067671Y-114112523D01*
X165458623Y-113749666D02*
X166063385Y-113749666D01*
X165337671Y-114112523D02*
X165761004Y-112842523D01*
X166184338Y-114112523D01*
X166607671Y-114112523D02*
X166607671Y-113265857D01*
X166607671Y-113386809D02*
X166668147Y-113326333D01*
X166789100Y-113265857D01*
X166970528Y-113265857D01*
X167091480Y-113326333D01*
X167151957Y-113447285D01*
X167151957Y-114112523D01*
X167151957Y-113447285D02*
X167212433Y-113326333D01*
X167333385Y-113265857D01*
X167514814Y-113265857D01*
X167635766Y-113326333D01*
X167696242Y-113447285D01*
X167696242Y-114112523D01*
X168301004Y-113265857D02*
X168301004Y-114535857D01*
X168301004Y-113326333D02*
X168421957Y-113265857D01*
X168663861Y-113265857D01*
X168784814Y-113326333D01*
X168845290Y-113386809D01*
X168905766Y-113507761D01*
X168905766Y-113870619D01*
X168845290Y-113991571D01*
X168784814Y-114052047D01*
X168663861Y-114112523D01*
X168421957Y-114112523D01*
X168301004Y-114052047D01*
X169631480Y-114112523D02*
X169510528Y-114052047D01*
X169450052Y-113931095D01*
X169450052Y-112842523D01*
X170115290Y-114112523D02*
X170115290Y-113265857D01*
X170115290Y-112842523D02*
X170054814Y-112903000D01*
X170115290Y-112963476D01*
X170175766Y-112903000D01*
X170115290Y-112842523D01*
X170115290Y-112963476D01*
X170538623Y-113265857D02*
X171022433Y-113265857D01*
X170720052Y-114112523D02*
X170720052Y-113023952D01*
X170780528Y-112903000D01*
X170901480Y-112842523D01*
X171022433Y-112842523D01*
X171445766Y-114112523D02*
X171445766Y-113265857D01*
X171445766Y-112842523D02*
X171385290Y-112903000D01*
X171445766Y-112963476D01*
X171506242Y-112903000D01*
X171445766Y-112842523D01*
X171445766Y-112963476D01*
X172534338Y-114052047D02*
X172413385Y-114112523D01*
X172171480Y-114112523D01*
X172050528Y-114052047D01*
X171990052Y-113931095D01*
X171990052Y-113447285D01*
X172050528Y-113326333D01*
X172171480Y-113265857D01*
X172413385Y-113265857D01*
X172534338Y-113326333D01*
X172594814Y-113447285D01*
X172594814Y-113568238D01*
X171990052Y-113689190D01*
X173139100Y-114112523D02*
X173139100Y-113265857D01*
X173139100Y-113507761D02*
X173199576Y-113386809D01*
X173260052Y-113326333D01*
X173381004Y-113265857D01*
X173501957Y-113265857D01*
D11*
X162560000Y-88138000D02*
X162560000Y-89154000D01*
X162560000Y-108204000D02*
X162560000Y-100076000D01*
D10*
X99019480Y-88966523D02*
X99019480Y-87696523D01*
X99321861Y-87696523D01*
X99503290Y-87757000D01*
X99624242Y-87877952D01*
X99684719Y-87998904D01*
X99745195Y-88240809D01*
X99745195Y-88422238D01*
X99684719Y-88664142D01*
X99624242Y-88785095D01*
X99503290Y-88906047D01*
X99321861Y-88966523D01*
X99019480Y-88966523D01*
X101015195Y-88845571D02*
X100954719Y-88906047D01*
X100773290Y-88966523D01*
X100652338Y-88966523D01*
X100470909Y-88906047D01*
X100349957Y-88785095D01*
X100289480Y-88664142D01*
X100229004Y-88422238D01*
X100229004Y-88240809D01*
X100289480Y-87998904D01*
X100349957Y-87877952D01*
X100470909Y-87757000D01*
X100652338Y-87696523D01*
X100773290Y-87696523D01*
X100954719Y-87757000D01*
X101015195Y-87817476D01*
X102950433Y-88301285D02*
X103131861Y-88361761D01*
X103192338Y-88422238D01*
X103252814Y-88543190D01*
X103252814Y-88724619D01*
X103192338Y-88845571D01*
X103131861Y-88906047D01*
X103010909Y-88966523D01*
X102527100Y-88966523D01*
X102527100Y-87696523D01*
X102950433Y-87696523D01*
X103071385Y-87757000D01*
X103131861Y-87817476D01*
X103192338Y-87938428D01*
X103192338Y-88059380D01*
X103131861Y-88180333D01*
X103071385Y-88240809D01*
X102950433Y-88301285D01*
X102527100Y-88301285D01*
X103797100Y-88966523D02*
X103797100Y-88119857D01*
X103797100Y-87696523D02*
X103736623Y-87757000D01*
X103797100Y-87817476D01*
X103857576Y-87757000D01*
X103797100Y-87696523D01*
X103797100Y-87817476D01*
X104946147Y-88966523D02*
X104946147Y-88301285D01*
X104885671Y-88180333D01*
X104764719Y-88119857D01*
X104522814Y-88119857D01*
X104401861Y-88180333D01*
X104946147Y-88906047D02*
X104825195Y-88966523D01*
X104522814Y-88966523D01*
X104401861Y-88906047D01*
X104341385Y-88785095D01*
X104341385Y-88664142D01*
X104401861Y-88543190D01*
X104522814Y-88482714D01*
X104825195Y-88482714D01*
X104946147Y-88422238D01*
X105490433Y-88906047D02*
X105611385Y-88966523D01*
X105853290Y-88966523D01*
X105974242Y-88906047D01*
X106034719Y-88785095D01*
X106034719Y-88724619D01*
X105974242Y-88603666D01*
X105853290Y-88543190D01*
X105671861Y-88543190D01*
X105550909Y-88482714D01*
X105490433Y-88361761D01*
X105490433Y-88301285D01*
X105550909Y-88180333D01*
X105671861Y-88119857D01*
X105853290Y-88119857D01*
X105974242Y-88180333D01*
X108272338Y-88966523D02*
X107849004Y-88361761D01*
X107546623Y-88966523D02*
X107546623Y-87696523D01*
X108030433Y-87696523D01*
X108151385Y-87757000D01*
X108211861Y-87817476D01*
X108272338Y-87938428D01*
X108272338Y-88119857D01*
X108211861Y-88240809D01*
X108151385Y-88301285D01*
X108030433Y-88361761D01*
X107546623Y-88361761D01*
X109300433Y-88906047D02*
X109179480Y-88966523D01*
X108937576Y-88966523D01*
X108816623Y-88906047D01*
X108756147Y-88785095D01*
X108756147Y-88301285D01*
X108816623Y-88180333D01*
X108937576Y-88119857D01*
X109179480Y-88119857D01*
X109300433Y-88180333D01*
X109360909Y-88301285D01*
X109360909Y-88422238D01*
X108756147Y-88543190D01*
X110449480Y-88119857D02*
X110449480Y-89147952D01*
X110389004Y-89268904D01*
X110328528Y-89329380D01*
X110207576Y-89389857D01*
X110026147Y-89389857D01*
X109905195Y-89329380D01*
X110449480Y-88906047D02*
X110328528Y-88966523D01*
X110086623Y-88966523D01*
X109965671Y-88906047D01*
X109905195Y-88845571D01*
X109844719Y-88724619D01*
X109844719Y-88361761D01*
X109905195Y-88240809D01*
X109965671Y-88180333D01*
X110086623Y-88119857D01*
X110328528Y-88119857D01*
X110449480Y-88180333D01*
X111598528Y-88119857D02*
X111598528Y-88966523D01*
X111054242Y-88119857D02*
X111054242Y-88785095D01*
X111114719Y-88906047D01*
X111235671Y-88966523D01*
X111417100Y-88966523D01*
X111538052Y-88906047D01*
X111598528Y-88845571D01*
X112384719Y-88966523D02*
X112263766Y-88906047D01*
X112203290Y-88785095D01*
X112203290Y-87696523D01*
X113412814Y-88966523D02*
X113412814Y-88301285D01*
X113352338Y-88180333D01*
X113231385Y-88119857D01*
X112989480Y-88119857D01*
X112868528Y-88180333D01*
X113412814Y-88906047D02*
X113291861Y-88966523D01*
X112989480Y-88966523D01*
X112868528Y-88906047D01*
X112808052Y-88785095D01*
X112808052Y-88664142D01*
X112868528Y-88543190D01*
X112989480Y-88482714D01*
X113291861Y-88482714D01*
X113412814Y-88422238D01*
X113836147Y-88119857D02*
X114319957Y-88119857D01*
X114017576Y-87696523D02*
X114017576Y-88785095D01*
X114078052Y-88906047D01*
X114199004Y-88966523D01*
X114319957Y-88966523D01*
X114924719Y-88966523D02*
X114803766Y-88906047D01*
X114743290Y-88845571D01*
X114682814Y-88724619D01*
X114682814Y-88361761D01*
X114743290Y-88240809D01*
X114803766Y-88180333D01*
X114924719Y-88119857D01*
X115106147Y-88119857D01*
X115227100Y-88180333D01*
X115287576Y-88240809D01*
X115348052Y-88361761D01*
X115348052Y-88724619D01*
X115287576Y-88845571D01*
X115227100Y-88906047D01*
X115106147Y-88966523D01*
X114924719Y-88966523D01*
X115892338Y-88966523D02*
X115892338Y-88119857D01*
X115892338Y-88361761D02*
X115952814Y-88240809D01*
X116013290Y-88180333D01*
X116134242Y-88119857D01*
X116255195Y-88119857D01*
X116618052Y-88906047D02*
X116739004Y-88966523D01*
X116980909Y-88966523D01*
X117101861Y-88906047D01*
X117162338Y-88785095D01*
X117162338Y-88724619D01*
X117101861Y-88603666D01*
X116980909Y-88543190D01*
X116799480Y-88543190D01*
X116678528Y-88482714D01*
X116618052Y-88361761D01*
X116618052Y-88301285D01*
X116678528Y-88180333D01*
X116799480Y-88119857D01*
X116980909Y-88119857D01*
X117101861Y-88180333D01*
X99213004Y-60385476D02*
X99273480Y-60325000D01*
X99394433Y-60264523D01*
X99696814Y-60264523D01*
X99817766Y-60325000D01*
X99878242Y-60385476D01*
X99938719Y-60506428D01*
X99938719Y-60627380D01*
X99878242Y-60808809D01*
X99152528Y-61534523D01*
X99938719Y-61534523D01*
X100483004Y-61413571D02*
X100543480Y-61474047D01*
X100483004Y-61534523D01*
X100422528Y-61474047D01*
X100483004Y-61413571D01*
X100483004Y-61534523D01*
X101329671Y-60264523D02*
X101450623Y-60264523D01*
X101571576Y-60325000D01*
X101632052Y-60385476D01*
X101692528Y-60506428D01*
X101753004Y-60748333D01*
X101753004Y-61050714D01*
X101692528Y-61292619D01*
X101632052Y-61413571D01*
X101571576Y-61474047D01*
X101450623Y-61534523D01*
X101329671Y-61534523D01*
X101208719Y-61474047D01*
X101148242Y-61413571D01*
X101087766Y-61292619D01*
X101027290Y-61050714D01*
X101027290Y-60748333D01*
X101087766Y-60506428D01*
X101148242Y-60385476D01*
X101208719Y-60325000D01*
X101329671Y-60264523D01*
X102962528Y-60325000D02*
X102841576Y-60264523D01*
X102660147Y-60264523D01*
X102478719Y-60325000D01*
X102357766Y-60445952D01*
X102297290Y-60566904D01*
X102236814Y-60808809D01*
X102236814Y-60990238D01*
X102297290Y-61232142D01*
X102357766Y-61353095D01*
X102478719Y-61474047D01*
X102660147Y-61534523D01*
X102781100Y-61534523D01*
X102962528Y-61474047D01*
X103023004Y-61413571D01*
X103023004Y-60990238D01*
X102781100Y-60990238D01*
X103567290Y-61534523D02*
X103567290Y-60264523D01*
X103567290Y-60869285D02*
X104293004Y-60869285D01*
X104293004Y-61534523D02*
X104293004Y-60264523D01*
X104776814Y-60687857D02*
X105442052Y-60687857D01*
X104776814Y-61534523D01*
X105442052Y-61534523D01*
X107316814Y-60869285D02*
X107498242Y-60929761D01*
X107558719Y-60990238D01*
X107619195Y-61111190D01*
X107619195Y-61292619D01*
X107558719Y-61413571D01*
X107498242Y-61474047D01*
X107377290Y-61534523D01*
X106893480Y-61534523D01*
X106893480Y-60264523D01*
X107316814Y-60264523D01*
X107437766Y-60325000D01*
X107498242Y-60385476D01*
X107558719Y-60506428D01*
X107558719Y-60627380D01*
X107498242Y-60748333D01*
X107437766Y-60808809D01*
X107316814Y-60869285D01*
X106893480Y-60869285D01*
X108707766Y-61534523D02*
X108707766Y-60869285D01*
X108647290Y-60748333D01*
X108526338Y-60687857D01*
X108284433Y-60687857D01*
X108163480Y-60748333D01*
X108707766Y-61474047D02*
X108586814Y-61534523D01*
X108284433Y-61534523D01*
X108163480Y-61474047D01*
X108103004Y-61353095D01*
X108103004Y-61232142D01*
X108163480Y-61111190D01*
X108284433Y-61050714D01*
X108586814Y-61050714D01*
X108707766Y-60990238D01*
X109312528Y-60687857D02*
X109312528Y-61534523D01*
X109312528Y-60808809D02*
X109373004Y-60748333D01*
X109493957Y-60687857D01*
X109675385Y-60687857D01*
X109796338Y-60748333D01*
X109856814Y-60869285D01*
X109856814Y-61534523D01*
X111005861Y-61534523D02*
X111005861Y-60264523D01*
X111005861Y-61474047D02*
X110884909Y-61534523D01*
X110643004Y-61534523D01*
X110522052Y-61474047D01*
X110461576Y-61413571D01*
X110401100Y-61292619D01*
X110401100Y-60929761D01*
X110461576Y-60808809D01*
X110522052Y-60748333D01*
X110643004Y-60687857D01*
X110884909Y-60687857D01*
X111005861Y-60748333D01*
X111610623Y-61050714D02*
X112578242Y-61050714D01*
X113183004Y-61534523D02*
X113183004Y-60264523D01*
X113666814Y-60264523D01*
X113787766Y-60325000D01*
X113848242Y-60385476D01*
X113908719Y-60506428D01*
X113908719Y-60687857D01*
X113848242Y-60808809D01*
X113787766Y-60869285D01*
X113666814Y-60929761D01*
X113183004Y-60929761D01*
X114997290Y-61534523D02*
X114997290Y-60869285D01*
X114936814Y-60748333D01*
X114815861Y-60687857D01*
X114573957Y-60687857D01*
X114453004Y-60748333D01*
X114997290Y-61474047D02*
X114876338Y-61534523D01*
X114573957Y-61534523D01*
X114453004Y-61474047D01*
X114392528Y-61353095D01*
X114392528Y-61232142D01*
X114453004Y-61111190D01*
X114573957Y-61050714D01*
X114876338Y-61050714D01*
X114997290Y-60990238D01*
X115541576Y-61474047D02*
X115662528Y-61534523D01*
X115904433Y-61534523D01*
X116025385Y-61474047D01*
X116085861Y-61353095D01*
X116085861Y-61292619D01*
X116025385Y-61171666D01*
X115904433Y-61111190D01*
X115723004Y-61111190D01*
X115602052Y-61050714D01*
X115541576Y-60929761D01*
X115541576Y-60869285D01*
X115602052Y-60748333D01*
X115723004Y-60687857D01*
X115904433Y-60687857D01*
X116025385Y-60748333D01*
X116569671Y-61474047D02*
X116690623Y-61534523D01*
X116932528Y-61534523D01*
X117053480Y-61474047D01*
X117113957Y-61353095D01*
X117113957Y-61292619D01*
X117053480Y-61171666D01*
X116932528Y-61111190D01*
X116751100Y-61111190D01*
X116630147Y-61050714D01*
X116569671Y-60929761D01*
X116569671Y-60869285D01*
X116630147Y-60748333D01*
X116751100Y-60687857D01*
X116932528Y-60687857D01*
X117053480Y-60748333D01*
X119049195Y-60869285D02*
X118625861Y-60869285D01*
X118625861Y-61534523D02*
X118625861Y-60264523D01*
X119230623Y-60264523D01*
X119714433Y-61534523D02*
X119714433Y-60687857D01*
X119714433Y-60264523D02*
X119653957Y-60325000D01*
X119714433Y-60385476D01*
X119774909Y-60325000D01*
X119714433Y-60264523D01*
X119714433Y-60385476D01*
X120500623Y-61534523D02*
X120379671Y-61474047D01*
X120319195Y-61353095D01*
X120319195Y-60264523D01*
X120803004Y-60687857D02*
X121286814Y-60687857D01*
X120984433Y-60264523D02*
X120984433Y-61353095D01*
X121044909Y-61474047D01*
X121165861Y-61534523D01*
X121286814Y-61534523D01*
X122193957Y-61474047D02*
X122073004Y-61534523D01*
X121831100Y-61534523D01*
X121710147Y-61474047D01*
X121649671Y-61353095D01*
X121649671Y-60869285D01*
X121710147Y-60748333D01*
X121831100Y-60687857D01*
X122073004Y-60687857D01*
X122193957Y-60748333D01*
X122254433Y-60869285D01*
X122254433Y-60990238D01*
X121649671Y-61111190D01*
X122798719Y-61534523D02*
X122798719Y-60687857D01*
X122798719Y-60929761D02*
X122859195Y-60808809D01*
X122919671Y-60748333D01*
X123040623Y-60687857D01*
X123161576Y-60687857D01*
D11*
X115341400Y-116941600D02*
X115392200Y-116865400D01*
X115468400Y-116967000D02*
X115341400Y-116941600D01*
D12*
X115443000Y-116713000D02*
X115468400Y-116967000D01*
X115189000Y-116967000D02*
X115316000Y-116840000D01*
X115570000Y-117094000D02*
X115189000Y-116967000D01*
X115443000Y-116713000D02*
X115570000Y-117094000D01*
X115316000Y-116840000D02*
X115443000Y-116713000D01*
X114935000Y-116459000D02*
X115316000Y-116840000D01*
D11*
X131826000Y-110744000D02*
X187452000Y-110744000D01*
X95504000Y-110744000D02*
X110744000Y-110744000D01*
X187452000Y-85344000D02*
X95504000Y-85344000D01*
X162560000Y-88138000D02*
X187452000Y-88138000D01*
X187452000Y-108204000D02*
X162560000Y-108204000D01*
D13*
%TO.C,U501*%
X146558320Y-96098360D02*
X146558320Y-99548360D01*
X146558320Y-96098360D02*
X146558320Y-94148360D01*
X151678320Y-96098360D02*
X151678320Y-98048360D01*
X151678320Y-96098360D02*
X151678320Y-94148360D01*
%TO.C,U401*%
X117297200Y-103956800D02*
X120747200Y-103956800D01*
X117297200Y-103956800D02*
X115347200Y-103956800D01*
X117297200Y-98836800D02*
X119247200Y-98836800D01*
X117297200Y-98836800D02*
X115347200Y-98836800D01*
%TO.C,R507*%
X153274500Y-101980276D02*
X153274500Y-102489724D01*
X154319500Y-101980276D02*
X154319500Y-102489724D01*
%TO.C,R506*%
X158637500Y-102489724D02*
X158637500Y-101980276D01*
X157592500Y-102489724D02*
X157592500Y-101980276D01*
%TO.C,R505*%
X157099724Y-94727500D02*
X156590276Y-94727500D01*
X157099724Y-95772500D02*
X156590276Y-95772500D01*
%TO.C,R504*%
X151024044Y-102687860D02*
X150514596Y-102687860D01*
X151024044Y-103732860D02*
X150514596Y-103732860D01*
%TO.C,R503*%
X150514596Y-101700860D02*
X151024044Y-101700860D01*
X150514596Y-100655860D02*
X151024044Y-100655860D01*
%TO.C,R502*%
X145166820Y-101939636D02*
X145166820Y-102449084D01*
X146211820Y-101939636D02*
X146211820Y-102449084D01*
%TO.C,R501*%
X144179820Y-102449084D02*
X144179820Y-101939636D01*
X143134820Y-102449084D02*
X143134820Y-101939636D01*
%TO.C,R407*%
X125425924Y-110399300D02*
X124916476Y-110399300D01*
X125425924Y-111444300D02*
X124916476Y-111444300D01*
%TO.C,R406*%
X121600700Y-109651076D02*
X121600700Y-110160524D01*
X122645700Y-109651076D02*
X122645700Y-110160524D01*
%TO.C,R405*%
X116930700Y-108763524D02*
X116930700Y-108254076D01*
X115885700Y-108763524D02*
X115885700Y-108254076D01*
%TO.C,R404*%
X123937500Y-99440276D02*
X123937500Y-99949724D01*
X124982500Y-99440276D02*
X124982500Y-99949724D01*
%TO.C,R403*%
X122950500Y-99949724D02*
X122950500Y-99440276D01*
X121905500Y-99949724D02*
X121905500Y-99440276D01*
%TO.C,R402*%
X123011476Y-105297500D02*
X123520924Y-105297500D01*
X123011476Y-104252500D02*
X123520924Y-104252500D01*
%TO.C,R401*%
X123520924Y-106284500D02*
X123011476Y-106284500D01*
X123520924Y-107329500D02*
X123011476Y-107329500D01*
%TO.C,R301*%
X163624344Y-94666540D02*
X163114896Y-94666540D01*
X163624344Y-95711540D02*
X163114896Y-95711540D01*
%TO.C,R201*%
X118529824Y-114717300D02*
X118020376Y-114717300D01*
X118529824Y-115762300D02*
X118020376Y-115762300D01*
%TO.C,Q301*%
X167550940Y-98758860D02*
X168800940Y-98758860D01*
X166765940Y-96398860D02*
X168800940Y-96398860D01*
%TO.C,Q201*%
X120456800Y-118205100D02*
X121706800Y-118205100D01*
X119671800Y-115845100D02*
X121706800Y-115845100D01*
%TO.C,L305*%
X170578040Y-100148936D02*
X170578040Y-100658384D01*
X169533040Y-100148936D02*
X169533040Y-100658384D01*
%TO.C,L304*%
X170730456Y-96558840D02*
X171239904Y-96558840D01*
X170730456Y-97603840D02*
X171239904Y-97603840D01*
%TO.C,L303*%
X165623964Y-98558880D02*
X165114516Y-98558880D01*
X165623964Y-97513880D02*
X165114516Y-97513880D01*
%TO.C,L302*%
X166420884Y-96658960D02*
X165911436Y-96658960D01*
X166420884Y-95613960D02*
X165911436Y-95613960D01*
%TO.C,L301*%
X163623084Y-96658960D02*
X163113636Y-96658960D01*
X163623084Y-95613960D02*
X163113636Y-95613960D01*
%TO.C,L203*%
X123378700Y-117185524D02*
X123378700Y-116676076D01*
X124423700Y-117185524D02*
X124423700Y-116676076D01*
%TO.C,L202*%
X115885700Y-114590924D02*
X115885700Y-114081476D01*
X116930700Y-114590924D02*
X116930700Y-114081476D01*
%TO.C,L201*%
X116930700Y-119673276D02*
X116930700Y-120182724D01*
X115885700Y-119673276D02*
X115885700Y-120182724D01*
%TO.C,J106*%
X181311800Y-98501200D02*
X180811800Y-98751200D01*
X180811800Y-98751200D02*
X180811800Y-98251200D01*
X180811800Y-98251200D02*
X181311800Y-98501200D01*
%TO.C,J105*%
X181311800Y-118110000D02*
X180811800Y-118360000D01*
X180811800Y-118360000D02*
X180811800Y-117860000D01*
X180811800Y-117860000D02*
X181311800Y-118110000D01*
%TO.C,J104*%
X181311800Y-66294000D02*
X180811800Y-66544000D01*
X180811800Y-66544000D02*
X180811800Y-66044000D01*
X180811800Y-66044000D02*
X181311800Y-66294000D01*
%TO.C,J103*%
X101314000Y-118110000D02*
X101814000Y-117860000D01*
X101814000Y-117860000D02*
X101814000Y-118360000D01*
X101814000Y-118360000D02*
X101314000Y-118110000D01*
%TO.C,J102*%
X101314000Y-77978000D02*
X101814000Y-77728000D01*
X101814000Y-77728000D02*
X101814000Y-78228000D01*
X101814000Y-78228000D02*
X101314000Y-77978000D01*
%TO.C,J101*%
X95196000Y-94406000D02*
X95196000Y-94806000D01*
X95836000Y-94406000D02*
X95196000Y-94406000D01*
X102176000Y-100426000D02*
X95436000Y-100426000D01*
X102176000Y-94646000D02*
X95436000Y-94646000D01*
X95436000Y-94646000D02*
X95436000Y-100426000D01*
X102176000Y-94646000D02*
X102176000Y-100426000D01*
X101056000Y-94646000D02*
X101056000Y-100426000D01*
X95956000Y-94646000D02*
X95956000Y-100426000D01*
%TO.C,C504*%
X155433500Y-101980276D02*
X155433500Y-102489724D01*
X156478500Y-101980276D02*
X156478500Y-102489724D01*
%TO.C,C503*%
X149627044Y-90495860D02*
X149117596Y-90495860D01*
X149627044Y-91540860D02*
X149117596Y-91540860D01*
%TO.C,C502*%
X152639500Y-95843636D02*
X152639500Y-96353084D01*
X153684500Y-95843636D02*
X153684500Y-96353084D01*
%TO.C,C501*%
X148243820Y-102449084D02*
X148243820Y-101939636D01*
X147198820Y-102449084D02*
X147198820Y-101939636D01*
%TO.C,C404*%
X125425924Y-108367300D02*
X124916476Y-108367300D01*
X125425924Y-109412300D02*
X124916476Y-109412300D01*
%TO.C,C403*%
X111694700Y-100824576D02*
X111694700Y-101334024D01*
X112739700Y-100824576D02*
X112739700Y-101334024D01*
%TO.C,C402*%
X117042476Y-105983300D02*
X117551924Y-105983300D01*
X117042476Y-104938300D02*
X117551924Y-104938300D01*
%TO.C,C401*%
X123520924Y-102144300D02*
X123011476Y-102144300D01*
X123520924Y-103189300D02*
X123011476Y-103189300D01*
%TO.C,C305*%
X171234824Y-98009180D02*
X170725376Y-98009180D01*
X171234824Y-99054180D02*
X170725376Y-99054180D01*
%TO.C,C304*%
X171672796Y-101848180D02*
X172182244Y-101848180D01*
X171672796Y-100803180D02*
X172182244Y-100803180D01*
%TO.C,C301*%
X162968200Y-93569244D02*
X162968200Y-93059796D01*
X161923200Y-93569244D02*
X161923200Y-93059796D01*
%TO.C,C205*%
X123483900Y-119012424D02*
X123483900Y-118502976D01*
X122438900Y-119012424D02*
X122438900Y-118502976D01*
%TO.C,C204*%
X125513376Y-116549700D02*
X126022824Y-116549700D01*
X125513376Y-115504700D02*
X126022824Y-115504700D01*
%TO.C,C203*%
X118529824Y-115657100D02*
X118020376Y-115657100D01*
X118529824Y-116702100D02*
X118020376Y-116702100D01*
%TO.C,C202*%
X114797924Y-112888500D02*
X114288476Y-112888500D01*
X114797924Y-113933500D02*
X114288476Y-113933500D01*
%TO.C,C201*%
X115885700Y-116879276D02*
X115885700Y-117388724D01*
X116930700Y-116879276D02*
X116930700Y-117388724D01*
%TO.C,C303*%
D14*
X168446272Y-91035142D02*
X168398653Y-91082761D01*
X168255796Y-91130380D01*
X168160558Y-91130380D01*
X168017700Y-91082761D01*
X167922462Y-90987523D01*
X167874843Y-90892285D01*
X167827224Y-90701809D01*
X167827224Y-90558952D01*
X167874843Y-90368476D01*
X167922462Y-90273238D01*
X168017700Y-90178000D01*
X168160558Y-90130380D01*
X168255796Y-90130380D01*
X168398653Y-90178000D01*
X168446272Y-90225619D01*
X168779605Y-90130380D02*
X169398653Y-90130380D01*
X169065320Y-90511333D01*
X169208177Y-90511333D01*
X169303415Y-90558952D01*
X169351034Y-90606571D01*
X169398653Y-90701809D01*
X169398653Y-90939904D01*
X169351034Y-91035142D01*
X169303415Y-91082761D01*
X169208177Y-91130380D01*
X168922462Y-91130380D01*
X168827224Y-91082761D01*
X168779605Y-91035142D01*
X170017700Y-90130380D02*
X170112939Y-90130380D01*
X170208177Y-90178000D01*
X170255796Y-90225619D01*
X170303415Y-90320857D01*
X170351034Y-90511333D01*
X170351034Y-90749428D01*
X170303415Y-90939904D01*
X170255796Y-91035142D01*
X170208177Y-91082761D01*
X170112939Y-91130380D01*
X170017700Y-91130380D01*
X169922462Y-91082761D01*
X169874843Y-91035142D01*
X169827224Y-90939904D01*
X169779605Y-90749428D01*
X169779605Y-90511333D01*
X169827224Y-90320857D01*
X169874843Y-90225619D01*
X169922462Y-90178000D01*
X170017700Y-90130380D01*
X170684367Y-90130380D02*
X171303415Y-90130380D01*
X170970081Y-90511333D01*
X171112939Y-90511333D01*
X171208177Y-90558952D01*
X171255796Y-90606571D01*
X171303415Y-90701809D01*
X171303415Y-90939904D01*
X171255796Y-91035142D01*
X171208177Y-91082761D01*
X171112939Y-91130380D01*
X170827224Y-91130380D01*
X170731986Y-91082761D01*
X170684367Y-91035142D01*
%TO.C,C302*%
X165631952Y-104624142D02*
X165584333Y-104671761D01*
X165441476Y-104719380D01*
X165346238Y-104719380D01*
X165203380Y-104671761D01*
X165108142Y-104576523D01*
X165060523Y-104481285D01*
X165012904Y-104290809D01*
X165012904Y-104147952D01*
X165060523Y-103957476D01*
X165108142Y-103862238D01*
X165203380Y-103767000D01*
X165346238Y-103719380D01*
X165441476Y-103719380D01*
X165584333Y-103767000D01*
X165631952Y-103814619D01*
X165965285Y-103719380D02*
X166584333Y-103719380D01*
X166251000Y-104100333D01*
X166393857Y-104100333D01*
X166489095Y-104147952D01*
X166536714Y-104195571D01*
X166584333Y-104290809D01*
X166584333Y-104528904D01*
X166536714Y-104624142D01*
X166489095Y-104671761D01*
X166393857Y-104719380D01*
X166108142Y-104719380D01*
X166012904Y-104671761D01*
X165965285Y-104624142D01*
X167203380Y-103719380D02*
X167298619Y-103719380D01*
X167393857Y-103767000D01*
X167441476Y-103814619D01*
X167489095Y-103909857D01*
X167536714Y-104100333D01*
X167536714Y-104338428D01*
X167489095Y-104528904D01*
X167441476Y-104624142D01*
X167393857Y-104671761D01*
X167298619Y-104719380D01*
X167203380Y-104719380D01*
X167108142Y-104671761D01*
X167060523Y-104624142D01*
X167012904Y-104528904D01*
X166965285Y-104338428D01*
X166965285Y-104100333D01*
X167012904Y-103909857D01*
X167060523Y-103814619D01*
X167108142Y-103767000D01*
X167203380Y-103719380D01*
X167917666Y-103814619D02*
X167965285Y-103767000D01*
X168060523Y-103719380D01*
X168298619Y-103719380D01*
X168393857Y-103767000D01*
X168441476Y-103814619D01*
X168489095Y-103909857D01*
X168489095Y-104005095D01*
X168441476Y-104147952D01*
X167870047Y-104719380D01*
X168489095Y-104719380D01*
%TO.C,FL101*%
X106259523Y-75112571D02*
X105926190Y-75112571D01*
X105926190Y-75636380D02*
X105926190Y-74636380D01*
X106402380Y-74636380D01*
X107259523Y-75636380D02*
X106783333Y-75636380D01*
X106783333Y-74636380D01*
X108116666Y-75636380D02*
X107545238Y-75636380D01*
X107830952Y-75636380D02*
X107830952Y-74636380D01*
X107735714Y-74779238D01*
X107640476Y-74874476D01*
X107545238Y-74922095D01*
X108735714Y-74636380D02*
X108830952Y-74636380D01*
X108926190Y-74684000D01*
X108973809Y-74731619D01*
X109021428Y-74826857D01*
X109069047Y-75017333D01*
X109069047Y-75255428D01*
X109021428Y-75445904D01*
X108973809Y-75541142D01*
X108926190Y-75588761D01*
X108830952Y-75636380D01*
X108735714Y-75636380D01*
X108640476Y-75588761D01*
X108592857Y-75541142D01*
X108545238Y-75445904D01*
X108497619Y-75255428D01*
X108497619Y-75017333D01*
X108545238Y-74826857D01*
X108592857Y-74731619D01*
X108640476Y-74684000D01*
X108735714Y-74636380D01*
X110021428Y-75636380D02*
X109450000Y-75636380D01*
X109735714Y-75636380D02*
X109735714Y-74636380D01*
X109640476Y-74779238D01*
X109545238Y-74874476D01*
X109450000Y-74922095D01*
%TO.C,U501*%
X145170700Y-97812645D02*
X145980224Y-97812645D01*
X146075462Y-97765026D01*
X146123081Y-97717407D01*
X146170700Y-97622169D01*
X146170700Y-97431693D01*
X146123081Y-97336455D01*
X146075462Y-97288836D01*
X145980224Y-97241217D01*
X145170700Y-97241217D01*
X145170700Y-96288836D02*
X145170700Y-96765026D01*
X145646891Y-96812645D01*
X145599272Y-96765026D01*
X145551653Y-96669788D01*
X145551653Y-96431693D01*
X145599272Y-96336455D01*
X145646891Y-96288836D01*
X145742129Y-96241217D01*
X145980224Y-96241217D01*
X146075462Y-96288836D01*
X146123081Y-96336455D01*
X146170700Y-96431693D01*
X146170700Y-96669788D01*
X146123081Y-96765026D01*
X146075462Y-96812645D01*
X145170700Y-95622169D02*
X145170700Y-95526931D01*
X145218320Y-95431693D01*
X145265939Y-95384074D01*
X145361177Y-95336455D01*
X145551653Y-95288836D01*
X145789748Y-95288836D01*
X145980224Y-95336455D01*
X146075462Y-95384074D01*
X146123081Y-95431693D01*
X146170700Y-95526931D01*
X146170700Y-95622169D01*
X146123081Y-95717407D01*
X146075462Y-95765026D01*
X145980224Y-95812645D01*
X145789748Y-95860264D01*
X145551653Y-95860264D01*
X145361177Y-95812645D01*
X145265939Y-95765026D01*
X145218320Y-95717407D01*
X145170700Y-95622169D01*
X146170700Y-94336455D02*
X146170700Y-94907883D01*
X146170700Y-94622169D02*
X145170700Y-94622169D01*
X145313558Y-94717407D01*
X145408796Y-94812645D01*
X145456415Y-94907883D01*
%TO.C,U401*%
X115633714Y-97242380D02*
X115633714Y-98051904D01*
X115681333Y-98147142D01*
X115728952Y-98194761D01*
X115824190Y-98242380D01*
X116014666Y-98242380D01*
X116109904Y-98194761D01*
X116157523Y-98147142D01*
X116205142Y-98051904D01*
X116205142Y-97242380D01*
X117109904Y-97575714D02*
X117109904Y-98242380D01*
X116871809Y-97194761D02*
X116633714Y-97909047D01*
X117252761Y-97909047D01*
X117824190Y-97242380D02*
X117919428Y-97242380D01*
X118014666Y-97290000D01*
X118062285Y-97337619D01*
X118109904Y-97432857D01*
X118157523Y-97623333D01*
X118157523Y-97861428D01*
X118109904Y-98051904D01*
X118062285Y-98147142D01*
X118014666Y-98194761D01*
X117919428Y-98242380D01*
X117824190Y-98242380D01*
X117728952Y-98194761D01*
X117681333Y-98147142D01*
X117633714Y-98051904D01*
X117586095Y-97861428D01*
X117586095Y-97623333D01*
X117633714Y-97432857D01*
X117681333Y-97337619D01*
X117728952Y-97290000D01*
X117824190Y-97242380D01*
X119109904Y-98242380D02*
X118538476Y-98242380D01*
X118824190Y-98242380D02*
X118824190Y-97242380D01*
X118728952Y-97385238D01*
X118633714Y-97480476D01*
X118538476Y-97528095D01*
%TO.C,R507*%
X154249380Y-107164047D02*
X153773190Y-107497380D01*
X154249380Y-107735476D02*
X153249380Y-107735476D01*
X153249380Y-107354523D01*
X153297000Y-107259285D01*
X153344619Y-107211666D01*
X153439857Y-107164047D01*
X153582714Y-107164047D01*
X153677952Y-107211666D01*
X153725571Y-107259285D01*
X153773190Y-107354523D01*
X153773190Y-107735476D01*
X153249380Y-106259285D02*
X153249380Y-106735476D01*
X153725571Y-106783095D01*
X153677952Y-106735476D01*
X153630333Y-106640238D01*
X153630333Y-106402142D01*
X153677952Y-106306904D01*
X153725571Y-106259285D01*
X153820809Y-106211666D01*
X154058904Y-106211666D01*
X154154142Y-106259285D01*
X154201761Y-106306904D01*
X154249380Y-106402142D01*
X154249380Y-106640238D01*
X154201761Y-106735476D01*
X154154142Y-106783095D01*
X153249380Y-105592619D02*
X153249380Y-105497380D01*
X153297000Y-105402142D01*
X153344619Y-105354523D01*
X153439857Y-105306904D01*
X153630333Y-105259285D01*
X153868428Y-105259285D01*
X154058904Y-105306904D01*
X154154142Y-105354523D01*
X154201761Y-105402142D01*
X154249380Y-105497380D01*
X154249380Y-105592619D01*
X154201761Y-105687857D01*
X154154142Y-105735476D01*
X154058904Y-105783095D01*
X153868428Y-105830714D01*
X153630333Y-105830714D01*
X153439857Y-105783095D01*
X153344619Y-105735476D01*
X153297000Y-105687857D01*
X153249380Y-105592619D01*
X153249380Y-104925952D02*
X153249380Y-104259285D01*
X154249380Y-104687857D01*
%TO.C,R506*%
X158567380Y-107164047D02*
X158091190Y-107497380D01*
X158567380Y-107735476D02*
X157567380Y-107735476D01*
X157567380Y-107354523D01*
X157615000Y-107259285D01*
X157662619Y-107211666D01*
X157757857Y-107164047D01*
X157900714Y-107164047D01*
X157995952Y-107211666D01*
X158043571Y-107259285D01*
X158091190Y-107354523D01*
X158091190Y-107735476D01*
X157567380Y-106259285D02*
X157567380Y-106735476D01*
X158043571Y-106783095D01*
X157995952Y-106735476D01*
X157948333Y-106640238D01*
X157948333Y-106402142D01*
X157995952Y-106306904D01*
X158043571Y-106259285D01*
X158138809Y-106211666D01*
X158376904Y-106211666D01*
X158472142Y-106259285D01*
X158519761Y-106306904D01*
X158567380Y-106402142D01*
X158567380Y-106640238D01*
X158519761Y-106735476D01*
X158472142Y-106783095D01*
X157567380Y-105592619D02*
X157567380Y-105497380D01*
X157615000Y-105402142D01*
X157662619Y-105354523D01*
X157757857Y-105306904D01*
X157948333Y-105259285D01*
X158186428Y-105259285D01*
X158376904Y-105306904D01*
X158472142Y-105354523D01*
X158519761Y-105402142D01*
X158567380Y-105497380D01*
X158567380Y-105592619D01*
X158519761Y-105687857D01*
X158472142Y-105735476D01*
X158376904Y-105783095D01*
X158186428Y-105830714D01*
X157948333Y-105830714D01*
X157757857Y-105783095D01*
X157662619Y-105735476D01*
X157615000Y-105687857D01*
X157567380Y-105592619D01*
X157567380Y-104402142D02*
X157567380Y-104592619D01*
X157615000Y-104687857D01*
X157662619Y-104735476D01*
X157805476Y-104830714D01*
X157995952Y-104878333D01*
X158376904Y-104878333D01*
X158472142Y-104830714D01*
X158519761Y-104783095D01*
X158567380Y-104687857D01*
X158567380Y-104497380D01*
X158519761Y-104402142D01*
X158472142Y-104354523D01*
X158376904Y-104306904D01*
X158138809Y-104306904D01*
X158043571Y-104354523D01*
X157995952Y-104402142D01*
X157948333Y-104497380D01*
X157948333Y-104687857D01*
X157995952Y-104783095D01*
X158043571Y-104830714D01*
X158138809Y-104878333D01*
%TO.C,R505*%
X155725952Y-94178380D02*
X155392619Y-93702190D01*
X155154523Y-94178380D02*
X155154523Y-93178380D01*
X155535476Y-93178380D01*
X155630714Y-93226000D01*
X155678333Y-93273619D01*
X155725952Y-93368857D01*
X155725952Y-93511714D01*
X155678333Y-93606952D01*
X155630714Y-93654571D01*
X155535476Y-93702190D01*
X155154523Y-93702190D01*
X156630714Y-93178380D02*
X156154523Y-93178380D01*
X156106904Y-93654571D01*
X156154523Y-93606952D01*
X156249761Y-93559333D01*
X156487857Y-93559333D01*
X156583095Y-93606952D01*
X156630714Y-93654571D01*
X156678333Y-93749809D01*
X156678333Y-93987904D01*
X156630714Y-94083142D01*
X156583095Y-94130761D01*
X156487857Y-94178380D01*
X156249761Y-94178380D01*
X156154523Y-94130761D01*
X156106904Y-94083142D01*
X157297380Y-93178380D02*
X157392619Y-93178380D01*
X157487857Y-93226000D01*
X157535476Y-93273619D01*
X157583095Y-93368857D01*
X157630714Y-93559333D01*
X157630714Y-93797428D01*
X157583095Y-93987904D01*
X157535476Y-94083142D01*
X157487857Y-94130761D01*
X157392619Y-94178380D01*
X157297380Y-94178380D01*
X157202142Y-94130761D01*
X157154523Y-94083142D01*
X157106904Y-93987904D01*
X157059285Y-93797428D01*
X157059285Y-93559333D01*
X157106904Y-93368857D01*
X157154523Y-93273619D01*
X157202142Y-93226000D01*
X157297380Y-93178380D01*
X158535476Y-93178380D02*
X158059285Y-93178380D01*
X158011666Y-93654571D01*
X158059285Y-93606952D01*
X158154523Y-93559333D01*
X158392619Y-93559333D01*
X158487857Y-93606952D01*
X158535476Y-93654571D01*
X158583095Y-93749809D01*
X158583095Y-93987904D01*
X158535476Y-94083142D01*
X158487857Y-94130761D01*
X158392619Y-94178380D01*
X158154523Y-94178380D01*
X158059285Y-94130761D01*
X158011666Y-94083142D01*
%TO.C,R504*%
X149650272Y-106878380D02*
X149316939Y-106402190D01*
X149078843Y-106878380D02*
X149078843Y-105878380D01*
X149459796Y-105878380D01*
X149555034Y-105926000D01*
X149602653Y-105973619D01*
X149650272Y-106068857D01*
X149650272Y-106211714D01*
X149602653Y-106306952D01*
X149555034Y-106354571D01*
X149459796Y-106402190D01*
X149078843Y-106402190D01*
X150555034Y-105878380D02*
X150078843Y-105878380D01*
X150031224Y-106354571D01*
X150078843Y-106306952D01*
X150174081Y-106259333D01*
X150412177Y-106259333D01*
X150507415Y-106306952D01*
X150555034Y-106354571D01*
X150602653Y-106449809D01*
X150602653Y-106687904D01*
X150555034Y-106783142D01*
X150507415Y-106830761D01*
X150412177Y-106878380D01*
X150174081Y-106878380D01*
X150078843Y-106830761D01*
X150031224Y-106783142D01*
X151221700Y-105878380D02*
X151316939Y-105878380D01*
X151412177Y-105926000D01*
X151459796Y-105973619D01*
X151507415Y-106068857D01*
X151555034Y-106259333D01*
X151555034Y-106497428D01*
X151507415Y-106687904D01*
X151459796Y-106783142D01*
X151412177Y-106830761D01*
X151316939Y-106878380D01*
X151221700Y-106878380D01*
X151126462Y-106830761D01*
X151078843Y-106783142D01*
X151031224Y-106687904D01*
X150983605Y-106497428D01*
X150983605Y-106259333D01*
X151031224Y-106068857D01*
X151078843Y-105973619D01*
X151126462Y-105926000D01*
X151221700Y-105878380D01*
X152412177Y-106211714D02*
X152412177Y-106878380D01*
X152174081Y-105830761D02*
X151935986Y-106545047D01*
X152555034Y-106545047D01*
%TO.C,R503*%
X149650272Y-105354380D02*
X149316939Y-104878190D01*
X149078843Y-105354380D02*
X149078843Y-104354380D01*
X149459796Y-104354380D01*
X149555034Y-104402000D01*
X149602653Y-104449619D01*
X149650272Y-104544857D01*
X149650272Y-104687714D01*
X149602653Y-104782952D01*
X149555034Y-104830571D01*
X149459796Y-104878190D01*
X149078843Y-104878190D01*
X150555034Y-104354380D02*
X150078843Y-104354380D01*
X150031224Y-104830571D01*
X150078843Y-104782952D01*
X150174081Y-104735333D01*
X150412177Y-104735333D01*
X150507415Y-104782952D01*
X150555034Y-104830571D01*
X150602653Y-104925809D01*
X150602653Y-105163904D01*
X150555034Y-105259142D01*
X150507415Y-105306761D01*
X150412177Y-105354380D01*
X150174081Y-105354380D01*
X150078843Y-105306761D01*
X150031224Y-105259142D01*
X151221700Y-104354380D02*
X151316939Y-104354380D01*
X151412177Y-104402000D01*
X151459796Y-104449619D01*
X151507415Y-104544857D01*
X151555034Y-104735333D01*
X151555034Y-104973428D01*
X151507415Y-105163904D01*
X151459796Y-105259142D01*
X151412177Y-105306761D01*
X151316939Y-105354380D01*
X151221700Y-105354380D01*
X151126462Y-105306761D01*
X151078843Y-105259142D01*
X151031224Y-105163904D01*
X150983605Y-104973428D01*
X150983605Y-104735333D01*
X151031224Y-104544857D01*
X151078843Y-104449619D01*
X151126462Y-104402000D01*
X151221700Y-104354380D01*
X151888367Y-104354380D02*
X152507415Y-104354380D01*
X152174081Y-104735333D01*
X152316939Y-104735333D01*
X152412177Y-104782952D01*
X152459796Y-104830571D01*
X152507415Y-104925809D01*
X152507415Y-105163904D01*
X152459796Y-105259142D01*
X152412177Y-105306761D01*
X152316939Y-105354380D01*
X152031224Y-105354380D01*
X151935986Y-105306761D01*
X151888367Y-105259142D01*
%TO.C,R502*%
X146121380Y-107164047D02*
X145645190Y-107497380D01*
X146121380Y-107735476D02*
X145121380Y-107735476D01*
X145121380Y-107354523D01*
X145169000Y-107259285D01*
X145216619Y-107211666D01*
X145311857Y-107164047D01*
X145454714Y-107164047D01*
X145549952Y-107211666D01*
X145597571Y-107259285D01*
X145645190Y-107354523D01*
X145645190Y-107735476D01*
X145121380Y-106259285D02*
X145121380Y-106735476D01*
X145597571Y-106783095D01*
X145549952Y-106735476D01*
X145502333Y-106640238D01*
X145502333Y-106402142D01*
X145549952Y-106306904D01*
X145597571Y-106259285D01*
X145692809Y-106211666D01*
X145930904Y-106211666D01*
X146026142Y-106259285D01*
X146073761Y-106306904D01*
X146121380Y-106402142D01*
X146121380Y-106640238D01*
X146073761Y-106735476D01*
X146026142Y-106783095D01*
X145121380Y-105592619D02*
X145121380Y-105497380D01*
X145169000Y-105402142D01*
X145216619Y-105354523D01*
X145311857Y-105306904D01*
X145502333Y-105259285D01*
X145740428Y-105259285D01*
X145930904Y-105306904D01*
X146026142Y-105354523D01*
X146073761Y-105402142D01*
X146121380Y-105497380D01*
X146121380Y-105592619D01*
X146073761Y-105687857D01*
X146026142Y-105735476D01*
X145930904Y-105783095D01*
X145740428Y-105830714D01*
X145502333Y-105830714D01*
X145311857Y-105783095D01*
X145216619Y-105735476D01*
X145169000Y-105687857D01*
X145121380Y-105592619D01*
X145216619Y-104878333D02*
X145169000Y-104830714D01*
X145121380Y-104735476D01*
X145121380Y-104497380D01*
X145169000Y-104402142D01*
X145216619Y-104354523D01*
X145311857Y-104306904D01*
X145407095Y-104306904D01*
X145549952Y-104354523D01*
X146121380Y-104925952D01*
X146121380Y-104306904D01*
%TO.C,R501*%
X144089380Y-107164047D02*
X143613190Y-107497380D01*
X144089380Y-107735476D02*
X143089380Y-107735476D01*
X143089380Y-107354523D01*
X143137000Y-107259285D01*
X143184619Y-107211666D01*
X143279857Y-107164047D01*
X143422714Y-107164047D01*
X143517952Y-107211666D01*
X143565571Y-107259285D01*
X143613190Y-107354523D01*
X143613190Y-107735476D01*
X143089380Y-106259285D02*
X143089380Y-106735476D01*
X143565571Y-106783095D01*
X143517952Y-106735476D01*
X143470333Y-106640238D01*
X143470333Y-106402142D01*
X143517952Y-106306904D01*
X143565571Y-106259285D01*
X143660809Y-106211666D01*
X143898904Y-106211666D01*
X143994142Y-106259285D01*
X144041761Y-106306904D01*
X144089380Y-106402142D01*
X144089380Y-106640238D01*
X144041761Y-106735476D01*
X143994142Y-106783095D01*
X143089380Y-105592619D02*
X143089380Y-105497380D01*
X143137000Y-105402142D01*
X143184619Y-105354523D01*
X143279857Y-105306904D01*
X143470333Y-105259285D01*
X143708428Y-105259285D01*
X143898904Y-105306904D01*
X143994142Y-105354523D01*
X144041761Y-105402142D01*
X144089380Y-105497380D01*
X144089380Y-105592619D01*
X144041761Y-105687857D01*
X143994142Y-105735476D01*
X143898904Y-105783095D01*
X143708428Y-105830714D01*
X143470333Y-105830714D01*
X143279857Y-105783095D01*
X143184619Y-105735476D01*
X143137000Y-105687857D01*
X143089380Y-105592619D01*
X144089380Y-104306904D02*
X144089380Y-104878333D01*
X144089380Y-104592619D02*
X143089380Y-104592619D01*
X143232238Y-104687857D01*
X143327476Y-104783095D01*
X143375095Y-104878333D01*
%TO.C,R407*%
X127658952Y-111323380D02*
X127325619Y-110847190D01*
X127087523Y-111323380D02*
X127087523Y-110323380D01*
X127468476Y-110323380D01*
X127563714Y-110371000D01*
X127611333Y-110418619D01*
X127658952Y-110513857D01*
X127658952Y-110656714D01*
X127611333Y-110751952D01*
X127563714Y-110799571D01*
X127468476Y-110847190D01*
X127087523Y-110847190D01*
X128516095Y-110656714D02*
X128516095Y-111323380D01*
X128278000Y-110275761D02*
X128039904Y-110990047D01*
X128658952Y-110990047D01*
X129230380Y-110323380D02*
X129325619Y-110323380D01*
X129420857Y-110371000D01*
X129468476Y-110418619D01*
X129516095Y-110513857D01*
X129563714Y-110704333D01*
X129563714Y-110942428D01*
X129516095Y-111132904D01*
X129468476Y-111228142D01*
X129420857Y-111275761D01*
X129325619Y-111323380D01*
X129230380Y-111323380D01*
X129135142Y-111275761D01*
X129087523Y-111228142D01*
X129039904Y-111132904D01*
X128992285Y-110942428D01*
X128992285Y-110704333D01*
X129039904Y-110513857D01*
X129087523Y-110418619D01*
X129135142Y-110371000D01*
X129230380Y-110323380D01*
X129897047Y-110323380D02*
X130563714Y-110323380D01*
X130135142Y-111323380D01*
%TO.C,R406*%
X118387952Y-110307380D02*
X118054619Y-109831190D01*
X117816523Y-110307380D02*
X117816523Y-109307380D01*
X118197476Y-109307380D01*
X118292714Y-109355000D01*
X118340333Y-109402619D01*
X118387952Y-109497857D01*
X118387952Y-109640714D01*
X118340333Y-109735952D01*
X118292714Y-109783571D01*
X118197476Y-109831190D01*
X117816523Y-109831190D01*
X119245095Y-109640714D02*
X119245095Y-110307380D01*
X119007000Y-109259761D02*
X118768904Y-109974047D01*
X119387952Y-109974047D01*
X119959380Y-109307380D02*
X120054619Y-109307380D01*
X120149857Y-109355000D01*
X120197476Y-109402619D01*
X120245095Y-109497857D01*
X120292714Y-109688333D01*
X120292714Y-109926428D01*
X120245095Y-110116904D01*
X120197476Y-110212142D01*
X120149857Y-110259761D01*
X120054619Y-110307380D01*
X119959380Y-110307380D01*
X119864142Y-110259761D01*
X119816523Y-110212142D01*
X119768904Y-110116904D01*
X119721285Y-109926428D01*
X119721285Y-109688333D01*
X119768904Y-109497857D01*
X119816523Y-109402619D01*
X119864142Y-109355000D01*
X119959380Y-109307380D01*
X121149857Y-109307380D02*
X120959380Y-109307380D01*
X120864142Y-109355000D01*
X120816523Y-109402619D01*
X120721285Y-109545476D01*
X120673666Y-109735952D01*
X120673666Y-110116904D01*
X120721285Y-110212142D01*
X120768904Y-110259761D01*
X120864142Y-110307380D01*
X121054619Y-110307380D01*
X121149857Y-110259761D01*
X121197476Y-110212142D01*
X121245095Y-110116904D01*
X121245095Y-109878809D01*
X121197476Y-109783571D01*
X121149857Y-109735952D01*
X121054619Y-109688333D01*
X120864142Y-109688333D01*
X120768904Y-109735952D01*
X120721285Y-109783571D01*
X120673666Y-109878809D01*
%TO.C,R405*%
X112418952Y-108961180D02*
X112085619Y-108484990D01*
X111847523Y-108961180D02*
X111847523Y-107961180D01*
X112228476Y-107961180D01*
X112323714Y-108008800D01*
X112371333Y-108056419D01*
X112418952Y-108151657D01*
X112418952Y-108294514D01*
X112371333Y-108389752D01*
X112323714Y-108437371D01*
X112228476Y-108484990D01*
X111847523Y-108484990D01*
X113276095Y-108294514D02*
X113276095Y-108961180D01*
X113038000Y-107913561D02*
X112799904Y-108627847D01*
X113418952Y-108627847D01*
X113990380Y-107961180D02*
X114085619Y-107961180D01*
X114180857Y-108008800D01*
X114228476Y-108056419D01*
X114276095Y-108151657D01*
X114323714Y-108342133D01*
X114323714Y-108580228D01*
X114276095Y-108770704D01*
X114228476Y-108865942D01*
X114180857Y-108913561D01*
X114085619Y-108961180D01*
X113990380Y-108961180D01*
X113895142Y-108913561D01*
X113847523Y-108865942D01*
X113799904Y-108770704D01*
X113752285Y-108580228D01*
X113752285Y-108342133D01*
X113799904Y-108151657D01*
X113847523Y-108056419D01*
X113895142Y-108008800D01*
X113990380Y-107961180D01*
X115228476Y-107961180D02*
X114752285Y-107961180D01*
X114704666Y-108437371D01*
X114752285Y-108389752D01*
X114847523Y-108342133D01*
X115085619Y-108342133D01*
X115180857Y-108389752D01*
X115228476Y-108437371D01*
X115276095Y-108532609D01*
X115276095Y-108770704D01*
X115228476Y-108865942D01*
X115180857Y-108913561D01*
X115085619Y-108961180D01*
X114847523Y-108961180D01*
X114752285Y-108913561D01*
X114704666Y-108865942D01*
%TO.C,R404*%
X124912380Y-96877047D02*
X124436190Y-97210380D01*
X124912380Y-97448476D02*
X123912380Y-97448476D01*
X123912380Y-97067523D01*
X123960000Y-96972285D01*
X124007619Y-96924666D01*
X124102857Y-96877047D01*
X124245714Y-96877047D01*
X124340952Y-96924666D01*
X124388571Y-96972285D01*
X124436190Y-97067523D01*
X124436190Y-97448476D01*
X124245714Y-96019904D02*
X124912380Y-96019904D01*
X123864761Y-96258000D02*
X124579047Y-96496095D01*
X124579047Y-95877047D01*
X123912380Y-95305619D02*
X123912380Y-95210380D01*
X123960000Y-95115142D01*
X124007619Y-95067523D01*
X124102857Y-95019904D01*
X124293333Y-94972285D01*
X124531428Y-94972285D01*
X124721904Y-95019904D01*
X124817142Y-95067523D01*
X124864761Y-95115142D01*
X124912380Y-95210380D01*
X124912380Y-95305619D01*
X124864761Y-95400857D01*
X124817142Y-95448476D01*
X124721904Y-95496095D01*
X124531428Y-95543714D01*
X124293333Y-95543714D01*
X124102857Y-95496095D01*
X124007619Y-95448476D01*
X123960000Y-95400857D01*
X123912380Y-95305619D01*
X124245714Y-94115142D02*
X124912380Y-94115142D01*
X123864761Y-94353238D02*
X124579047Y-94591333D01*
X124579047Y-93972285D01*
%TO.C,R403*%
X122880380Y-96877047D02*
X122404190Y-97210380D01*
X122880380Y-97448476D02*
X121880380Y-97448476D01*
X121880380Y-97067523D01*
X121928000Y-96972285D01*
X121975619Y-96924666D01*
X122070857Y-96877047D01*
X122213714Y-96877047D01*
X122308952Y-96924666D01*
X122356571Y-96972285D01*
X122404190Y-97067523D01*
X122404190Y-97448476D01*
X122213714Y-96019904D02*
X122880380Y-96019904D01*
X121832761Y-96258000D02*
X122547047Y-96496095D01*
X122547047Y-95877047D01*
X121880380Y-95305619D02*
X121880380Y-95210380D01*
X121928000Y-95115142D01*
X121975619Y-95067523D01*
X122070857Y-95019904D01*
X122261333Y-94972285D01*
X122499428Y-94972285D01*
X122689904Y-95019904D01*
X122785142Y-95067523D01*
X122832761Y-95115142D01*
X122880380Y-95210380D01*
X122880380Y-95305619D01*
X122832761Y-95400857D01*
X122785142Y-95448476D01*
X122689904Y-95496095D01*
X122499428Y-95543714D01*
X122261333Y-95543714D01*
X122070857Y-95496095D01*
X121975619Y-95448476D01*
X121928000Y-95400857D01*
X121880380Y-95305619D01*
X121880380Y-94638952D02*
X121880380Y-94019904D01*
X122261333Y-94353238D01*
X122261333Y-94210380D01*
X122308952Y-94115142D01*
X122356571Y-94067523D01*
X122451809Y-94019904D01*
X122689904Y-94019904D01*
X122785142Y-94067523D01*
X122832761Y-94115142D01*
X122880380Y-94210380D01*
X122880380Y-94496095D01*
X122832761Y-94591333D01*
X122785142Y-94638952D01*
%TO.C,R402*%
X125626952Y-105227380D02*
X125293619Y-104751190D01*
X125055523Y-105227380D02*
X125055523Y-104227380D01*
X125436476Y-104227380D01*
X125531714Y-104275000D01*
X125579333Y-104322619D01*
X125626952Y-104417857D01*
X125626952Y-104560714D01*
X125579333Y-104655952D01*
X125531714Y-104703571D01*
X125436476Y-104751190D01*
X125055523Y-104751190D01*
X126484095Y-104560714D02*
X126484095Y-105227380D01*
X126246000Y-104179761D02*
X126007904Y-104894047D01*
X126626952Y-104894047D01*
X127198380Y-104227380D02*
X127293619Y-104227380D01*
X127388857Y-104275000D01*
X127436476Y-104322619D01*
X127484095Y-104417857D01*
X127531714Y-104608333D01*
X127531714Y-104846428D01*
X127484095Y-105036904D01*
X127436476Y-105132142D01*
X127388857Y-105179761D01*
X127293619Y-105227380D01*
X127198380Y-105227380D01*
X127103142Y-105179761D01*
X127055523Y-105132142D01*
X127007904Y-105036904D01*
X126960285Y-104846428D01*
X126960285Y-104608333D01*
X127007904Y-104417857D01*
X127055523Y-104322619D01*
X127103142Y-104275000D01*
X127198380Y-104227380D01*
X127912666Y-104322619D02*
X127960285Y-104275000D01*
X128055523Y-104227380D01*
X128293619Y-104227380D01*
X128388857Y-104275000D01*
X128436476Y-104322619D01*
X128484095Y-104417857D01*
X128484095Y-104513095D01*
X128436476Y-104655952D01*
X127865047Y-105227380D01*
X128484095Y-105227380D01*
%TO.C,R401*%
X125626952Y-107259380D02*
X125293619Y-106783190D01*
X125055523Y-107259380D02*
X125055523Y-106259380D01*
X125436476Y-106259380D01*
X125531714Y-106307000D01*
X125579333Y-106354619D01*
X125626952Y-106449857D01*
X125626952Y-106592714D01*
X125579333Y-106687952D01*
X125531714Y-106735571D01*
X125436476Y-106783190D01*
X125055523Y-106783190D01*
X126484095Y-106592714D02*
X126484095Y-107259380D01*
X126246000Y-106211761D02*
X126007904Y-106926047D01*
X126626952Y-106926047D01*
X127198380Y-106259380D02*
X127293619Y-106259380D01*
X127388857Y-106307000D01*
X127436476Y-106354619D01*
X127484095Y-106449857D01*
X127531714Y-106640333D01*
X127531714Y-106878428D01*
X127484095Y-107068904D01*
X127436476Y-107164142D01*
X127388857Y-107211761D01*
X127293619Y-107259380D01*
X127198380Y-107259380D01*
X127103142Y-107211761D01*
X127055523Y-107164142D01*
X127007904Y-107068904D01*
X126960285Y-106878428D01*
X126960285Y-106640333D01*
X127007904Y-106449857D01*
X127055523Y-106354619D01*
X127103142Y-106307000D01*
X127198380Y-106259380D01*
X128484095Y-107259380D02*
X127912666Y-107259380D01*
X128198380Y-107259380D02*
X128198380Y-106259380D01*
X128103142Y-106402238D01*
X128007904Y-106497476D01*
X127912666Y-106545095D01*
%TO.C,R301*%
X163980952Y-93035380D02*
X163647619Y-92559190D01*
X163409523Y-93035380D02*
X163409523Y-92035380D01*
X163790476Y-92035380D01*
X163885714Y-92083000D01*
X163933333Y-92130619D01*
X163980952Y-92225857D01*
X163980952Y-92368714D01*
X163933333Y-92463952D01*
X163885714Y-92511571D01*
X163790476Y-92559190D01*
X163409523Y-92559190D01*
X164314285Y-92035380D02*
X164933333Y-92035380D01*
X164600000Y-92416333D01*
X164742857Y-92416333D01*
X164838095Y-92463952D01*
X164885714Y-92511571D01*
X164933333Y-92606809D01*
X164933333Y-92844904D01*
X164885714Y-92940142D01*
X164838095Y-92987761D01*
X164742857Y-93035380D01*
X164457142Y-93035380D01*
X164361904Y-92987761D01*
X164314285Y-92940142D01*
X165552380Y-92035380D02*
X165647619Y-92035380D01*
X165742857Y-92083000D01*
X165790476Y-92130619D01*
X165838095Y-92225857D01*
X165885714Y-92416333D01*
X165885714Y-92654428D01*
X165838095Y-92844904D01*
X165790476Y-92940142D01*
X165742857Y-92987761D01*
X165647619Y-93035380D01*
X165552380Y-93035380D01*
X165457142Y-92987761D01*
X165409523Y-92940142D01*
X165361904Y-92844904D01*
X165314285Y-92654428D01*
X165314285Y-92416333D01*
X165361904Y-92225857D01*
X165409523Y-92130619D01*
X165457142Y-92083000D01*
X165552380Y-92035380D01*
X166838095Y-93035380D02*
X166266666Y-93035380D01*
X166552380Y-93035380D02*
X166552380Y-92035380D01*
X166457142Y-92178238D01*
X166361904Y-92273476D01*
X166266666Y-92321095D01*
%TO.C,R201*%
X119784952Y-113101380D02*
X119451619Y-112625190D01*
X119213523Y-113101380D02*
X119213523Y-112101380D01*
X119594476Y-112101380D01*
X119689714Y-112149000D01*
X119737333Y-112196619D01*
X119784952Y-112291857D01*
X119784952Y-112434714D01*
X119737333Y-112529952D01*
X119689714Y-112577571D01*
X119594476Y-112625190D01*
X119213523Y-112625190D01*
X120165904Y-112196619D02*
X120213523Y-112149000D01*
X120308761Y-112101380D01*
X120546857Y-112101380D01*
X120642095Y-112149000D01*
X120689714Y-112196619D01*
X120737333Y-112291857D01*
X120737333Y-112387095D01*
X120689714Y-112529952D01*
X120118285Y-113101380D01*
X120737333Y-113101380D01*
X121356380Y-112101380D02*
X121451619Y-112101380D01*
X121546857Y-112149000D01*
X121594476Y-112196619D01*
X121642095Y-112291857D01*
X121689714Y-112482333D01*
X121689714Y-112720428D01*
X121642095Y-112910904D01*
X121594476Y-113006142D01*
X121546857Y-113053761D01*
X121451619Y-113101380D01*
X121356380Y-113101380D01*
X121261142Y-113053761D01*
X121213523Y-113006142D01*
X121165904Y-112910904D01*
X121118285Y-112720428D01*
X121118285Y-112482333D01*
X121165904Y-112291857D01*
X121213523Y-112196619D01*
X121261142Y-112149000D01*
X121356380Y-112101380D01*
X122642095Y-113101380D02*
X122070666Y-113101380D01*
X122356380Y-113101380D02*
X122356380Y-112101380D01*
X122261142Y-112244238D01*
X122165904Y-112339476D01*
X122070666Y-112387095D01*
%TO.C,Q301*%
X169457619Y-101758619D02*
X169410000Y-101853857D01*
X169314761Y-101949095D01*
X169171904Y-102091952D01*
X169124285Y-102187190D01*
X169124285Y-102282428D01*
X169362380Y-102234809D02*
X169314761Y-102330047D01*
X169219523Y-102425285D01*
X169029047Y-102472904D01*
X168695714Y-102472904D01*
X168505238Y-102425285D01*
X168410000Y-102330047D01*
X168362380Y-102234809D01*
X168362380Y-102044333D01*
X168410000Y-101949095D01*
X168505238Y-101853857D01*
X168695714Y-101806238D01*
X169029047Y-101806238D01*
X169219523Y-101853857D01*
X169314761Y-101949095D01*
X169362380Y-102044333D01*
X169362380Y-102234809D01*
X168362380Y-101472904D02*
X168362380Y-100853857D01*
X168743333Y-101187190D01*
X168743333Y-101044333D01*
X168790952Y-100949095D01*
X168838571Y-100901476D01*
X168933809Y-100853857D01*
X169171904Y-100853857D01*
X169267142Y-100901476D01*
X169314761Y-100949095D01*
X169362380Y-101044333D01*
X169362380Y-101330047D01*
X169314761Y-101425285D01*
X169267142Y-101472904D01*
X168362380Y-100234809D02*
X168362380Y-100139571D01*
X168410000Y-100044333D01*
X168457619Y-99996714D01*
X168552857Y-99949095D01*
X168743333Y-99901476D01*
X168981428Y-99901476D01*
X169171904Y-99949095D01*
X169267142Y-99996714D01*
X169314761Y-100044333D01*
X169362380Y-100139571D01*
X169362380Y-100234809D01*
X169314761Y-100330047D01*
X169267142Y-100377666D01*
X169171904Y-100425285D01*
X168981428Y-100472904D01*
X168743333Y-100472904D01*
X168552857Y-100425285D01*
X168457619Y-100377666D01*
X168410000Y-100330047D01*
X168362380Y-100234809D01*
X169362380Y-98949095D02*
X169362380Y-99520523D01*
X169362380Y-99234809D02*
X168362380Y-99234809D01*
X168505238Y-99330047D01*
X168600476Y-99425285D01*
X168648095Y-99520523D01*
%TO.C,Q201*%
X118840380Y-119800619D02*
X118745142Y-119753000D01*
X118649904Y-119657761D01*
X118507047Y-119514904D01*
X118411809Y-119467285D01*
X118316571Y-119467285D01*
X118364190Y-119705380D02*
X118268952Y-119657761D01*
X118173714Y-119562523D01*
X118126095Y-119372047D01*
X118126095Y-119038714D01*
X118173714Y-118848238D01*
X118268952Y-118753000D01*
X118364190Y-118705380D01*
X118554666Y-118705380D01*
X118649904Y-118753000D01*
X118745142Y-118848238D01*
X118792761Y-119038714D01*
X118792761Y-119372047D01*
X118745142Y-119562523D01*
X118649904Y-119657761D01*
X118554666Y-119705380D01*
X118364190Y-119705380D01*
X119173714Y-118800619D02*
X119221333Y-118753000D01*
X119316571Y-118705380D01*
X119554666Y-118705380D01*
X119649904Y-118753000D01*
X119697523Y-118800619D01*
X119745142Y-118895857D01*
X119745142Y-118991095D01*
X119697523Y-119133952D01*
X119126095Y-119705380D01*
X119745142Y-119705380D01*
X120364190Y-118705380D02*
X120459428Y-118705380D01*
X120554666Y-118753000D01*
X120602285Y-118800619D01*
X120649904Y-118895857D01*
X120697523Y-119086333D01*
X120697523Y-119324428D01*
X120649904Y-119514904D01*
X120602285Y-119610142D01*
X120554666Y-119657761D01*
X120459428Y-119705380D01*
X120364190Y-119705380D01*
X120268952Y-119657761D01*
X120221333Y-119610142D01*
X120173714Y-119514904D01*
X120126095Y-119324428D01*
X120126095Y-119086333D01*
X120173714Y-118895857D01*
X120221333Y-118800619D01*
X120268952Y-118753000D01*
X120364190Y-118705380D01*
X121649904Y-119705380D02*
X121078476Y-119705380D01*
X121364190Y-119705380D02*
X121364190Y-118705380D01*
X121268952Y-118848238D01*
X121173714Y-118943476D01*
X121078476Y-118991095D01*
%TO.C,L305*%
X170759380Y-104878047D02*
X170759380Y-105354238D01*
X169759380Y-105354238D01*
X169759380Y-104639952D02*
X169759380Y-104020904D01*
X170140333Y-104354238D01*
X170140333Y-104211380D01*
X170187952Y-104116142D01*
X170235571Y-104068523D01*
X170330809Y-104020904D01*
X170568904Y-104020904D01*
X170664142Y-104068523D01*
X170711761Y-104116142D01*
X170759380Y-104211380D01*
X170759380Y-104497095D01*
X170711761Y-104592333D01*
X170664142Y-104639952D01*
X169759380Y-103401857D02*
X169759380Y-103306619D01*
X169807000Y-103211380D01*
X169854619Y-103163761D01*
X169949857Y-103116142D01*
X170140333Y-103068523D01*
X170378428Y-103068523D01*
X170568904Y-103116142D01*
X170664142Y-103163761D01*
X170711761Y-103211380D01*
X170759380Y-103306619D01*
X170759380Y-103401857D01*
X170711761Y-103497095D01*
X170664142Y-103544714D01*
X170568904Y-103592333D01*
X170378428Y-103639952D01*
X170140333Y-103639952D01*
X169949857Y-103592333D01*
X169854619Y-103544714D01*
X169807000Y-103497095D01*
X169759380Y-103401857D01*
X169759380Y-102163761D02*
X169759380Y-102639952D01*
X170235571Y-102687571D01*
X170187952Y-102639952D01*
X170140333Y-102544714D01*
X170140333Y-102306619D01*
X170187952Y-102211380D01*
X170235571Y-102163761D01*
X170330809Y-102116142D01*
X170568904Y-102116142D01*
X170664142Y-102163761D01*
X170711761Y-102211380D01*
X170759380Y-102306619D01*
X170759380Y-102544714D01*
X170711761Y-102639952D01*
X170664142Y-102687571D01*
%TO.C,L304*%
X172362952Y-94686380D02*
X171886761Y-94686380D01*
X171886761Y-93686380D01*
X172601047Y-93686380D02*
X173220095Y-93686380D01*
X172886761Y-94067333D01*
X173029619Y-94067333D01*
X173124857Y-94114952D01*
X173172476Y-94162571D01*
X173220095Y-94257809D01*
X173220095Y-94495904D01*
X173172476Y-94591142D01*
X173124857Y-94638761D01*
X173029619Y-94686380D01*
X172743904Y-94686380D01*
X172648666Y-94638761D01*
X172601047Y-94591142D01*
X173839142Y-93686380D02*
X173934380Y-93686380D01*
X174029619Y-93734000D01*
X174077238Y-93781619D01*
X174124857Y-93876857D01*
X174172476Y-94067333D01*
X174172476Y-94305428D01*
X174124857Y-94495904D01*
X174077238Y-94591142D01*
X174029619Y-94638761D01*
X173934380Y-94686380D01*
X173839142Y-94686380D01*
X173743904Y-94638761D01*
X173696285Y-94591142D01*
X173648666Y-94495904D01*
X173601047Y-94305428D01*
X173601047Y-94067333D01*
X173648666Y-93876857D01*
X173696285Y-93781619D01*
X173743904Y-93734000D01*
X173839142Y-93686380D01*
X175029619Y-94019714D02*
X175029619Y-94686380D01*
X174791523Y-93638761D02*
X174553428Y-94353047D01*
X175172476Y-94353047D01*
%TO.C,L303*%
X160424952Y-98623380D02*
X159948761Y-98623380D01*
X159948761Y-97623380D01*
X160663047Y-97623380D02*
X161282095Y-97623380D01*
X160948761Y-98004333D01*
X161091619Y-98004333D01*
X161186857Y-98051952D01*
X161234476Y-98099571D01*
X161282095Y-98194809D01*
X161282095Y-98432904D01*
X161234476Y-98528142D01*
X161186857Y-98575761D01*
X161091619Y-98623380D01*
X160805904Y-98623380D01*
X160710666Y-98575761D01*
X160663047Y-98528142D01*
X161901142Y-97623380D02*
X161996380Y-97623380D01*
X162091619Y-97671000D01*
X162139238Y-97718619D01*
X162186857Y-97813857D01*
X162234476Y-98004333D01*
X162234476Y-98242428D01*
X162186857Y-98432904D01*
X162139238Y-98528142D01*
X162091619Y-98575761D01*
X161996380Y-98623380D01*
X161901142Y-98623380D01*
X161805904Y-98575761D01*
X161758285Y-98528142D01*
X161710666Y-98432904D01*
X161663047Y-98242428D01*
X161663047Y-98004333D01*
X161710666Y-97813857D01*
X161758285Y-97718619D01*
X161805904Y-97671000D01*
X161901142Y-97623380D01*
X162567809Y-97623380D02*
X163186857Y-97623380D01*
X162853523Y-98004333D01*
X162996380Y-98004333D01*
X163091619Y-98051952D01*
X163139238Y-98099571D01*
X163186857Y-98194809D01*
X163186857Y-98432904D01*
X163139238Y-98528142D01*
X163091619Y-98575761D01*
X162996380Y-98623380D01*
X162710666Y-98623380D01*
X162615428Y-98575761D01*
X162567809Y-98528142D01*
%TO.C,L302*%
X164996952Y-94432380D02*
X164520761Y-94432380D01*
X164520761Y-93432380D01*
X165235047Y-93432380D02*
X165854095Y-93432380D01*
X165520761Y-93813333D01*
X165663619Y-93813333D01*
X165758857Y-93860952D01*
X165806476Y-93908571D01*
X165854095Y-94003809D01*
X165854095Y-94241904D01*
X165806476Y-94337142D01*
X165758857Y-94384761D01*
X165663619Y-94432380D01*
X165377904Y-94432380D01*
X165282666Y-94384761D01*
X165235047Y-94337142D01*
X166473142Y-93432380D02*
X166568380Y-93432380D01*
X166663619Y-93480000D01*
X166711238Y-93527619D01*
X166758857Y-93622857D01*
X166806476Y-93813333D01*
X166806476Y-94051428D01*
X166758857Y-94241904D01*
X166711238Y-94337142D01*
X166663619Y-94384761D01*
X166568380Y-94432380D01*
X166473142Y-94432380D01*
X166377904Y-94384761D01*
X166330285Y-94337142D01*
X166282666Y-94241904D01*
X166235047Y-94051428D01*
X166235047Y-93813333D01*
X166282666Y-93622857D01*
X166330285Y-93527619D01*
X166377904Y-93480000D01*
X166473142Y-93432380D01*
X167187428Y-93527619D02*
X167235047Y-93480000D01*
X167330285Y-93432380D01*
X167568380Y-93432380D01*
X167663619Y-93480000D01*
X167711238Y-93527619D01*
X167758857Y-93622857D01*
X167758857Y-93718095D01*
X167711238Y-93860952D01*
X167139809Y-94432380D01*
X167758857Y-94432380D01*
%TO.C,L301*%
X159027952Y-96591380D02*
X158551761Y-96591380D01*
X158551761Y-95591380D01*
X159266047Y-95591380D02*
X159885095Y-95591380D01*
X159551761Y-95972333D01*
X159694619Y-95972333D01*
X159789857Y-96019952D01*
X159837476Y-96067571D01*
X159885095Y-96162809D01*
X159885095Y-96400904D01*
X159837476Y-96496142D01*
X159789857Y-96543761D01*
X159694619Y-96591380D01*
X159408904Y-96591380D01*
X159313666Y-96543761D01*
X159266047Y-96496142D01*
X160504142Y-95591380D02*
X160599380Y-95591380D01*
X160694619Y-95639000D01*
X160742238Y-95686619D01*
X160789857Y-95781857D01*
X160837476Y-95972333D01*
X160837476Y-96210428D01*
X160789857Y-96400904D01*
X160742238Y-96496142D01*
X160694619Y-96543761D01*
X160599380Y-96591380D01*
X160504142Y-96591380D01*
X160408904Y-96543761D01*
X160361285Y-96496142D01*
X160313666Y-96400904D01*
X160266047Y-96210428D01*
X160266047Y-95972333D01*
X160313666Y-95781857D01*
X160361285Y-95686619D01*
X160408904Y-95639000D01*
X160504142Y-95591380D01*
X161789857Y-96591380D02*
X161218428Y-96591380D01*
X161504142Y-96591380D02*
X161504142Y-95591380D01*
X161408904Y-95734238D01*
X161313666Y-95829476D01*
X161218428Y-95877095D01*
%TO.C,L203*%
X124404380Y-114657047D02*
X124404380Y-115133238D01*
X123404380Y-115133238D01*
X123499619Y-114371333D02*
X123452000Y-114323714D01*
X123404380Y-114228476D01*
X123404380Y-113990380D01*
X123452000Y-113895142D01*
X123499619Y-113847523D01*
X123594857Y-113799904D01*
X123690095Y-113799904D01*
X123832952Y-113847523D01*
X124404380Y-114418952D01*
X124404380Y-113799904D01*
X123404380Y-113180857D02*
X123404380Y-113085619D01*
X123452000Y-112990380D01*
X123499619Y-112942761D01*
X123594857Y-112895142D01*
X123785333Y-112847523D01*
X124023428Y-112847523D01*
X124213904Y-112895142D01*
X124309142Y-112942761D01*
X124356761Y-112990380D01*
X124404380Y-113085619D01*
X124404380Y-113180857D01*
X124356761Y-113276095D01*
X124309142Y-113323714D01*
X124213904Y-113371333D01*
X124023428Y-113418952D01*
X123785333Y-113418952D01*
X123594857Y-113371333D01*
X123499619Y-113323714D01*
X123452000Y-113276095D01*
X123404380Y-113180857D01*
X123404380Y-112514190D02*
X123404380Y-111895142D01*
X123785333Y-112228476D01*
X123785333Y-112085619D01*
X123832952Y-111990380D01*
X123880571Y-111942761D01*
X123975809Y-111895142D01*
X124213904Y-111895142D01*
X124309142Y-111942761D01*
X124356761Y-111990380D01*
X124404380Y-112085619D01*
X124404380Y-112371333D01*
X124356761Y-112466571D01*
X124309142Y-112514190D01*
%TO.C,L202*%
X118308380Y-113641047D02*
X118308380Y-114117238D01*
X117308380Y-114117238D01*
X117403619Y-113355333D02*
X117356000Y-113307714D01*
X117308380Y-113212476D01*
X117308380Y-112974380D01*
X117356000Y-112879142D01*
X117403619Y-112831523D01*
X117498857Y-112783904D01*
X117594095Y-112783904D01*
X117736952Y-112831523D01*
X118308380Y-113402952D01*
X118308380Y-112783904D01*
X117308380Y-112164857D02*
X117308380Y-112069619D01*
X117356000Y-111974380D01*
X117403619Y-111926761D01*
X117498857Y-111879142D01*
X117689333Y-111831523D01*
X117927428Y-111831523D01*
X118117904Y-111879142D01*
X118213142Y-111926761D01*
X118260761Y-111974380D01*
X118308380Y-112069619D01*
X118308380Y-112164857D01*
X118260761Y-112260095D01*
X118213142Y-112307714D01*
X118117904Y-112355333D01*
X117927428Y-112402952D01*
X117689333Y-112402952D01*
X117498857Y-112355333D01*
X117403619Y-112307714D01*
X117356000Y-112260095D01*
X117308380Y-112164857D01*
X117403619Y-111450571D02*
X117356000Y-111402952D01*
X117308380Y-111307714D01*
X117308380Y-111069619D01*
X117356000Y-110974380D01*
X117403619Y-110926761D01*
X117498857Y-110879142D01*
X117594095Y-110879142D01*
X117736952Y-110926761D01*
X118308380Y-111498190D01*
X118308380Y-110879142D01*
%TO.C,L201*%
X116911380Y-124436047D02*
X116911380Y-124912238D01*
X115911380Y-124912238D01*
X116006619Y-124150333D02*
X115959000Y-124102714D01*
X115911380Y-124007476D01*
X115911380Y-123769380D01*
X115959000Y-123674142D01*
X116006619Y-123626523D01*
X116101857Y-123578904D01*
X116197095Y-123578904D01*
X116339952Y-123626523D01*
X116911380Y-124197952D01*
X116911380Y-123578904D01*
X115911380Y-122959857D02*
X115911380Y-122864619D01*
X115959000Y-122769380D01*
X116006619Y-122721761D01*
X116101857Y-122674142D01*
X116292333Y-122626523D01*
X116530428Y-122626523D01*
X116720904Y-122674142D01*
X116816142Y-122721761D01*
X116863761Y-122769380D01*
X116911380Y-122864619D01*
X116911380Y-122959857D01*
X116863761Y-123055095D01*
X116816142Y-123102714D01*
X116720904Y-123150333D01*
X116530428Y-123197952D01*
X116292333Y-123197952D01*
X116101857Y-123150333D01*
X116006619Y-123102714D01*
X115959000Y-123055095D01*
X115911380Y-122959857D01*
X116911380Y-121674142D02*
X116911380Y-122245571D01*
X116911380Y-121959857D02*
X115911380Y-121959857D01*
X116054238Y-122055095D01*
X116149476Y-122150333D01*
X116197095Y-122245571D01*
%TO.C,J106*%
X183526085Y-90953580D02*
X183526085Y-91667866D01*
X183478466Y-91810723D01*
X183383228Y-91905961D01*
X183240371Y-91953580D01*
X183145133Y-91953580D01*
X184526085Y-91953580D02*
X183954657Y-91953580D01*
X184240371Y-91953580D02*
X184240371Y-90953580D01*
X184145133Y-91096438D01*
X184049895Y-91191676D01*
X183954657Y-91239295D01*
X185145133Y-90953580D02*
X185240371Y-90953580D01*
X185335609Y-91001200D01*
X185383228Y-91048819D01*
X185430847Y-91144057D01*
X185478466Y-91334533D01*
X185478466Y-91572628D01*
X185430847Y-91763104D01*
X185383228Y-91858342D01*
X185335609Y-91905961D01*
X185240371Y-91953580D01*
X185145133Y-91953580D01*
X185049895Y-91905961D01*
X185002276Y-91858342D01*
X184954657Y-91763104D01*
X184907038Y-91572628D01*
X184907038Y-91334533D01*
X184954657Y-91144057D01*
X185002276Y-91048819D01*
X185049895Y-91001200D01*
X185145133Y-90953580D01*
X186335609Y-90953580D02*
X186145133Y-90953580D01*
X186049895Y-91001200D01*
X186002276Y-91048819D01*
X185907038Y-91191676D01*
X185859419Y-91382152D01*
X185859419Y-91763104D01*
X185907038Y-91858342D01*
X185954657Y-91905961D01*
X186049895Y-91953580D01*
X186240371Y-91953580D01*
X186335609Y-91905961D01*
X186383228Y-91858342D01*
X186430847Y-91763104D01*
X186430847Y-91525009D01*
X186383228Y-91429771D01*
X186335609Y-91382152D01*
X186240371Y-91334533D01*
X186049895Y-91334533D01*
X185954657Y-91382152D01*
X185907038Y-91429771D01*
X185859419Y-91525009D01*
%TO.C,J105*%
X183372285Y-124420380D02*
X183372285Y-125134666D01*
X183324666Y-125277523D01*
X183229428Y-125372761D01*
X183086571Y-125420380D01*
X182991333Y-125420380D01*
X184372285Y-125420380D02*
X183800857Y-125420380D01*
X184086571Y-125420380D02*
X184086571Y-124420380D01*
X183991333Y-124563238D01*
X183896095Y-124658476D01*
X183800857Y-124706095D01*
X184991333Y-124420380D02*
X185086571Y-124420380D01*
X185181809Y-124468000D01*
X185229428Y-124515619D01*
X185277047Y-124610857D01*
X185324666Y-124801333D01*
X185324666Y-125039428D01*
X185277047Y-125229904D01*
X185229428Y-125325142D01*
X185181809Y-125372761D01*
X185086571Y-125420380D01*
X184991333Y-125420380D01*
X184896095Y-125372761D01*
X184848476Y-125325142D01*
X184800857Y-125229904D01*
X184753238Y-125039428D01*
X184753238Y-124801333D01*
X184800857Y-124610857D01*
X184848476Y-124515619D01*
X184896095Y-124468000D01*
X184991333Y-124420380D01*
X186229428Y-124420380D02*
X185753238Y-124420380D01*
X185705619Y-124896571D01*
X185753238Y-124848952D01*
X185848476Y-124801333D01*
X186086571Y-124801333D01*
X186181809Y-124848952D01*
X186229428Y-124896571D01*
X186277047Y-124991809D01*
X186277047Y-125229904D01*
X186229428Y-125325142D01*
X186181809Y-125372761D01*
X186086571Y-125420380D01*
X185848476Y-125420380D01*
X185753238Y-125372761D01*
X185705619Y-125325142D01*
%TO.C,J104*%
X177276285Y-60158380D02*
X177276285Y-60872666D01*
X177228666Y-61015523D01*
X177133428Y-61110761D01*
X176990571Y-61158380D01*
X176895333Y-61158380D01*
X178276285Y-61158380D02*
X177704857Y-61158380D01*
X177990571Y-61158380D02*
X177990571Y-60158380D01*
X177895333Y-60301238D01*
X177800095Y-60396476D01*
X177704857Y-60444095D01*
X178895333Y-60158380D02*
X178990571Y-60158380D01*
X179085809Y-60206000D01*
X179133428Y-60253619D01*
X179181047Y-60348857D01*
X179228666Y-60539333D01*
X179228666Y-60777428D01*
X179181047Y-60967904D01*
X179133428Y-61063142D01*
X179085809Y-61110761D01*
X178990571Y-61158380D01*
X178895333Y-61158380D01*
X178800095Y-61110761D01*
X178752476Y-61063142D01*
X178704857Y-60967904D01*
X178657238Y-60777428D01*
X178657238Y-60539333D01*
X178704857Y-60348857D01*
X178752476Y-60253619D01*
X178800095Y-60206000D01*
X178895333Y-60158380D01*
X180085809Y-60491714D02*
X180085809Y-61158380D01*
X179847714Y-60110761D02*
X179609619Y-60825047D01*
X180228666Y-60825047D01*
%TO.C,J103*%
X96528285Y-124562380D02*
X96528285Y-125276666D01*
X96480666Y-125419523D01*
X96385428Y-125514761D01*
X96242571Y-125562380D01*
X96147333Y-125562380D01*
X97528285Y-125562380D02*
X96956857Y-125562380D01*
X97242571Y-125562380D02*
X97242571Y-124562380D01*
X97147333Y-124705238D01*
X97052095Y-124800476D01*
X96956857Y-124848095D01*
X98147333Y-124562380D02*
X98242571Y-124562380D01*
X98337809Y-124610000D01*
X98385428Y-124657619D01*
X98433047Y-124752857D01*
X98480666Y-124943333D01*
X98480666Y-125181428D01*
X98433047Y-125371904D01*
X98385428Y-125467142D01*
X98337809Y-125514761D01*
X98242571Y-125562380D01*
X98147333Y-125562380D01*
X98052095Y-125514761D01*
X98004476Y-125467142D01*
X97956857Y-125371904D01*
X97909238Y-125181428D01*
X97909238Y-124943333D01*
X97956857Y-124752857D01*
X98004476Y-124657619D01*
X98052095Y-124610000D01*
X98147333Y-124562380D01*
X98814000Y-124562380D02*
X99433047Y-124562380D01*
X99099714Y-124943333D01*
X99242571Y-124943333D01*
X99337809Y-124990952D01*
X99385428Y-125038571D01*
X99433047Y-125133809D01*
X99433047Y-125371904D01*
X99385428Y-125467142D01*
X99337809Y-125514761D01*
X99242571Y-125562380D01*
X98956857Y-125562380D01*
X98861619Y-125514761D01*
X98814000Y-125467142D01*
%TO.C,J102*%
X102346285Y-71588380D02*
X102346285Y-72302666D01*
X102298666Y-72445523D01*
X102203428Y-72540761D01*
X102060571Y-72588380D01*
X101965333Y-72588380D01*
X103346285Y-72588380D02*
X102774857Y-72588380D01*
X103060571Y-72588380D02*
X103060571Y-71588380D01*
X102965333Y-71731238D01*
X102870095Y-71826476D01*
X102774857Y-71874095D01*
X103965333Y-71588380D02*
X104060571Y-71588380D01*
X104155809Y-71636000D01*
X104203428Y-71683619D01*
X104251047Y-71778857D01*
X104298666Y-71969333D01*
X104298666Y-72207428D01*
X104251047Y-72397904D01*
X104203428Y-72493142D01*
X104155809Y-72540761D01*
X104060571Y-72588380D01*
X103965333Y-72588380D01*
X103870095Y-72540761D01*
X103822476Y-72493142D01*
X103774857Y-72397904D01*
X103727238Y-72207428D01*
X103727238Y-71969333D01*
X103774857Y-71778857D01*
X103822476Y-71683619D01*
X103870095Y-71636000D01*
X103965333Y-71588380D01*
X104679619Y-71683619D02*
X104727238Y-71636000D01*
X104822476Y-71588380D01*
X105060571Y-71588380D01*
X105155809Y-71636000D01*
X105203428Y-71683619D01*
X105251047Y-71778857D01*
X105251047Y-71874095D01*
X105203428Y-72016952D01*
X104632000Y-72588380D01*
X105251047Y-72588380D01*
%TO.C,J101*%
X99628485Y-92924380D02*
X99628485Y-93638666D01*
X99580866Y-93781523D01*
X99485628Y-93876761D01*
X99342771Y-93924380D01*
X99247533Y-93924380D01*
X100628485Y-93924380D02*
X100057057Y-93924380D01*
X100342771Y-93924380D02*
X100342771Y-92924380D01*
X100247533Y-93067238D01*
X100152295Y-93162476D01*
X100057057Y-93210095D01*
X101247533Y-92924380D02*
X101342771Y-92924380D01*
X101438009Y-92972000D01*
X101485628Y-93019619D01*
X101533247Y-93114857D01*
X101580866Y-93305333D01*
X101580866Y-93543428D01*
X101533247Y-93733904D01*
X101485628Y-93829142D01*
X101438009Y-93876761D01*
X101342771Y-93924380D01*
X101247533Y-93924380D01*
X101152295Y-93876761D01*
X101104676Y-93829142D01*
X101057057Y-93733904D01*
X101009438Y-93543428D01*
X101009438Y-93305333D01*
X101057057Y-93114857D01*
X101104676Y-93019619D01*
X101152295Y-92972000D01*
X101247533Y-92924380D01*
X102533247Y-93924380D02*
X101961819Y-93924380D01*
X102247533Y-93924380D02*
X102247533Y-92924380D01*
X102152295Y-93067238D01*
X102057057Y-93162476D01*
X101961819Y-93210095D01*
%TO.C,C504*%
X156313142Y-107164047D02*
X156360761Y-107211666D01*
X156408380Y-107354523D01*
X156408380Y-107449761D01*
X156360761Y-107592619D01*
X156265523Y-107687857D01*
X156170285Y-107735476D01*
X155979809Y-107783095D01*
X155836952Y-107783095D01*
X155646476Y-107735476D01*
X155551238Y-107687857D01*
X155456000Y-107592619D01*
X155408380Y-107449761D01*
X155408380Y-107354523D01*
X155456000Y-107211666D01*
X155503619Y-107164047D01*
X155408380Y-106259285D02*
X155408380Y-106735476D01*
X155884571Y-106783095D01*
X155836952Y-106735476D01*
X155789333Y-106640238D01*
X155789333Y-106402142D01*
X155836952Y-106306904D01*
X155884571Y-106259285D01*
X155979809Y-106211666D01*
X156217904Y-106211666D01*
X156313142Y-106259285D01*
X156360761Y-106306904D01*
X156408380Y-106402142D01*
X156408380Y-106640238D01*
X156360761Y-106735476D01*
X156313142Y-106783095D01*
X155408380Y-105592619D02*
X155408380Y-105497380D01*
X155456000Y-105402142D01*
X155503619Y-105354523D01*
X155598857Y-105306904D01*
X155789333Y-105259285D01*
X156027428Y-105259285D01*
X156217904Y-105306904D01*
X156313142Y-105354523D01*
X156360761Y-105402142D01*
X156408380Y-105497380D01*
X156408380Y-105592619D01*
X156360761Y-105687857D01*
X156313142Y-105735476D01*
X156217904Y-105783095D01*
X156027428Y-105830714D01*
X155789333Y-105830714D01*
X155598857Y-105783095D01*
X155503619Y-105735476D01*
X155456000Y-105687857D01*
X155408380Y-105592619D01*
X155741714Y-104402142D02*
X156408380Y-104402142D01*
X155360761Y-104640238D02*
X156075047Y-104878333D01*
X156075047Y-104259285D01*
%TO.C,C503*%
X148232952Y-89892142D02*
X148185333Y-89939761D01*
X148042476Y-89987380D01*
X147947238Y-89987380D01*
X147804380Y-89939761D01*
X147709142Y-89844523D01*
X147661523Y-89749285D01*
X147613904Y-89558809D01*
X147613904Y-89415952D01*
X147661523Y-89225476D01*
X147709142Y-89130238D01*
X147804380Y-89035000D01*
X147947238Y-88987380D01*
X148042476Y-88987380D01*
X148185333Y-89035000D01*
X148232952Y-89082619D01*
X149137714Y-88987380D02*
X148661523Y-88987380D01*
X148613904Y-89463571D01*
X148661523Y-89415952D01*
X148756761Y-89368333D01*
X148994857Y-89368333D01*
X149090095Y-89415952D01*
X149137714Y-89463571D01*
X149185333Y-89558809D01*
X149185333Y-89796904D01*
X149137714Y-89892142D01*
X149090095Y-89939761D01*
X148994857Y-89987380D01*
X148756761Y-89987380D01*
X148661523Y-89939761D01*
X148613904Y-89892142D01*
X149804380Y-88987380D02*
X149899619Y-88987380D01*
X149994857Y-89035000D01*
X150042476Y-89082619D01*
X150090095Y-89177857D01*
X150137714Y-89368333D01*
X150137714Y-89606428D01*
X150090095Y-89796904D01*
X150042476Y-89892142D01*
X149994857Y-89939761D01*
X149899619Y-89987380D01*
X149804380Y-89987380D01*
X149709142Y-89939761D01*
X149661523Y-89892142D01*
X149613904Y-89796904D01*
X149566285Y-89606428D01*
X149566285Y-89368333D01*
X149613904Y-89177857D01*
X149661523Y-89082619D01*
X149709142Y-89035000D01*
X149804380Y-88987380D01*
X150471047Y-88987380D02*
X151090095Y-88987380D01*
X150756761Y-89368333D01*
X150899619Y-89368333D01*
X150994857Y-89415952D01*
X151042476Y-89463571D01*
X151090095Y-89558809D01*
X151090095Y-89796904D01*
X151042476Y-89892142D01*
X150994857Y-89939761D01*
X150899619Y-89987380D01*
X150613904Y-89987380D01*
X150518666Y-89939761D01*
X150471047Y-89892142D01*
%TO.C,C502*%
X153519142Y-93575047D02*
X153566761Y-93622666D01*
X153614380Y-93765523D01*
X153614380Y-93860761D01*
X153566761Y-94003619D01*
X153471523Y-94098857D01*
X153376285Y-94146476D01*
X153185809Y-94194095D01*
X153042952Y-94194095D01*
X152852476Y-94146476D01*
X152757238Y-94098857D01*
X152662000Y-94003619D01*
X152614380Y-93860761D01*
X152614380Y-93765523D01*
X152662000Y-93622666D01*
X152709619Y-93575047D01*
X152614380Y-92670285D02*
X152614380Y-93146476D01*
X153090571Y-93194095D01*
X153042952Y-93146476D01*
X152995333Y-93051238D01*
X152995333Y-92813142D01*
X153042952Y-92717904D01*
X153090571Y-92670285D01*
X153185809Y-92622666D01*
X153423904Y-92622666D01*
X153519142Y-92670285D01*
X153566761Y-92717904D01*
X153614380Y-92813142D01*
X153614380Y-93051238D01*
X153566761Y-93146476D01*
X153519142Y-93194095D01*
X152614380Y-92003619D02*
X152614380Y-91908380D01*
X152662000Y-91813142D01*
X152709619Y-91765523D01*
X152804857Y-91717904D01*
X152995333Y-91670285D01*
X153233428Y-91670285D01*
X153423904Y-91717904D01*
X153519142Y-91765523D01*
X153566761Y-91813142D01*
X153614380Y-91908380D01*
X153614380Y-92003619D01*
X153566761Y-92098857D01*
X153519142Y-92146476D01*
X153423904Y-92194095D01*
X153233428Y-92241714D01*
X152995333Y-92241714D01*
X152804857Y-92194095D01*
X152709619Y-92146476D01*
X152662000Y-92098857D01*
X152614380Y-92003619D01*
X152709619Y-91289333D02*
X152662000Y-91241714D01*
X152614380Y-91146476D01*
X152614380Y-90908380D01*
X152662000Y-90813142D01*
X152709619Y-90765523D01*
X152804857Y-90717904D01*
X152900095Y-90717904D01*
X153042952Y-90765523D01*
X153614380Y-91336952D01*
X153614380Y-90717904D01*
%TO.C,C501*%
X148058142Y-107164047D02*
X148105761Y-107211666D01*
X148153380Y-107354523D01*
X148153380Y-107449761D01*
X148105761Y-107592619D01*
X148010523Y-107687857D01*
X147915285Y-107735476D01*
X147724809Y-107783095D01*
X147581952Y-107783095D01*
X147391476Y-107735476D01*
X147296238Y-107687857D01*
X147201000Y-107592619D01*
X147153380Y-107449761D01*
X147153380Y-107354523D01*
X147201000Y-107211666D01*
X147248619Y-107164047D01*
X147153380Y-106259285D02*
X147153380Y-106735476D01*
X147629571Y-106783095D01*
X147581952Y-106735476D01*
X147534333Y-106640238D01*
X147534333Y-106402142D01*
X147581952Y-106306904D01*
X147629571Y-106259285D01*
X147724809Y-106211666D01*
X147962904Y-106211666D01*
X148058142Y-106259285D01*
X148105761Y-106306904D01*
X148153380Y-106402142D01*
X148153380Y-106640238D01*
X148105761Y-106735476D01*
X148058142Y-106783095D01*
X147153380Y-105592619D02*
X147153380Y-105497380D01*
X147201000Y-105402142D01*
X147248619Y-105354523D01*
X147343857Y-105306904D01*
X147534333Y-105259285D01*
X147772428Y-105259285D01*
X147962904Y-105306904D01*
X148058142Y-105354523D01*
X148105761Y-105402142D01*
X148153380Y-105497380D01*
X148153380Y-105592619D01*
X148105761Y-105687857D01*
X148058142Y-105735476D01*
X147962904Y-105783095D01*
X147772428Y-105830714D01*
X147534333Y-105830714D01*
X147343857Y-105783095D01*
X147248619Y-105735476D01*
X147201000Y-105687857D01*
X147153380Y-105592619D01*
X148153380Y-104306904D02*
X148153380Y-104878333D01*
X148153380Y-104592619D02*
X147153380Y-104592619D01*
X147296238Y-104687857D01*
X147391476Y-104783095D01*
X147439095Y-104878333D01*
%TO.C,C404*%
X127658952Y-109196142D02*
X127611333Y-109243761D01*
X127468476Y-109291380D01*
X127373238Y-109291380D01*
X127230380Y-109243761D01*
X127135142Y-109148523D01*
X127087523Y-109053285D01*
X127039904Y-108862809D01*
X127039904Y-108719952D01*
X127087523Y-108529476D01*
X127135142Y-108434238D01*
X127230380Y-108339000D01*
X127373238Y-108291380D01*
X127468476Y-108291380D01*
X127611333Y-108339000D01*
X127658952Y-108386619D01*
X128516095Y-108624714D02*
X128516095Y-109291380D01*
X128278000Y-108243761D02*
X128039904Y-108958047D01*
X128658952Y-108958047D01*
X129230380Y-108291380D02*
X129325619Y-108291380D01*
X129420857Y-108339000D01*
X129468476Y-108386619D01*
X129516095Y-108481857D01*
X129563714Y-108672333D01*
X129563714Y-108910428D01*
X129516095Y-109100904D01*
X129468476Y-109196142D01*
X129420857Y-109243761D01*
X129325619Y-109291380D01*
X129230380Y-109291380D01*
X129135142Y-109243761D01*
X129087523Y-109196142D01*
X129039904Y-109100904D01*
X128992285Y-108910428D01*
X128992285Y-108672333D01*
X129039904Y-108481857D01*
X129087523Y-108386619D01*
X129135142Y-108339000D01*
X129230380Y-108291380D01*
X130420857Y-108624714D02*
X130420857Y-109291380D01*
X130182761Y-108243761D02*
X129944666Y-108958047D01*
X130563714Y-108958047D01*
%TO.C,C403*%
X108100952Y-101449142D02*
X108053333Y-101496761D01*
X107910476Y-101544380D01*
X107815238Y-101544380D01*
X107672380Y-101496761D01*
X107577142Y-101401523D01*
X107529523Y-101306285D01*
X107481904Y-101115809D01*
X107481904Y-100972952D01*
X107529523Y-100782476D01*
X107577142Y-100687238D01*
X107672380Y-100592000D01*
X107815238Y-100544380D01*
X107910476Y-100544380D01*
X108053333Y-100592000D01*
X108100952Y-100639619D01*
X108958095Y-100877714D02*
X108958095Y-101544380D01*
X108720000Y-100496761D02*
X108481904Y-101211047D01*
X109100952Y-101211047D01*
X109672380Y-100544380D02*
X109767619Y-100544380D01*
X109862857Y-100592000D01*
X109910476Y-100639619D01*
X109958095Y-100734857D01*
X110005714Y-100925333D01*
X110005714Y-101163428D01*
X109958095Y-101353904D01*
X109910476Y-101449142D01*
X109862857Y-101496761D01*
X109767619Y-101544380D01*
X109672380Y-101544380D01*
X109577142Y-101496761D01*
X109529523Y-101449142D01*
X109481904Y-101353904D01*
X109434285Y-101163428D01*
X109434285Y-100925333D01*
X109481904Y-100734857D01*
X109529523Y-100639619D01*
X109577142Y-100592000D01*
X109672380Y-100544380D01*
X110339047Y-100544380D02*
X110958095Y-100544380D01*
X110624761Y-100925333D01*
X110767619Y-100925333D01*
X110862857Y-100972952D01*
X110910476Y-101020571D01*
X110958095Y-101115809D01*
X110958095Y-101353904D01*
X110910476Y-101449142D01*
X110862857Y-101496761D01*
X110767619Y-101544380D01*
X110481904Y-101544380D01*
X110386666Y-101496761D01*
X110339047Y-101449142D01*
%TO.C,C402*%
X112418952Y-105767142D02*
X112371333Y-105814761D01*
X112228476Y-105862380D01*
X112133238Y-105862380D01*
X111990380Y-105814761D01*
X111895142Y-105719523D01*
X111847523Y-105624285D01*
X111799904Y-105433809D01*
X111799904Y-105290952D01*
X111847523Y-105100476D01*
X111895142Y-105005238D01*
X111990380Y-104910000D01*
X112133238Y-104862380D01*
X112228476Y-104862380D01*
X112371333Y-104910000D01*
X112418952Y-104957619D01*
X113276095Y-105195714D02*
X113276095Y-105862380D01*
X113038000Y-104814761D02*
X112799904Y-105529047D01*
X113418952Y-105529047D01*
X113990380Y-104862380D02*
X114085619Y-104862380D01*
X114180857Y-104910000D01*
X114228476Y-104957619D01*
X114276095Y-105052857D01*
X114323714Y-105243333D01*
X114323714Y-105481428D01*
X114276095Y-105671904D01*
X114228476Y-105767142D01*
X114180857Y-105814761D01*
X114085619Y-105862380D01*
X113990380Y-105862380D01*
X113895142Y-105814761D01*
X113847523Y-105767142D01*
X113799904Y-105671904D01*
X113752285Y-105481428D01*
X113752285Y-105243333D01*
X113799904Y-105052857D01*
X113847523Y-104957619D01*
X113895142Y-104910000D01*
X113990380Y-104862380D01*
X114704666Y-104957619D02*
X114752285Y-104910000D01*
X114847523Y-104862380D01*
X115085619Y-104862380D01*
X115180857Y-104910000D01*
X115228476Y-104957619D01*
X115276095Y-105052857D01*
X115276095Y-105148095D01*
X115228476Y-105290952D01*
X114657047Y-105862380D01*
X115276095Y-105862380D01*
%TO.C,C401*%
X125626952Y-102973142D02*
X125579333Y-103020761D01*
X125436476Y-103068380D01*
X125341238Y-103068380D01*
X125198380Y-103020761D01*
X125103142Y-102925523D01*
X125055523Y-102830285D01*
X125007904Y-102639809D01*
X125007904Y-102496952D01*
X125055523Y-102306476D01*
X125103142Y-102211238D01*
X125198380Y-102116000D01*
X125341238Y-102068380D01*
X125436476Y-102068380D01*
X125579333Y-102116000D01*
X125626952Y-102163619D01*
X126484095Y-102401714D02*
X126484095Y-103068380D01*
X126246000Y-102020761D02*
X126007904Y-102735047D01*
X126626952Y-102735047D01*
X127198380Y-102068380D02*
X127293619Y-102068380D01*
X127388857Y-102116000D01*
X127436476Y-102163619D01*
X127484095Y-102258857D01*
X127531714Y-102449333D01*
X127531714Y-102687428D01*
X127484095Y-102877904D01*
X127436476Y-102973142D01*
X127388857Y-103020761D01*
X127293619Y-103068380D01*
X127198380Y-103068380D01*
X127103142Y-103020761D01*
X127055523Y-102973142D01*
X127007904Y-102877904D01*
X126960285Y-102687428D01*
X126960285Y-102449333D01*
X127007904Y-102258857D01*
X127055523Y-102163619D01*
X127103142Y-102116000D01*
X127198380Y-102068380D01*
X128484095Y-103068380D02*
X127912666Y-103068380D01*
X128198380Y-103068380D02*
X128198380Y-102068380D01*
X128103142Y-102211238D01*
X128007904Y-102306476D01*
X127912666Y-102354095D01*
%TO.C,C305*%
X172362952Y-96115142D02*
X172315333Y-96162761D01*
X172172476Y-96210380D01*
X172077238Y-96210380D01*
X171934380Y-96162761D01*
X171839142Y-96067523D01*
X171791523Y-95972285D01*
X171743904Y-95781809D01*
X171743904Y-95638952D01*
X171791523Y-95448476D01*
X171839142Y-95353238D01*
X171934380Y-95258000D01*
X172077238Y-95210380D01*
X172172476Y-95210380D01*
X172315333Y-95258000D01*
X172362952Y-95305619D01*
X172696285Y-95210380D02*
X173315333Y-95210380D01*
X172982000Y-95591333D01*
X173124857Y-95591333D01*
X173220095Y-95638952D01*
X173267714Y-95686571D01*
X173315333Y-95781809D01*
X173315333Y-96019904D01*
X173267714Y-96115142D01*
X173220095Y-96162761D01*
X173124857Y-96210380D01*
X172839142Y-96210380D01*
X172743904Y-96162761D01*
X172696285Y-96115142D01*
X173934380Y-95210380D02*
X174029619Y-95210380D01*
X174124857Y-95258000D01*
X174172476Y-95305619D01*
X174220095Y-95400857D01*
X174267714Y-95591333D01*
X174267714Y-95829428D01*
X174220095Y-96019904D01*
X174172476Y-96115142D01*
X174124857Y-96162761D01*
X174029619Y-96210380D01*
X173934380Y-96210380D01*
X173839142Y-96162761D01*
X173791523Y-96115142D01*
X173743904Y-96019904D01*
X173696285Y-95829428D01*
X173696285Y-95591333D01*
X173743904Y-95400857D01*
X173791523Y-95305619D01*
X173839142Y-95258000D01*
X173934380Y-95210380D01*
X175172476Y-95210380D02*
X174696285Y-95210380D01*
X174648666Y-95686571D01*
X174696285Y-95638952D01*
X174791523Y-95591333D01*
X175029619Y-95591333D01*
X175124857Y-95638952D01*
X175172476Y-95686571D01*
X175220095Y-95781809D01*
X175220095Y-96019904D01*
X175172476Y-96115142D01*
X175124857Y-96162761D01*
X175029619Y-96210380D01*
X174791523Y-96210380D01*
X174696285Y-96162761D01*
X174648666Y-96115142D01*
%TO.C,C304*%
X174648952Y-101703142D02*
X174601333Y-101750761D01*
X174458476Y-101798380D01*
X174363238Y-101798380D01*
X174220380Y-101750761D01*
X174125142Y-101655523D01*
X174077523Y-101560285D01*
X174029904Y-101369809D01*
X174029904Y-101226952D01*
X174077523Y-101036476D01*
X174125142Y-100941238D01*
X174220380Y-100846000D01*
X174363238Y-100798380D01*
X174458476Y-100798380D01*
X174601333Y-100846000D01*
X174648952Y-100893619D01*
X174982285Y-100798380D02*
X175601333Y-100798380D01*
X175268000Y-101179333D01*
X175410857Y-101179333D01*
X175506095Y-101226952D01*
X175553714Y-101274571D01*
X175601333Y-101369809D01*
X175601333Y-101607904D01*
X175553714Y-101703142D01*
X175506095Y-101750761D01*
X175410857Y-101798380D01*
X175125142Y-101798380D01*
X175029904Y-101750761D01*
X174982285Y-101703142D01*
X176220380Y-100798380D02*
X176315619Y-100798380D01*
X176410857Y-100846000D01*
X176458476Y-100893619D01*
X176506095Y-100988857D01*
X176553714Y-101179333D01*
X176553714Y-101417428D01*
X176506095Y-101607904D01*
X176458476Y-101703142D01*
X176410857Y-101750761D01*
X176315619Y-101798380D01*
X176220380Y-101798380D01*
X176125142Y-101750761D01*
X176077523Y-101703142D01*
X176029904Y-101607904D01*
X175982285Y-101417428D01*
X175982285Y-101179333D01*
X176029904Y-100988857D01*
X176077523Y-100893619D01*
X176125142Y-100846000D01*
X176220380Y-100798380D01*
X177410857Y-101131714D02*
X177410857Y-101798380D01*
X177172761Y-100750761D02*
X176934666Y-101465047D01*
X177553714Y-101465047D01*
%TO.C,C301*%
X161313952Y-91035142D02*
X161266333Y-91082761D01*
X161123476Y-91130380D01*
X161028238Y-91130380D01*
X160885380Y-91082761D01*
X160790142Y-90987523D01*
X160742523Y-90892285D01*
X160694904Y-90701809D01*
X160694904Y-90558952D01*
X160742523Y-90368476D01*
X160790142Y-90273238D01*
X160885380Y-90178000D01*
X161028238Y-90130380D01*
X161123476Y-90130380D01*
X161266333Y-90178000D01*
X161313952Y-90225619D01*
X161647285Y-90130380D02*
X162266333Y-90130380D01*
X161933000Y-90511333D01*
X162075857Y-90511333D01*
X162171095Y-90558952D01*
X162218714Y-90606571D01*
X162266333Y-90701809D01*
X162266333Y-90939904D01*
X162218714Y-91035142D01*
X162171095Y-91082761D01*
X162075857Y-91130380D01*
X161790142Y-91130380D01*
X161694904Y-91082761D01*
X161647285Y-91035142D01*
X162885380Y-90130380D02*
X162980619Y-90130380D01*
X163075857Y-90178000D01*
X163123476Y-90225619D01*
X163171095Y-90320857D01*
X163218714Y-90511333D01*
X163218714Y-90749428D01*
X163171095Y-90939904D01*
X163123476Y-91035142D01*
X163075857Y-91082761D01*
X162980619Y-91130380D01*
X162885380Y-91130380D01*
X162790142Y-91082761D01*
X162742523Y-91035142D01*
X162694904Y-90939904D01*
X162647285Y-90749428D01*
X162647285Y-90511333D01*
X162694904Y-90320857D01*
X162742523Y-90225619D01*
X162790142Y-90178000D01*
X162885380Y-90130380D01*
X164171095Y-91130380D02*
X163599666Y-91130380D01*
X163885380Y-91130380D02*
X163885380Y-90130380D01*
X163790142Y-90273238D01*
X163694904Y-90368476D01*
X163599666Y-90416095D01*
%TO.C,C205*%
X123293142Y-123420047D02*
X123340761Y-123467666D01*
X123388380Y-123610523D01*
X123388380Y-123705761D01*
X123340761Y-123848619D01*
X123245523Y-123943857D01*
X123150285Y-123991476D01*
X122959809Y-124039095D01*
X122816952Y-124039095D01*
X122626476Y-123991476D01*
X122531238Y-123943857D01*
X122436000Y-123848619D01*
X122388380Y-123705761D01*
X122388380Y-123610523D01*
X122436000Y-123467666D01*
X122483619Y-123420047D01*
X122483619Y-123039095D02*
X122436000Y-122991476D01*
X122388380Y-122896238D01*
X122388380Y-122658142D01*
X122436000Y-122562904D01*
X122483619Y-122515285D01*
X122578857Y-122467666D01*
X122674095Y-122467666D01*
X122816952Y-122515285D01*
X123388380Y-123086714D01*
X123388380Y-122467666D01*
X122388380Y-121848619D02*
X122388380Y-121753380D01*
X122436000Y-121658142D01*
X122483619Y-121610523D01*
X122578857Y-121562904D01*
X122769333Y-121515285D01*
X123007428Y-121515285D01*
X123197904Y-121562904D01*
X123293142Y-121610523D01*
X123340761Y-121658142D01*
X123388380Y-121753380D01*
X123388380Y-121848619D01*
X123340761Y-121943857D01*
X123293142Y-121991476D01*
X123197904Y-122039095D01*
X123007428Y-122086714D01*
X122769333Y-122086714D01*
X122578857Y-122039095D01*
X122483619Y-121991476D01*
X122436000Y-121943857D01*
X122388380Y-121848619D01*
X122388380Y-120610523D02*
X122388380Y-121086714D01*
X122864571Y-121134333D01*
X122816952Y-121086714D01*
X122769333Y-120991476D01*
X122769333Y-120753380D01*
X122816952Y-120658142D01*
X122864571Y-120610523D01*
X122959809Y-120562904D01*
X123197904Y-120562904D01*
X123293142Y-120610523D01*
X123340761Y-120658142D01*
X123388380Y-120753380D01*
X123388380Y-120991476D01*
X123340761Y-121086714D01*
X123293142Y-121134333D01*
%TO.C,C204*%
X128547952Y-116435142D02*
X128500333Y-116482761D01*
X128357476Y-116530380D01*
X128262238Y-116530380D01*
X128119380Y-116482761D01*
X128024142Y-116387523D01*
X127976523Y-116292285D01*
X127928904Y-116101809D01*
X127928904Y-115958952D01*
X127976523Y-115768476D01*
X128024142Y-115673238D01*
X128119380Y-115578000D01*
X128262238Y-115530380D01*
X128357476Y-115530380D01*
X128500333Y-115578000D01*
X128547952Y-115625619D01*
X128928904Y-115625619D02*
X128976523Y-115578000D01*
X129071761Y-115530380D01*
X129309857Y-115530380D01*
X129405095Y-115578000D01*
X129452714Y-115625619D01*
X129500333Y-115720857D01*
X129500333Y-115816095D01*
X129452714Y-115958952D01*
X128881285Y-116530380D01*
X129500333Y-116530380D01*
X130119380Y-115530380D02*
X130214619Y-115530380D01*
X130309857Y-115578000D01*
X130357476Y-115625619D01*
X130405095Y-115720857D01*
X130452714Y-115911333D01*
X130452714Y-116149428D01*
X130405095Y-116339904D01*
X130357476Y-116435142D01*
X130309857Y-116482761D01*
X130214619Y-116530380D01*
X130119380Y-116530380D01*
X130024142Y-116482761D01*
X129976523Y-116435142D01*
X129928904Y-116339904D01*
X129881285Y-116149428D01*
X129881285Y-115911333D01*
X129928904Y-115720857D01*
X129976523Y-115625619D01*
X130024142Y-115578000D01*
X130119380Y-115530380D01*
X131309857Y-115863714D02*
X131309857Y-116530380D01*
X131071761Y-115482761D02*
X130833666Y-116197047D01*
X131452714Y-116197047D01*
%TO.C,C203*%
X119784952Y-114403142D02*
X119737333Y-114450761D01*
X119594476Y-114498380D01*
X119499238Y-114498380D01*
X119356380Y-114450761D01*
X119261142Y-114355523D01*
X119213523Y-114260285D01*
X119165904Y-114069809D01*
X119165904Y-113926952D01*
X119213523Y-113736476D01*
X119261142Y-113641238D01*
X119356380Y-113546000D01*
X119499238Y-113498380D01*
X119594476Y-113498380D01*
X119737333Y-113546000D01*
X119784952Y-113593619D01*
X120165904Y-113593619D02*
X120213523Y-113546000D01*
X120308761Y-113498380D01*
X120546857Y-113498380D01*
X120642095Y-113546000D01*
X120689714Y-113593619D01*
X120737333Y-113688857D01*
X120737333Y-113784095D01*
X120689714Y-113926952D01*
X120118285Y-114498380D01*
X120737333Y-114498380D01*
X121356380Y-113498380D02*
X121451619Y-113498380D01*
X121546857Y-113546000D01*
X121594476Y-113593619D01*
X121642095Y-113688857D01*
X121689714Y-113879333D01*
X121689714Y-114117428D01*
X121642095Y-114307904D01*
X121594476Y-114403142D01*
X121546857Y-114450761D01*
X121451619Y-114498380D01*
X121356380Y-114498380D01*
X121261142Y-114450761D01*
X121213523Y-114403142D01*
X121165904Y-114307904D01*
X121118285Y-114117428D01*
X121118285Y-113879333D01*
X121165904Y-113688857D01*
X121213523Y-113593619D01*
X121261142Y-113546000D01*
X121356380Y-113498380D01*
X122023047Y-113498380D02*
X122642095Y-113498380D01*
X122308761Y-113879333D01*
X122451619Y-113879333D01*
X122546857Y-113926952D01*
X122594476Y-113974571D01*
X122642095Y-114069809D01*
X122642095Y-114307904D01*
X122594476Y-114403142D01*
X122546857Y-114450761D01*
X122451619Y-114498380D01*
X122165904Y-114498380D01*
X122070666Y-114450761D01*
X122023047Y-114403142D01*
%TO.C,C202*%
X113434952Y-112371142D02*
X113387333Y-112418761D01*
X113244476Y-112466380D01*
X113149238Y-112466380D01*
X113006380Y-112418761D01*
X112911142Y-112323523D01*
X112863523Y-112228285D01*
X112815904Y-112037809D01*
X112815904Y-111894952D01*
X112863523Y-111704476D01*
X112911142Y-111609238D01*
X113006380Y-111514000D01*
X113149238Y-111466380D01*
X113244476Y-111466380D01*
X113387333Y-111514000D01*
X113434952Y-111561619D01*
X113815904Y-111561619D02*
X113863523Y-111514000D01*
X113958761Y-111466380D01*
X114196857Y-111466380D01*
X114292095Y-111514000D01*
X114339714Y-111561619D01*
X114387333Y-111656857D01*
X114387333Y-111752095D01*
X114339714Y-111894952D01*
X113768285Y-112466380D01*
X114387333Y-112466380D01*
X115006380Y-111466380D02*
X115101619Y-111466380D01*
X115196857Y-111514000D01*
X115244476Y-111561619D01*
X115292095Y-111656857D01*
X115339714Y-111847333D01*
X115339714Y-112085428D01*
X115292095Y-112275904D01*
X115244476Y-112371142D01*
X115196857Y-112418761D01*
X115101619Y-112466380D01*
X115006380Y-112466380D01*
X114911142Y-112418761D01*
X114863523Y-112371142D01*
X114815904Y-112275904D01*
X114768285Y-112085428D01*
X114768285Y-111847333D01*
X114815904Y-111656857D01*
X114863523Y-111561619D01*
X114911142Y-111514000D01*
X115006380Y-111466380D01*
X115720666Y-111561619D02*
X115768285Y-111514000D01*
X115863523Y-111466380D01*
X116101619Y-111466380D01*
X116196857Y-111514000D01*
X116244476Y-111561619D01*
X116292095Y-111656857D01*
X116292095Y-111752095D01*
X116244476Y-111894952D01*
X115673047Y-112466380D01*
X116292095Y-112466380D01*
%TO.C,C201*%
X112164952Y-116054142D02*
X112117333Y-116101761D01*
X111974476Y-116149380D01*
X111879238Y-116149380D01*
X111736380Y-116101761D01*
X111641142Y-116006523D01*
X111593523Y-115911285D01*
X111545904Y-115720809D01*
X111545904Y-115577952D01*
X111593523Y-115387476D01*
X111641142Y-115292238D01*
X111736380Y-115197000D01*
X111879238Y-115149380D01*
X111974476Y-115149380D01*
X112117333Y-115197000D01*
X112164952Y-115244619D01*
X112545904Y-115244619D02*
X112593523Y-115197000D01*
X112688761Y-115149380D01*
X112926857Y-115149380D01*
X113022095Y-115197000D01*
X113069714Y-115244619D01*
X113117333Y-115339857D01*
X113117333Y-115435095D01*
X113069714Y-115577952D01*
X112498285Y-116149380D01*
X113117333Y-116149380D01*
X113736380Y-115149380D02*
X113831619Y-115149380D01*
X113926857Y-115197000D01*
X113974476Y-115244619D01*
X114022095Y-115339857D01*
X114069714Y-115530333D01*
X114069714Y-115768428D01*
X114022095Y-115958904D01*
X113974476Y-116054142D01*
X113926857Y-116101761D01*
X113831619Y-116149380D01*
X113736380Y-116149380D01*
X113641142Y-116101761D01*
X113593523Y-116054142D01*
X113545904Y-115958904D01*
X113498285Y-115768428D01*
X113498285Y-115530333D01*
X113545904Y-115339857D01*
X113593523Y-115244619D01*
X113641142Y-115197000D01*
X113736380Y-115149380D01*
X115022095Y-116149380D02*
X114450666Y-116149380D01*
X114736380Y-116149380D02*
X114736380Y-115149380D01*
X114641142Y-115292238D01*
X114545904Y-115387476D01*
X114450666Y-115435095D01*
%TD*%
M02*
