%TF.GenerationSoftware,KiCad,Pcbnew,(5.1.8)-1*%
%TF.CreationDate,2021-11-19T11:08:09-06:00*%
%TF.ProjectId,EE514 Board,45453531-3420-4426-9f61-72642e6b6963,rev?*%
%TF.SameCoordinates,Original*%
%TF.FileFunction,Copper,L2,Bot*%
%TF.FilePolarity,Positive*%
%FSLAX46Y46*%
G04 Gerber Fmt 4.6, Leading zero omitted, Abs format (unit mm)*
G04 Created by KiCad (PCBNEW (5.1.8)-1) date 2021-11-19 11:08:09*
%MOMM*%
%LPD*%
G01*
G04 APERTURE LIST*
%TA.AperFunction,SMDPad,CuDef*%
%ADD10R,0.950000X0.460000*%
%TD*%
%TA.AperFunction,ComponentPad*%
%ADD11C,0.970000*%
%TD*%
%TA.AperFunction,SMDPad,CuDef*%
%ADD12R,5.080000X2.420000*%
%TD*%
%TA.AperFunction,ComponentPad*%
%ADD13C,2.100000*%
%TD*%
%TA.AperFunction,ComponentPad*%
%ADD14R,2.100000X2.100000*%
%TD*%
%TA.AperFunction,ViaPad*%
%ADD15C,0.800000*%
%TD*%
%TA.AperFunction,Conductor*%
%ADD16C,0.254000*%
%TD*%
%TA.AperFunction,Conductor*%
%ADD17C,0.100000*%
%TD*%
G04 APERTURE END LIST*
D10*
%TO.P,J106,2*%
%TO.N,GND*%
X182041800Y-94121200D03*
X182041800Y-102881200D03*
D11*
X181591800Y-94121200D03*
X181591800Y-102881200D03*
D12*
X185031800Y-94121200D03*
X185031800Y-102881200D03*
%TD*%
D10*
%TO.P,J105,2*%
%TO.N,GND*%
X182041800Y-113730000D03*
X182041800Y-122490000D03*
D11*
X181591800Y-113730000D03*
X181591800Y-122490000D03*
D12*
X185031800Y-113730000D03*
X185031800Y-122490000D03*
%TD*%
D10*
%TO.P,J104,2*%
%TO.N,GND*%
X182041800Y-61914000D03*
X182041800Y-70674000D03*
D11*
X181591800Y-61914000D03*
X181591800Y-70674000D03*
D12*
X185031800Y-61914000D03*
X185031800Y-70674000D03*
%TD*%
D10*
%TO.P,J103,2*%
%TO.N,GND*%
X100584000Y-122490000D03*
X100584000Y-113730000D03*
D11*
X101034000Y-122490000D03*
X101034000Y-113730000D03*
D12*
X97594000Y-122490000D03*
X97594000Y-113730000D03*
%TD*%
D10*
%TO.P,J102,2*%
%TO.N,GND*%
X100584000Y-82358000D03*
X100584000Y-73598000D03*
D11*
X101034000Y-82358000D03*
X101034000Y-73598000D03*
D12*
X97594000Y-82358000D03*
X97594000Y-73598000D03*
%TD*%
D13*
%TO.P,J101,2*%
%TO.N,+5V*%
X98806000Y-98806000D03*
D14*
%TO.P,J101,1*%
%TO.N,GND*%
X98806000Y-96266000D03*
%TD*%
D15*
%TO.N,GND*%
X170535600Y-92049600D03*
X169570400Y-92049600D03*
X168554400Y-92049600D03*
X167767000Y-103073200D03*
X165785800Y-103073200D03*
X166801800Y-103073200D03*
X172618400Y-96951800D03*
X173532800Y-101320600D03*
X163753800Y-98044000D03*
X162458400Y-91694000D03*
X150977600Y-91008200D03*
X151028400Y-100101400D03*
X152069800Y-100101400D03*
X147726400Y-103809800D03*
X145694400Y-103809800D03*
X122428000Y-98094800D03*
X121361200Y-99491800D03*
X124180600Y-101828600D03*
X124180600Y-103936800D03*
X127533400Y-116027200D03*
X122097800Y-115849400D03*
X121437400Y-116357400D03*
X120675400Y-117525800D03*
X119456200Y-117525800D03*
X116408200Y-121539000D03*
X112928400Y-113436400D03*
X112217200Y-99314000D03*
%TD*%
D16*
%TO.N,GND*%
X185844033Y-58056480D02*
X186251913Y-58179626D01*
X186628109Y-58379654D01*
X186958282Y-58648936D01*
X187229870Y-58977230D01*
X187432515Y-59352014D01*
X187558508Y-59759030D01*
X187604801Y-60199481D01*
X187604800Y-124950625D01*
X187561519Y-125392033D01*
X187438373Y-125799915D01*
X187238348Y-126176108D01*
X186969064Y-126506282D01*
X186640770Y-126777870D01*
X186265984Y-126980516D01*
X185858970Y-127106508D01*
X185418529Y-127152800D01*
X97553375Y-127152800D01*
X97111967Y-127109519D01*
X96704085Y-126986373D01*
X96327892Y-126786348D01*
X95997718Y-126517064D01*
X95726130Y-126188770D01*
X95523484Y-125813984D01*
X95397492Y-125406970D01*
X95351200Y-124966529D01*
X95351200Y-98670062D01*
X97425800Y-98670062D01*
X97425800Y-98941938D01*
X97478841Y-99208589D01*
X97582883Y-99459770D01*
X97733929Y-99685826D01*
X97926174Y-99878071D01*
X98152230Y-100029117D01*
X98403411Y-100133159D01*
X98670062Y-100186200D01*
X98941938Y-100186200D01*
X99208589Y-100133159D01*
X99459770Y-100029117D01*
X99685826Y-99878071D01*
X99878071Y-99685826D01*
X100029117Y-99459770D01*
X100133159Y-99208589D01*
X100186200Y-98941938D01*
X100186200Y-98670062D01*
X100133159Y-98403411D01*
X100029117Y-98152230D01*
X99878071Y-97926174D01*
X99685826Y-97733929D01*
X99459770Y-97582883D01*
X99208589Y-97478841D01*
X98941938Y-97425800D01*
X98670062Y-97425800D01*
X98403411Y-97478841D01*
X98152230Y-97582883D01*
X97926174Y-97733929D01*
X97733929Y-97926174D01*
X97582883Y-98152230D01*
X97478841Y-98403411D01*
X97425800Y-98670062D01*
X95351200Y-98670062D01*
X95351200Y-60215375D01*
X95394480Y-59773967D01*
X95517626Y-59366087D01*
X95717654Y-58989891D01*
X95986936Y-58659718D01*
X96315230Y-58388130D01*
X96690014Y-58185485D01*
X97097030Y-58059492D01*
X97537472Y-58013200D01*
X185402625Y-58013200D01*
X185844033Y-58056480D01*
%TA.AperFunction,Conductor*%
D17*
G36*
X185844033Y-58056480D02*
G01*
X186251913Y-58179626D01*
X186628109Y-58379654D01*
X186958282Y-58648936D01*
X187229870Y-58977230D01*
X187432515Y-59352014D01*
X187558508Y-59759030D01*
X187604801Y-60199481D01*
X187604800Y-124950625D01*
X187561519Y-125392033D01*
X187438373Y-125799915D01*
X187238348Y-126176108D01*
X186969064Y-126506282D01*
X186640770Y-126777870D01*
X186265984Y-126980516D01*
X185858970Y-127106508D01*
X185418529Y-127152800D01*
X97553375Y-127152800D01*
X97111967Y-127109519D01*
X96704085Y-126986373D01*
X96327892Y-126786348D01*
X95997718Y-126517064D01*
X95726130Y-126188770D01*
X95523484Y-125813984D01*
X95397492Y-125406970D01*
X95351200Y-124966529D01*
X95351200Y-98670062D01*
X97425800Y-98670062D01*
X97425800Y-98941938D01*
X97478841Y-99208589D01*
X97582883Y-99459770D01*
X97733929Y-99685826D01*
X97926174Y-99878071D01*
X98152230Y-100029117D01*
X98403411Y-100133159D01*
X98670062Y-100186200D01*
X98941938Y-100186200D01*
X99208589Y-100133159D01*
X99459770Y-100029117D01*
X99685826Y-99878071D01*
X99878071Y-99685826D01*
X100029117Y-99459770D01*
X100133159Y-99208589D01*
X100186200Y-98941938D01*
X100186200Y-98670062D01*
X100133159Y-98403411D01*
X100029117Y-98152230D01*
X99878071Y-97926174D01*
X99685826Y-97733929D01*
X99459770Y-97582883D01*
X99208589Y-97478841D01*
X98941938Y-97425800D01*
X98670062Y-97425800D01*
X98403411Y-97478841D01*
X98152230Y-97582883D01*
X97926174Y-97733929D01*
X97733929Y-97926174D01*
X97582883Y-98152230D01*
X97478841Y-98403411D01*
X97425800Y-98670062D01*
X95351200Y-98670062D01*
X95351200Y-60215375D01*
X95394480Y-59773967D01*
X95517626Y-59366087D01*
X95717654Y-58989891D01*
X95986936Y-58659718D01*
X96315230Y-58388130D01*
X96690014Y-58185485D01*
X97097030Y-58059492D01*
X97537472Y-58013200D01*
X185402625Y-58013200D01*
X185844033Y-58056480D01*
G37*
%TD.AperFunction*%
%TD*%
M02*
