M48
; DRILL file {KiCad (5.1.6-0-10_14)} date Friday, November 19, 2021 at 04:45:32 PM
; FORMAT={-:-/ absolute / inch / decimal}
; #@! TF.CreationDate,2021-11-19T16:45:32-06:00
; #@! TF.GenerationSoftware,Kicad,Pcbnew,(5.1.6-0-10_14)
; #@! TF.FileFunction,Plated,1,2,PTH
FMAT,2
INCH
T1C0.0157
T2C0.0181
T3C0.0433
%
G90
G05
T1
X4.418Y-3.91
X4.446Y-4.466
X4.583Y-4.785
X4.703Y-4.627
X4.751Y-4.627
X4.778Y-3.917
X4.781Y-4.581
X4.807Y-4.561
X4.82Y-3.862
X4.889Y-4.009
X4.889Y-4.092
X5.021Y-4.568
X5.736Y-4.087
X5.816Y-4.087
X5.944Y-3.583
X5.946Y-3.941
X5.987Y-3.941
X6.396Y-3.61
X6.447Y-3.86
X6.527Y-4.058
X6.567Y-4.058
X6.605Y-4.058
X6.636Y-3.624
X6.676Y-3.624
X6.714Y-3.624
X6.796Y-3.817
X6.832Y-3.989
T2
X7.1493Y-3.7056
X7.1493Y-4.0504
X7.1493Y-4.4776
X7.1493Y-4.8224
X7.1493Y-2.4376
X7.1493Y-2.7824
X3.9777Y-4.4776
X3.9777Y-4.8224
X3.9777Y-2.8976
X3.9777Y-3.2424
T3
X3.89Y-3.79
X3.89Y-3.89
T0
M30
